<?xml version="1.0" encoding="UTF-8"?>
<svg version="1.1" xmlns="http://www.w3.org/2000/svg" width="594" height="420">
<path d="M0 0 C0 0.66 0 1.32 0 2 C0.804375 2.12375 0.804375 2.12375 1.625 2.25 C4.8352431 3.26376098 7.26292392 5.07160549 10 7 C8.44759763 11.96768758 5.48945219 16.17867057 2 20 C1.34 20 0.68 20 0 20 C-0.09410156 20.72574219 -0.18820312 21.45148438 -0.28515625 22.19921875 C-1.10991371 25.4306455 -2.36658157 27.21631743 -4.4375 29.8125 C-5.05496094 30.60269531 -5.67242187 31.39289063 -6.30859375 32.20703125 C-6.86675781 32.79871094 -7.42492187 33.39039063 -8 34 C-8.66 34 -9.32 34 -10 34 C-10.27585937 34.73863281 -10.55171875 35.47726563 -10.8359375 36.23828125 C-14.26719878 44.37889107 -20.43905898 51.23936358 -26 58 C-25.278125 58.69996094 -24.55625 59.39992188 -23.8125 60.12109375 C-12.18375285 71.77850331 -3.93874983 85.98460792 -3.62011719 102.79956055 C-3.62172852 103.58758057 -3.62333984 104.37560059 -3.625 105.1875 C-3.62661133 106.01612549 -3.62822266 106.84475098 -3.62988281 107.69848633 C-3.77337632 114.95967974 -5.2164976 121.27320255 -8 128 C-8.28875 128.7321875 -8.5775 129.464375 -8.875 130.21875 C-12.3712354 138.08527966 -18.57301314 145.32912924 -25 151 C-25.66 151 -26.32 151 -27 151 C-27 151.66 -27 152.32 -27 153 C-42.60934173 163.12562846 -58.21674015 166.0546093 -76.6875 162.8125 C-81.30148063 161.82919265 -85.08421425 160.62717401 -89.1875 158.3125 C-93.9940479 155.60831529 -97.88198869 155.78088673 -103.296875 155.99609375 C-107.00275142 156.00144906 -109.0721859 155.26905592 -112 153 C-115.89231688 147.77610103 -116.51912077 144.43709758 -116 138 C-115.66935547 136.824375 -115.66935547 136.824375 -115.33203125 135.625 C-114.89191428 132.14548698 -115.8928578 130.27762291 -117.375 127.125 C-122.57394817 116.00099357 -123.1897254 98.71062592 -119 87 C-115.48106385 78.65898051 -111.62689439 70.31132799 -105 64 C-104.34 64 -103.68 64 -103 64 C-102.505 62.515 -102.505 62.515 -102 61 C-90.05218947 49.50556621 -74.85313193 46.65059717 -58.82421875 46.69921875 C-55 47 -55 47 -47 49 C-45.68 43.39 -44.36 37.78 -43 32 C-54.76884291 29.90776126 -66.14985963 29.10397754 -78 31 C-78.309375 32.0828125 -78.309375 32.0828125 -78.625 33.1875 C-80.41417646 36.84717913 -82.29837626 39.30077843 -86 41 C-91.13192876 41.60335754 -96.07701465 41.64099512 -101 40 C-115.10258782 46.49306648 -124.57107215 59.50098438 -131 73 C-131.38542969 73.76699219 -131.77085937 74.53398438 -132.16796875 75.32421875 C-139.82658794 91.19898114 -140.51734835 110.67719877 -135.33984375 127.42578125 C-132.48821408 135.03289829 -129.3190946 142.54177267 -124.78125 149.30859375 C-123 152 -123 152 -123 154 C-122.01 154.33 -121.02 154.66 -120 155 C-118.64385153 156.6481556 -117.31340255 158.31758231 -116 160 C-104.99090382 170.55433145 -92.1157401 177.64007288 -77 180 C-76.25878906 180.12890625 -75.51757812 180.2578125 -74.75390625 180.390625 C-67.25469191 181.46801685 -59.55659767 181.08344709 -52 181 C-51.87882813 180.06542969 -51.75765625 179.13085938 -51.6328125 178.16796875 C-50.79747586 173.98612916 -49.29706305 172.6519855 -46 170 C-41.75930153 167.4718913 -39.01620679 166.71259407 -34.25 167.6875 C-31.2482489 168.45892904 -29.65237455 169.2317503 -27 171 C-22.41554389 170.78605871 -19.91977461 168.65104475 -16.5 165.75 C-15.5821875 164.98171875 -14.664375 164.2134375 -13.71875 163.421875 C0.46480753 150.78709674 11.5614225 133.12548261 12.87890625 113.8203125 C13.86284506 90.90406019 8.48946224 70.6076793 -7 53 C-8.63356951 51.62631655 -10.2925002 50.28062485 -12 49 C-10.60485497 44.56090219 -8.52304189 42.01975019 -5 39 C-2.8359375 38.359375 -2.8359375 38.359375 -1 38 C1.00602639 40.28663127 3.00491565 42.57885562 5 44.875 C5.57234375 45.52597656 6.1446875 46.17695312 6.734375 46.84765625 C7.54648437 47.78544922 7.54648437 47.78544922 8.375 48.7421875 C8.87773437 49.3182373 9.38046875 49.89428711 9.8984375 50.48779297 C11 52 11 52 11 54 C11.66 54 12.32 54 13 54 C18.58868618 64.42851616 22.79273802 74.61628474 26 86 C26.33 86.99 26.66 87.98 27 89 C27.94036324 95.97726306 28.23402131 102.96872347 28 110 C27.97164062 110.92425781 27.94328125 111.84851563 27.9140625 112.80078125 C26.82124799 132.44542298 18.54773029 151.4007911 5.1640625 165.6796875 C3.30896024 167.66873216 1.58502093 169.7001212 -0.125 171.8125 C-5.7004346 178.33499473 -13.92142294 183.16306787 -21.9375 186.0625 C-24.58664718 187.26665781 -24.78453144 188.4171293 -26 191 C-29.92263483 194.43230547 -32.24081815 196.14206628 -37.4375 196.125 C-38.21996094 196.12757813 -39.00242187 196.13015625 -39.80859375 196.1328125 C-42 196 -42 196 -45 195 C-46.67289522 195.30051698 -48.33936179 195.63782651 -50 196 C-76.81543737 197.83062072 -96.98847587 192.20026579 -119 177 C-119.75796875 176.48050781 -120.5159375 175.96101562 -121.296875 175.42578125 C-121.85890625 174.95527344 -122.4209375 174.48476562 -123 174 C-123 173.34 -123 172.68 -123 172 C-123.59296875 171.7421875 -124.1859375 171.484375 -124.796875 171.21875 C-127.17660965 169.90230105 -128.50978792 168.57419218 -130.25 166.5 C-130.77078125 165.8915625 -131.2915625 165.283125 -131.828125 164.65625 C-133 163 -133 163 -133 161 C-133.99 160.67 -134.98 160.34 -136 160 C-150.8872426 140.09743899 -155.43084606 116.05191605 -152.37890625 91.6796875 C-150.61162921 79.51306986 -147.24722607 69.55694266 -141 59 C-140.22849609 57.63488281 -140.22849609 57.63488281 -139.44140625 56.2421875 C-138.125 54 -138.125 54 -136 51 C-135.34 51 -134.68 51 -134 51 C-133.773125 50.484375 -133.54625 49.96875 -133.3125 49.4375 C-128.92991692 41.29841713 -123.52515558 37.20244695 -116 32 C-113.8401901 30.35924119 -111.69548869 28.70167099 -109.55859375 27.03125 C-108 26 -108 26 -106 26 C-106.0825 25.278125 -106.165 24.55625 -106.25 23.8125 C-105.92059581 20.10670285 -104.5227551 18.66691253 -102 16 C-98.44677259 13.63118173 -95.21419566 12.91515042 -91 13 C-89.4065979 13.49149536 -89.4065979 13.49149536 -87.78100586 13.99291992 C-84.03126186 14.99167333 -81.03945511 15.21703502 -77.17578125 15.16015625 C-75.89896484 15.14919922 -74.62214844 15.13824219 -73.30664062 15.12695312 C-71.98857422 15.10568359 -70.67050781 15.08441406 -69.3125 15.0625 C-45.75930344 14.74689885 -45.75930344 14.74689885 -39 17 C-38.34956281 15.27255984 -37.70485156 13.5429631 -37.0625 11.8125 C-36.70285156 10.84957031 -36.34320313 9.88664062 -35.97265625 8.89453125 C-35.08843438 6.2631722 -34.47431414 3.73105092 -34 1 C-61.3480283 -3.49950057 -89.4506801 -3.93867459 -113.7421875 11.57421875 C-122.33424658 17 -122.33424658 17 -126 17 C-126 17.66 -126 18.32 -126 19 C-127.5390625 20.55078125 -127.5390625 20.55078125 -129.625 22.3125 C-130.35589844 22.93511719 -131.08679688 23.55773437 -131.83984375 24.19921875 C-133.61725609 25.68093139 -135.40031449 27.15512158 -137.1875 28.625 C-142.23363716 32.88618249 -146.19369981 37.33264386 -149.8125 42.8125 C-150.24119385 43.45904541 -150.6698877 44.10559082 -151.11157227 44.77172852 C-158.28875395 55.8412584 -165.3698374 68.45995642 -167.125 81.6875 C-167.96434252 87.83531585 -167.96434252 87.83531585 -168.51196289 90.36450195 C-172.47615523 111.77193382 -168.2009362 135.04187958 -158 154 C-157.505 155.02222656 -157.01 156.04445312 -156.5 157.09765625 C-155.03851579 159.92547597 -153.41987517 162.41870355 -151.5625 165 C-149.57513088 167.77647156 -147.62910523 170.54679089 -145.8125 173.4375 C-144.06240726 175.91176904 -142.43546543 177.26038183 -140 179 C-140 179.66 -140 180.32 -140 181 C-138.68 181.66 -137.36 182.32 -136 183 C-136 183.66 -136 184.32 -136 185 C-135.40574219 185.26683594 -134.81148437 185.53367188 -134.19921875 185.80859375 C-131.96096546 187.0211466 -130.59915857 188.26735374 -128.8125 190.0625 C-111.40542466 205.64752633 -83.57558323 214.014191 -60.453125 213.17578125 C-59.23882812 213.08876953 -59.23882812 213.08876953 -58 213 C-56.81921875 212.93167969 -55.6384375 212.86335937 -54.421875 212.79296875 C-37.01207398 211.46003086 -21.25354856 205.28770712 -6.17578125 196.72265625 C-3 195 -3 195 -1 195 C-0.67 194.01 -0.34 193.02 0 192 C1.9609375 190.2109375 1.9609375 190.2109375 4.375 188.375 C5.16648437 187.76398438 5.95796875 187.15296875 6.7734375 186.5234375 C9 185 9 185 12 184 C12.33 183.01 12.66 182.02 13 181 C14.64966118 179.31649962 16.31888329 177.65209024 18 176 C33.10917672 157.42228184 43.32357295 135.25913377 44 111 C44.02835938 110.07574219 44.05671875 109.15148437 44.0859375 108.19921875 C44.12557206 105.46047054 44.0805223 102.73775835 44 100 C43.98324219 99.01773438 43.96648437 98.03546875 43.94921875 97.0234375 C43.53552481 87.49665704 40.99525878 78.97567089 38 70 C37.77151367 69.29343262 37.54302734 68.58686523 37.30761719 67.85888672 C34.20052763 58.35084111 30.41429337 50.80816866 24 43 C22.68342128 41.33655343 21.37067299 39.67006511 20.0625 38 C19.49660156 37.29875 18.93070313 36.5975 18.34765625 35.875 C17 34 17 34 16 31 C15.01 30.67 14.02 30.34 13 30 C11.25 28.8125 11.25 28.8125 10 27 C10 22.97457704 10.74352133 21.31193352 13.3125 18.1875 C16.94474546 15.23102114 16.94474546 15.23102114 20 15 C23.11005169 17.17572944 25.49277587 20.16554625 28 23 C28.61875 23.67933594 29.2375 24.35867187 29.875 25.05859375 C52.54873656 51.55852335 60.45773057 82.98105107 58.8125 117.25 C56.06511911 145.43609279 44.80865187 169.7896126 25 190 C23.71834006 191.49075993 22.44607996 192.98970405 21.1875 194.5 C18.42167857 197.67678074 15.62199498 199.79839521 12 202 C10.32731088 203.15801554 8.66116554 204.32551375 7 205.5 C5.33734886 206.67238222 3.67048595 207.83880855 2 209 C1.06800781 209.65871094 0.13601563 210.31742188 -0.82421875 210.99609375 C-4.37591481 213.23720086 -7.95893857 214.91836305 -11.8125 216.5625 C-12.47314453 216.85318359 -13.13378906 217.14386719 -13.81445312 217.44335938 C-29.72484242 224.32810673 -45.48158177 227.36304684 -62.8125 227.4375 C-64.59865723 227.4523645 -64.59865723 227.4523645 -66.42089844 227.4675293 C-77.94465159 227.35693818 -88.8184434 224.86677617 -99.8125 221.5625 C-100.52897705 221.34932129 -101.2454541 221.13614258 -101.98364258 220.91650391 C-107.18859466 219.33071708 -112.13793625 217.45774651 -117 215 C-118.546875 214.2575 -118.546875 214.2575 -120.125 213.5 C-123.47235674 211.753553 -126.73408986 209.89422788 -130 208 C-130 207.34 -130 206.68 -130 206 C-130.83917969 205.60554688 -130.83917969 205.60554688 -131.6953125 205.203125 C-138.58926514 201.60424803 -144.85588016 196.82097771 -150 191 C-150 190.34 -150 189.68 -150 189 C-150.99 188.67 -151.98 188.34 -153 188 C-158 182.53488372 -158 182.53488372 -158 180 C-158.99 179.67 -159.98 179.34 -161 179 C-179.52788036 156.1098592 -187.4882746 122.30688367 -184.65625 93.50390625 C-184.18782337 90.31470159 -183.61552749 87.16388971 -183 84 C-182.82855469 82.92878906 -182.65710938 81.85757813 -182.48046875 80.75390625 C-179.39506757 63.53537706 -170.94693595 42.92459028 -159 30 C-158.34 30 -157.68 30 -157 30 C-156.71125 29.401875 -156.4225 28.80375 -156.125 28.1875 C-155 26 -155 26 -153 23 C-152.34 23 -151.68 23 -151 23 C-150.80664062 22.28714844 -150.61328125 21.57429688 -150.4140625 20.83984375 C-148.48889714 16.97355862 -145.79713654 15.09763014 -142.375 12.5625 C-141.73908936 12.07950439 -141.10317871 11.59650879 -140.44799805 11.09887695 C-139.19279745 10.14710328 -137.93434455 9.19960045 -136.67236328 8.25683594 C-135.32739911 7.24605119 -134.00211982 6.20910003 -132.68359375 5.1640625 C-96.99637918 -22.99829055 -38.02648225 -23.8770935 0 0 Z M-96.32421875 75.68359375 C-103.87625341 85.74832017 -109.09495927 96.07948066 -108 109 C-106.40788027 118.54670968 -106.40788027 118.54670968 -102 127 C-99.8992559 128.18224932 -99.8992559 128.18224932 -97.5625 128.875 C-92.4653009 130.91884444 -91.18532367 133.01746204 -89 138 C-88.73574219 138.84304687 -88.47148437 139.68609375 -88.19921875 140.5546875 C-86.68350103 143.64536923 -85.34817643 144.27454378 -82.25 145.6875 C-81.40953125 146.08324219 -80.5690625 146.47898437 -79.703125 146.88671875 C-69.23661368 151.19734841 -57.88646218 151.82772966 -47.125 148 C-36.47631693 143.24802518 -28.93852327 137.03933732 -23 127 C-22.401875 126.01 -21.80375 125.02 -21.1875 124 C-16.50167421 112.16212431 -16.7012365 98.92378335 -21 87 C-23.33254259 82.73559699 -25.85079443 78.71084732 -29 75 C-29.66 75 -30.32 75 -31 75 C-31.495 73.515 -31.495 73.515 -32 72 C-33.65 71.67 -35.3 71.34 -37 71 C-37.25652344 71.52207031 -37.51304687 72.04414062 -37.77734375 72.58203125 C-41.34705965 79.44502041 -45.97620512 85.14437852 -51 91 C-50.36578125 91.76570313 -49.7315625 92.53140625 -49.078125 93.3203125 C-45.30672594 98.18343233 -44.37106468 102.9202919 -45 109 C-45.91562876 111.19352803 -46.95481275 113.2326378 -48.125 115.30078125 C-49.15260325 116.97780435 -49.15260325 116.97780435 -49 119 C-49.7425 119.28875 -50.485 119.5775 -51.25 119.875 C-53.90142464 120.89886726 -53.90142464 120.89886726 -55.90625 122.046875 C-60.17278393 123.98910313 -64.77250083 123.61853228 -69.22265625 122.3828125 C-74.0257443 120.35384446 -76.32700903 117.87449153 -78.3125 113.0703125 C-80.58756136 106.21927546 -79.91450075 101.44576306 -77 95 C-74.85224247 91.39483558 -73.68010584 90.26157917 -69.75 88.75 C-65.83087801 87.9661756 -61.96662216 87.47731138 -58 87 C-57.18293833 83.9595402 -56.3721798 80.91743317 -55.5625 77.875 C-55.33240234 77.0190625 -55.10230469 76.163125 -54.86523438 75.28125 C-53.69469613 70.87052617 -52.64543654 66.52547458 -52 62 C-67.75714912 56.74761696 -85.81567195 63.55019602 -96.32421875 75.68359375 Z " fill="#1B1B1B" transform="translate(362,49)"/>
<path d="M0 0 C2.2406772 0.59421703 4.48934395 1.0854026 6.75732422 1.56420898 C10.44415146 2.36415468 13.85489149 3.46321405 17.36279297 4.87280273 C18.46880859 5.31237305 19.57482422 5.75194336 20.71435547 6.20483398 C21.83583984 6.65213867 22.95732422 7.09944336 24.11279297 7.56030273 C26.32049732 8.39530098 28.5288226 9.2286595 30.73779297 10.06030273 C35.79827 12.00147486 40.71566034 14.15712108 45.62841797 16.44311523 C47.79123882 17.41570449 49.94283326 18.26554708 52.17529297 19.06030273 C60.33167018 22.01866086 67.96838554 26.39797873 75.34326172 30.93139648 C79.62465375 33.55196235 83.87130903 35.94548968 88.42529297 38.06030273 C97.44870849 42.4602472 105.59910368 48.38819839 113.87231445 54.03686523 C115.65866079 55.25151067 117.45953609 56.44478087 119.26513672 57.63061523 C122.86945931 60.07305057 126.33082064 62.68128232 129.80029297 65.31030273 C134.49831797 68.85561644 139.20876466 72.37431091 143.98779297 75.81030273 C155.19197178 83.93715778 155.19197178 83.93715778 159.11279297 87.56030273 C159.11279297 88.22030273 159.11279297 88.88030273 159.11279297 89.56030273 C159.77279297 89.56030273 160.43279297 89.56030273 161.11279297 89.56030273 C161.11279297 90.22030273 161.11279297 90.88030273 161.11279297 91.56030273 C161.80759766 91.78717773 162.50240234 92.01405273 163.21826172 92.24780273 C166.74856925 93.84858996 169.49858881 96.07100394 172.42529297 98.56030273 C172.97507812 99.01147461 173.52486328 99.46264648 174.09130859 99.92749023 C175.47469267 101.08918916 176.79929888 102.32012969 178.11279297 103.56030273 C178.11279297 104.22030273 178.11279297 104.88030273 178.11279297 105.56030273 C178.77279297 105.56030273 179.43279297 105.56030273 180.11279297 105.56030273 C181.27493828 106.68826731 182.43038139 107.82398885 183.55029297 108.99389648 C185.99148162 111.44118811 188.62587432 113.65910032 191.24560547 115.91186523 C194.65672062 118.92335183 194.65672062 118.92335183 196.11279297 120.56030273 C196.11279297 121.22030273 196.11279297 121.88030273 196.11279297 122.56030273 C196.94810547 122.90061523 196.94810547 122.90061523 197.80029297 123.24780273 C200.8668094 124.98825801 202.87744467 126.82821037 205.11279297 129.56030273 C205.66888605 132.58597454 205.64843054 134.62646938 204.09472656 137.33520508 C202.61431573 139.34059927 201.05071164 141.23300042 199.42529297 143.12280273 C198.84457031 143.81736572 198.26384766 144.51192871 197.66552734 145.22753906 C191.86310974 152.0628682 185.56453608 158.34524042 179.11279297 164.56030273 C178.22591797 165.48456055 177.33904297 166.40881836 176.42529297 167.36108398 C174.11279297 169.56030273 174.11279297 169.56030273 171.11279297 170.56030273 C171.11279297 171.22030273 171.11279297 171.88030273 171.11279297 172.56030273 C169.39327323 174.09882039 167.61091799 175.56762032 165.80029297 176.99780273 C162.04427293 179.92121767 162.04427293 179.92121767 158.56982422 183.15795898 C156.63059583 185.02440132 154.4239196 186.18161912 152.11279297 187.56030273 C149.96571409 189.16381734 147.84543432 190.78211769 145.73779297 192.43530273 C144.57942231 193.33176119 143.42057313 194.22760167 142.26123047 195.12280273 C140.51481099 196.47486943 138.76919116 197.82797755 137.02685547 199.18530273 C133.27673436 202.00229511 129.46167844 203.85602281 125.12841797 205.56811523 C122.9561925 206.63738901 121.78990601 207.83564267 120.11279297 209.56030273 C116.87405473 211.71744742 113.48725606 213.62398129 110.11279297 215.56030273 C109.22849609 216.07077148 108.34419922 216.58124023 107.43310547 217.10717773 C101.85535407 220.24365243 96.22202216 222.82304781 90.28857422 225.20874023 C86.7771128 226.70316293 83.38377806 228.38716883 79.98779297 230.12280273 C71.39237958 234.4878971 62.66031137 237.77295583 53.50854492 240.77124023 C50.26048783 241.83560801 47.04395285 242.93509381 43.86279297 244.18530273 C39.95622407 245.61771133 36.04947216 246.69680559 32.01904297 247.71655273 C29.04945687 248.57869063 26.20123246 249.66131574 23.31347656 250.76196289 C8.27557315 256.21724846 -7.38771361 258.82037836 -23.14892578 261.13549805 C-26.71441161 261.68863155 -30.22793083 262.39647902 -33.76220703 263.12280273 C-45.34955516 265.38072282 -57.15280482 266.35878855 -68.88720703 267.56030273 C-69.38220703 266.07530273 -69.38220703 266.07530273 -69.88720703 264.56030273 C-61.35798126 260.81752012 -52.67071994 257.61390061 -43.89453125 254.50366211 C-38.84017805 252.69718381 -33.91426929 250.75036295 -29.02905273 248.52685547 C-25.58058039 246.97066009 -22.07734052 245.55178873 -18.57470703 244.12280273 C-17.07858879 243.50827902 -15.58249513 242.89369547 -14.08642578 242.27905273 C-11.63293247 241.27327969 -9.17746387 240.27325495 -6.71923828 239.27905273 C6.03130582 234.07331335 18.38966948 228.09546212 30.49243164 221.5300293 C33.98104893 219.64447337 37.42628819 218.03229934 41.11279297 216.56030273 C42.76562754 215.37026185 44.41686333 214.17782918 46.05419922 212.96655273 C48.35205315 211.39686124 50.71517242 210.11080699 53.17529297 208.81030273 C60.08449394 205.12286123 66.57265488 200.85612457 73.11279297 196.56030273 C74.02029297 195.97635742 74.92779297 195.39241211 75.86279297 194.79077148 C79.68075671 192.31035096 82.99705806 189.91570956 86.11279297 186.56030273 C89.11279297 184.56030273 89.11279297 184.56030273 92.11279297 184.56030273 C92.11279297 183.90030273 92.11279297 183.24030273 92.11279297 182.56030273 C93.58423565 181.27242031 95.11736447 180.05459947 96.67529297 178.87280273 C100.59381553 175.82321809 104.1287883 172.66188892 107.58154297 169.10327148 C109.62107248 167.04813333 111.75758978 165.24259073 114.11279297 163.56030273 C114.77279297 163.56030273 115.43279297 163.56030273 116.11279297 163.56030273 C116.77279297 162.24030273 117.43279297 160.92030273 118.11279297 159.56030273 C97.1102898 139.14120243 70.56033011 133.18653947 42.11279297 133.56030273 C41.78279297 132.57030273 41.45279297 131.58030273 41.11279297 130.56030273 C41.95197266 130.45073242 42.79115234 130.34116211 43.65576172 130.22827148 C47.0116823 129.78585109 50.36635115 129.33521124 53.72070312 128.88110352 C55.3501398 128.66258139 56.9800477 128.44755114 58.61035156 128.2355957 C91.01760328 124.23902138 91.01760328 124.23902138 119.11279297 108.56030273 C119.34761956 106.42444687 119.34761956 106.42444687 117.53857422 104.97436523 C116.4925 104.0887793 116.4925 104.0887793 115.42529297 103.18530273 C114.69439453 102.56397461 113.96349609 101.94264648 113.21044922 101.30249023 C110.13605023 98.74907878 107.07116504 96.23375338 103.80029297 93.93530273 C103.24341797 93.48155273 102.68654297 93.02780273 102.11279297 92.56030273 C102.11279297 91.90030273 102.11279297 91.24030273 102.11279297 90.56030273 C101.57654297 90.33342773 101.04029297 90.10655273 100.48779297 89.87280273 C97.28819135 88.10460184 94.82242074 86.02360071 92.11279297 83.56030273 C92.11279297 82.90030273 92.11279297 82.24030273 92.11279297 81.56030273 C91.41154297 81.33342773 90.71029297 81.10655273 89.98779297 80.87280273 C86.41870709 79.24343744 84.07613447 77.12853204 81.11279297 74.56030273 C80.45279297 74.23030273 79.79279297 73.90030273 79.11279297 73.56030273 C79.11279297 72.90030273 79.11279297 72.24030273 79.11279297 71.56030273 C78.55591797 71.29991211 77.99904297 71.03952148 77.42529297 70.77124023 C74.83707915 69.41592557 72.50819427 67.85770181 70.11279297 66.18530273 C69.26716797 65.60006836 68.42154297 65.01483398 67.55029297 64.41186523 C65.11279297 62.56030273 65.11279297 62.56030273 63.11279297 60.52124023 C60.92953406 58.3806231 58.74427012 57.11423536 56.11279297 55.56030273 C53.57529153 53.71371243 51.10010553 51.78623499 48.61279297 49.87280273 C42.67878218 45.3650414 36.69477641 41.27743802 30.28466797 37.47045898 C27.03156252 35.5113844 23.89429242 33.42092856 20.73779297 31.31030273 C11.01254462 24.90398835 0.48346188 19.8233703 -9.88720703 14.56030273 C-9.88720703 13.90030273 -9.88720703 13.24030273 -9.88720703 12.56030273 C-10.53560547 12.47522461 -11.18400391 12.39014648 -11.85205078 12.30249023 C-15.98418821 11.29205766 -19.60934374 9.48752032 -23.44970703 7.68530273 C-29.58407382 4.88052741 -35.44142596 2.60394519 -42.06689453 1.20483398 C-45.08738315 0.51455611 -47.90278896 -0.47466853 -50.82470703 -1.50219727 C-59.89806822 -4.39724283 -69.43811651 -4.7803649 -78.88720703 -5.43969727 C-78.88720703 -6.42969727 -78.88720703 -7.41969727 -78.88720703 -8.43969727 C-52.06141686 -11.19432027 -25.81783646 -7.30504675 0 0 Z " fill="#181818" transform="translate(388.88720703125,25.439697265625)"/>
<path d="M0 0 C0.33 0.99 0.66 1.98 1 3 C-0.28390625 3.07476563 -1.5678125 3.14953125 -2.890625 3.2265625 C-15.18497037 4.08891247 -26.16418234 6.40619272 -37.83300781 10.31689453 C-39.90924673 10.97139166 -41.97806019 11.49898367 -44.09765625 11.9921875 C-48.13734619 12.96719878 -51.83527633 14.43523245 -55.625 16.125 C-56.31303711 16.42849365 -57.00107422 16.7319873 -57.70996094 17.04467773 C-62.98928112 19.42667693 -68.00341427 22.14673631 -72.98852539 25.08837891 C-76.61277203 27.22661718 -80.27481372 29.16820939 -84.0625 31 C-89.76613443 33.77889053 -95.04674769 37.04432046 -100.3828125 40.4609375 C-103 42 -103 42 -105 42 C-105 42.66 -105 43.32 -105 44 C-106.82751451 45.20060015 -108.71487841 46.31072301 -110.625 47.375 C-118.31670783 51.68615476 -125.11976244 56.57475928 -131.87695312 62.19726562 C-135.1899132 64.87158279 -137.6048494 66.64273823 -142 67 C-142.33 67.99 -142.66 68.98 -143 70 C-146.44444444 73 -146.44444444 73 -149 73 C-149 73.66 -149 74.32 -149 75 C-150.32 75.33 -151.64 75.66 -153 76 C-153 76.66 -153 77.32 -153 78 C-154.3984375 79.2265625 -154.3984375 79.2265625 -156.375 80.625 C-162.62299552 85.15590455 -168.65116799 89.9642983 -174.5 95 C-177 97 -177 97 -179 97 C-179.19851562 97.54785156 -179.39703125 98.09570312 -179.6015625 98.66015625 C-181.57409112 101.96056028 -184.41310539 104.06602711 -187.375 106.4375 C-191.4162466 109.68944062 -194.89496483 112.7860237 -198 117 C-188.16904469 124.45514111 -176.21088397 130.02050123 -164 132 C-162.51904192 132.32528186 -161.0398874 132.65886715 -159.5625 133 C-158.04203736 133.33502014 -156.52115768 133.66814998 -155 134 C-154.2572583 134.1642749 -153.5145166 134.3285498 -152.74926758 134.49780273 C-146.55741209 135.80807511 -140.42823938 136.54325034 -134.125 137.0625 C-132.29402863 137.21721197 -130.46328575 137.37465823 -128.6328125 137.53515625 C-127.83762207 137.600979 -127.04243164 137.66680176 -126.22314453 137.73461914 C-124.07838378 137.99064318 -122.08032418 138.42721305 -120 139 C-120.33 139.99 -120.66 140.98 -121 142 C-121.825 141.97679687 -122.65 141.95359375 -123.5 141.9296875 C-136.61605861 141.72474908 -149.47815146 142.84573893 -162 147 C-163.13695312 147.36158203 -163.13695312 147.36158203 -164.296875 147.73046875 C-172.46942751 150.65119641 -179.76838992 155.41732037 -187.14404297 159.91845703 C-189.05848717 161.03408289 -191.00845385 162.02984432 -193 163 C-193 163.66 -193 164.32 -193 165 C-193.99 165.66 -194.98 166.32 -196 167 C-194.45237981 171.08347979 -191.77452018 172.99849733 -188.375 175.625 C-186.54794084 177.03873986 -184.7461425 178.48745515 -183 180 C-183 180.66 -183 181.32 -183 182 C-181.02 182.99 -181.02 182.99 -179 184 C-179 184.66 -179 185.32 -179 186 C-178.43796875 186.268125 -177.8759375 186.53625 -177.296875 186.8125 C-174.84449354 188.0803979 -172.56072317 189.48972342 -170.25 191 C-169.45078125 191.515625 -168.6515625 192.03125 -167.828125 192.5625 C-167.22484375 193.036875 -166.6215625 193.51125 -166 194 C-166 194.66 -166 195.32 -166 196 C-164.35 196.66 -162.7 197.32 -161 198 C-161 198.66 -161 199.32 -161 200 C-160.44957031 200.26039063 -159.89914063 200.52078125 -159.33203125 200.7890625 C-156.6721772 202.17022624 -154.20284071 203.74554307 -151.6875 205.375 C-147.51656537 208.05079801 -143.31554375 210.56760262 -139 213 C-133.81105348 216.04704977 -128.71117336 219.18744683 -123.6875 222.5 C-118.81114106 225.62114291 -113.80629255 228.04952826 -108.5234375 230.40234375 C-104.61137198 232.17621825 -100.77374429 234.06913286 -96.9375 236 C-96.26106445 236.33918457 -95.58462891 236.67836914 -94.88769531 237.02783203 C-91.79415589 238.58207767 -88.7091593 240.15014398 -85.6328125 241.73828125 C-80.62103575 244.30793269 -75.78566701 246.54523395 -70.39648438 248.18261719 C-67.81965377 249.06151173 -65.41329919 250.13206641 -62.9453125 251.28125 C-49.17073726 257.61184435 -35.19606033 263.6063487 -20.70874023 268.11108398 C-16.58138087 269.40277713 -12.81517534 270.96167424 -9 273 C-9.33 273.99 -9.66 274.98 -10 276 C-27.2240302 274.35287647 -44.1055909 271.89433884 -61.08105469 268.55810547 C-64.29754278 267.9431095 -67.52099111 267.4064023 -70.75390625 266.88671875 C-78.3213562 265.65756347 -85.70396396 263.91361884 -93.125 262 C-94.09791992 261.75064697 -95.07083984 261.50129395 -96.07324219 261.24438477 C-100.07276398 260.18472697 -103.95755253 259.11404138 -107.74609375 257.4375 C-111.10599376 255.95317443 -114.39405946 254.95660937 -117.9375 254 C-123.0880487 252.563268 -128.03986527 250.9803523 -133 249 C-135.02054735 248.22841736 -137.04141417 247.45767106 -139.0625 246.6875 C-141.37589991 245.79399315 -143.68834067 244.89800042 -146 244 C-146.97622314 243.62174072 -146.97622314 243.62174072 -147.97216797 243.23583984 C-149.9835277 242.45410268 -151.99205746 241.66546821 -154 240.875 C-155.216875 240.39804687 -156.43375 239.92109375 -157.6875 239.4296875 C-160.65661061 238.14820816 -163.2430929 236.67207536 -166 235 C-167.80011983 234.24078404 -169.61378675 233.51314989 -171.4375 232.8125 C-184.30247256 227.53175 -196.0897425 219.62346318 -207.87792969 212.30712891 C-209.34978212 211.40051386 -210.83029888 210.50787384 -212.31738281 209.62646484 C-213.05053711 209.18641113 -213.78369141 208.74635742 -214.5390625 208.29296875 C-215.20373535 207.90004639 -215.8684082 207.50712402 -216.55322266 207.10229492 C-217.03065918 206.7385376 -217.5080957 206.37478027 -218 206 C-218 205.34 -218 204.68 -218 204 C-218.72058594 203.7525 -219.44117188 203.505 -220.18359375 203.25 C-223.29069883 201.87097971 -225.46516099 200.18385228 -228.0625 198 C-230.94356647 195.58505369 -233.55427239 193.52789769 -237 192 C-237 191.34 -237 190.68 -237 190 C-237.5775 189.731875 -238.155 189.46375 -238.75 189.1875 C-241.05550043 187.97070811 -243.02056192 186.69666121 -245 185 C-245 184.34 -245 183.68 -245 183 C-245.598125 182.71125 -246.19625 182.4225 -246.8125 182.125 C-249 181 -249 181 -252 179 C-252 178.34 -252 177.68 -252 177 C-252.57975586 176.74476563 -253.15951172 176.48953125 -253.75683594 176.2265625 C-256.23015312 174.87415223 -257.89602109 173.36267476 -259.890625 171.375 C-260.59960938 170.66859375 -261.30859375 169.9621875 -262.0390625 169.234375 C-262.76867187 168.49703125 -263.49828125 167.7596875 -264.25 167 C-264.99507813 166.26265625 -265.74015625 165.5253125 -266.5078125 164.765625 C-267.21164062 164.05921875 -267.91546875 163.3528125 -268.640625 162.625 C-269.28547852 161.97789062 -269.93033203 161.33078125 -270.59472656 160.6640625 C-272 159 -272 159 -272 157 C-272.66 157 -273.32 157 -274 157 C-274.99 154.525 -274.99 154.525 -276 152 C-276.66 152 -277.32 152 -278 152 C-281.81610319 147.7349435 -282.81717338 144.10289862 -282.578125 138.3828125 C-281.71614914 134.83007417 -279.88039975 133.54688665 -276.98046875 131.48046875 C-274.865674 129.89958668 -273.41069059 128.23421068 -271.75 126.1875 C-268.15403045 121.94067623 -264.0185425 118.60049104 -259.6484375 115.17578125 C-256.91948608 112.93385508 -254.49332239 110.49754121 -252 108 C-249.6875 106.6875 -249.6875 106.6875 -248 106 C-248 105.34 -248 104.68 -248 104 C-246.20703125 102.66796875 -246.20703125 102.66796875 -243.8125 101.1875 C-240.97193119 99.36810899 -238.44384361 97.64190678 -236.125 95.1875 C-234 93 -234 93 -231 92 C-231 91.34 -231 90.68 -231 90 C-229.015625 88.37109375 -229.015625 88.37109375 -226.25 86.4375 C-222.0006678 83.42343879 -217.79121805 80.37724804 -213.625 77.25 C-212.19027344 76.17492187 -212.19027344 76.17492187 -210.7265625 75.078125 C-208.89123045 73.67927593 -207.09384082 72.22936609 -205.3359375 70.734375 C-203 69 -203 69 -200 69 C-200 68.34 -200 67.68 -200 67 C-197.98828125 65.59765625 -197.98828125 65.59765625 -195.3125 64.0625 C-194.44238281 63.55847656 -193.57226562 63.05445312 -192.67578125 62.53515625 C-191.79277344 62.02855469 -190.90976563 61.52195313 -190 61 C-189.10667969 60.44183594 -188.21335937 59.88367188 -187.29296875 59.30859375 C-185 58 -185 58 -183 58 C-183 57.34 -183 56.68 -183 56 C-180.73461362 54.48974241 -178.48124047 53.10504171 -176.125 51.75 C-174.73558884 50.93634858 -173.34626598 50.12254636 -171.95703125 49.30859375 C-170.93536865 48.71473877 -170.93536865 48.71473877 -169.89306641 48.10888672 C-167.51019899 46.71309309 -165.16263027 45.26258038 -162.8125 43.8125 C-158.43860938 41.19103847 -153.9455044 38.89090098 -149.36328125 36.65625 C-146.84152809 35.41441104 -144.34609405 34.14529153 -141.85546875 32.84375 C-141.14406738 32.47620605 -140.43266602 32.10866211 -139.69970703 31.72998047 C-138.30219617 31.0074383 -136.90844016 30.27757466 -135.51904297 29.53955078 C-131.87079339 27.67026761 -129.12385256 26.53914557 -125 27 C-125 26.34 -125 25.68 -125 25 C-104.25668449 16.43315508 -104.25668449 16.43315508 -98 14 C-97.11054688 13.65066406 -96.22109375 13.30132812 -95.3046875 12.94140625 C-94.37914062 12.58949219 -93.45359375 12.23757812 -92.5 11.875 C-91.6853125 11.56304687 -90.870625 11.25109375 -90.03125 10.9296875 C-86.6570134 9.89480566 -83.29584337 9.23120837 -79.83251953 8.56689453 C-76.80253145 7.96047906 -73.80036084 7.27237957 -70.79296875 6.5625 C-69.71080078 6.30726562 -68.62863281 6.05203125 -67.51367188 5.7890625 C-65.30731678 5.26565236 -63.1015781 4.73963653 -60.89648438 4.2109375 C-50.13028481 1.68072087 -39.37223274 -0.19117089 -28.3125 -0.6875 C-27.06098145 -0.74828735 -27.06098145 -0.74828735 -25.78417969 -0.81030273 C-17.15280106 -1.15572043 -8.60403489 -0.67543752 0 0 Z " fill="#181818" transform="translate(282,17)"/>
<path d="M0 0 C1.42913734 -0.01149918 2.85823243 -0.03191873 4.28710938 -0.06152344 C15.99492067 -0.30318606 26.33724676 0.9525149 35.75195312 8.59594727 C40.97521984 13.96739176 43.04000195 21.71293258 43.77929688 28.98266602 C43.60264197 35.43057018 41.59596928 42.72972002 37.38867188 47.65454102 C35.40429688 49.29516602 35.40429688 49.29516602 33.40429688 49.29516602 C33.07429688 50.28516602 32.74429688 51.27516602 32.40429688 52.29516602 C31.41429687 52.79016602 31.41429687 52.79016602 30.40429688 53.29516602 C30.90895616 57.82895988 32.5630727 60.07904946 35.52929688 63.48266602 C46.41834429 76.33730825 46.41834429 76.33730825 48.40429688 82.29516602 C48.73429687 55.56516602 49.06429687 28.83516602 49.40429688 1.29516602 C62.31554687 1.08891602 75.22679687 0.88266602 88.52929688 0.67016602 C92.59902832 0.57912598 96.66875977 0.48808594 100.86181641 0.39428711 C105.84936523 0.34912109 105.84936523 0.34912109 108.18771362 0.34072876 C109.81356198 0.32541746 111.43929979 0.29033347 113.06442261 0.2394104 C126.79108124 -0.16903795 126.79108124 -0.16903795 130.7611084 3.4342804 C132.34157601 6.0211084 133.40248744 8.44106411 134.40429688 11.29516602 C135.14056789 12.76185776 135.89250366 14.22095682 136.66992188 15.66625977 C137.3356451 17.01963896 137.99718969 18.37508257 138.65429688 19.73266602 C141.29052623 25.14497762 141.29052623 25.14497762 144.40429688 30.29516602 C150.4412203 21.23978088 154.70867243 11.11328985 159.40429688 1.29516602 C186.46429688 1.29516602 213.52429688 1.29516602 241.40429688 1.29516602 C241.40429688 7.89516602 241.40429688 14.49516602 241.40429688 21.29516602 C239.48120797 23.21825492 235.93359203 22.5483844 233.30664062 22.61157227 C232.59778214 22.63235336 231.88892365 22.65313446 231.15858459 22.67454529 C228.88642383 22.74011199 226.61414423 22.79895832 224.34179688 22.85766602 C222.80467504 22.9008445 221.26756537 22.94445857 219.73046875 22.98852539 C215.95520097 23.0958005 212.17981328 23.19704739 208.40429688 23.29516602 C208.07429687 26.59516602 207.74429688 29.89516602 207.40429688 33.29516602 C208.30784912 33.2899292 209.21140137 33.28469238 210.14233398 33.27929688 C213.48381177 33.26228916 216.82524379 33.24973268 220.16674805 33.24023438 C221.6149976 33.23519501 223.06324204 33.22836348 224.51147461 33.21972656 C226.58904276 33.20764355 228.66654385 33.2019339 230.74414062 33.19750977 C231.99573975 33.19227295 233.24733887 33.18703613 234.53686523 33.18164062 C237.40429688 33.29516602 237.40429688 33.29516602 238.40429688 34.29516602 C238.49081298 35.71086725 238.51134591 37.13076102 238.50195312 38.54907227 C238.49945557 39.31807861 238.49695801 40.08708496 238.49438477 40.87939453 C238.48072876 42.35363892 238.48072876 42.35363892 238.46679688 43.85766602 C238.44617188 46.97204102 238.42554688 50.08641602 238.40429688 53.29516602 C228.17429687 53.29516602 217.94429687 53.29516602 207.40429688 53.29516602 C207.40429688 57.25516602 207.40429688 61.21516602 207.40429688 65.29516602 C218.95429688 65.29516602 230.50429688 65.29516602 242.40429688 65.29516602 C242.40429688 71.89516602 242.40429688 78.49516602 242.40429688 85.29516602 C234.78723922 85.46275344 227.17007832 85.62331657 219.55273438 85.77734375 C216.96089686 85.83074521 214.36909831 85.88607311 211.77734375 85.94335938 C208.0541219 86.02532157 204.33081539 86.10037702 200.60742188 86.17407227 C199.44688293 86.20110733 198.28634399 86.2281424 197.09063721 86.2559967 C196.00981873 86.27609299 194.92900024 86.29618927 193.81542969 86.31689453 C192.86500793 86.33688004 191.91458618 86.35686554 190.93536377 86.37745667 C188.40429688 86.29516602 188.40429688 86.29516602 184.40429688 85.29516602 C184.40429688 59.55516602 184.40429688 33.81516602 184.40429688 7.29516602 C183.74429688 7.29516602 183.08429688 7.29516602 182.40429688 7.29516602 C182.159375 7.95516602 181.91445313 8.61516602 181.66210938 9.29516602 C180.07475665 13.08115017 178.20351422 16.67114882 176.27929688 20.29516602 C175.88186279 21.04556152 175.48442871 21.79595703 175.07495117 22.5690918 C172.06914473 28.18430836 168.85511891 33.60738775 165.42382812 38.97485352 C164.42416016 40.6184082 164.42416016 40.6184082 163.40429688 42.29516602 C162.89543945 43.03516846 162.38658203 43.7751709 161.86230469 44.53759766 C156.64030867 52.80006281 156.50822378 60.54929636 156.52929688 69.98266602 C156.51112874 71.47423732 156.4903133 72.96577882 156.46679688 74.45727539 C156.41549625 78.07007454 156.39982705 81.68195423 156.40429688 85.29516602 C145.76860188 86.43591121 145.76860188 86.43591121 141.02929688 86.42016602 C140.2378125 86.42274414 139.44632813 86.42532227 138.63085938 86.42797852 C136.43119864 86.29677068 134.52817624 85.85636951 132.40429688 85.29516602 C132.4054248 84.37292236 132.40655273 83.45067871 132.40771484 82.50048828 C132.39771755 79.03859773 132.36091894 75.57904932 132.30664062 72.11767578 C132.2886075 70.62720617 132.28088887 69.13657116 132.28417969 67.64599609 C132.29685351 58.19449288 131.55264439 51.83855777 125.40429688 44.29516602 C124.02078279 41.85729292 122.84725409 39.33081715 121.65429688 36.79516602 C118.67940092 30.6565271 115.43857946 24.7295395 111.96679688 18.85766602 C111.3108252 17.7477832 111.3108252 17.7477832 110.64160156 16.61547852 C108.77655648 13.26757557 108.77655648 13.26757557 106.40429688 10.29516602 C106.34371094 11.07762695 106.283125 11.86008789 106.22070312 12.66625977 C106.09501953 14.18413086 106.09501953 14.18413086 105.96679688 15.73266602 C105.84498047 17.24666992 105.84498047 17.24666992 105.72070312 18.79125977 C105.40429688 21.29516602 105.40429688 21.29516602 104.40429688 22.29516602 C102.03091048 22.45488578 99.68311416 22.55440931 97.30664062 22.61157227 C96.59778214 22.63235336 95.88892365 22.65313446 95.15858459 22.67454529 C92.88642383 22.74011199 90.61414423 22.79895832 88.34179688 22.85766602 C86.80467504 22.9008445 85.26756537 22.94445857 83.73046875 22.98852539 C79.95520097 23.0958005 76.17981328 23.19704739 72.40429688 23.29516602 C72.07429688 26.59516602 71.74429688 29.89516602 71.40429688 33.29516602 C72.33814209 33.2899292 73.2719873 33.28469238 74.23413086 33.27929688 C77.68742484 33.26228982 81.14067455 33.249733 84.59399414 33.24023438 C86.09074606 33.23519481 87.58749303 33.22836314 89.08422852 33.21972656 C91.23129495 33.20764443 93.3782965 33.2019341 95.52539062 33.19750977 C97.4656311 33.18965454 97.4656311 33.18965454 99.44506836 33.18164062 C102.40429688 33.29516602 102.40429688 33.29516602 103.40429688 34.29516602 C103.50266897 35.62560227 103.5350828 36.96109946 103.53710938 38.29516602 C103.53839844 39.09954102 103.5396875 39.90391602 103.54101562 40.73266602 C103.53714844 41.57829102 103.53328125 42.42391602 103.52929688 43.29516602 C103.53316406 44.14079102 103.53703125 44.98641602 103.54101562 45.85766602 C103.53972656 46.66204102 103.5384375 47.46641602 103.53710938 48.29516602 C103.53598145 49.03766602 103.53485352 49.78016602 103.53369141 50.54516602 C103.40429688 52.29516602 103.40429688 52.29516602 102.40429688 53.29516602 C100.1127827 53.38307577 97.81857163 53.4021064 95.52539062 53.39282227 C94.49539696 53.39069984 94.49539696 53.39069984 93.44459534 53.38853455 C91.24361886 53.38292081 89.04274279 53.37036608 86.84179688 53.35766602 C85.35286605 53.35265278 83.86393363 53.34808957 82.375 53.34399414 C78.71806613 53.33294694 75.06119129 53.31567315 71.40429688 53.29516602 C71.40429688 57.25516602 71.40429688 61.21516602 71.40429688 65.29516602 C82.95429688 65.29516602 94.50429687 65.29516602 106.40429688 65.29516602 C106.40429688 71.89516602 106.40429688 78.49516602 106.40429688 85.29516602 C89.48166571 85.70177386 72.55927308 86.02773901 55.63317871 86.25042725 C52.75496892 86.29030717 49.87705309 86.33844217 46.99902344 86.3894043 C42.79920611 86.4582297 38.60455625 86.45038959 34.40429688 86.42016602 C32.65028564 86.45605835 32.65028564 86.45605835 30.86083984 86.49267578 C23.49603101 86.34407868 23.49603101 86.34407868 20.53076172 83.49511719 C18.95330018 81.16642396 17.67849656 78.80086034 16.40429688 76.29516602 C15.50077033 74.91790886 14.57701772 73.55364785 13.63085938 72.20532227 C13.19902344 71.5665918 12.7671875 70.92786133 12.32226562 70.26977539 C11.44024117 68.9653918 10.55466812 67.66340247 9.66601562 66.36352539 C6.40429688 61.52051746 6.40429688 61.52051746 6.40429688 59.29516602 C5.08429688 59.29516602 3.76429688 59.29516602 2.40429688 59.29516602 C2.40429688 67.87516602 2.40429688 76.45516602 2.40429688 85.29516602 C-2.42195313 85.60454102 -2.42195313 85.60454102 -7.34570312 85.92016602 C-8.35342773 85.99058105 -9.36115234 86.06099609 -10.39941406 86.13354492 C-11.2015332 86.17914551 -12.00365234 86.22474609 -12.83007812 86.27172852 C-14.05549316 86.35028076 -14.05549316 86.35028076 -15.30566406 86.43041992 C-17.87807226 86.27848878 -19.34700389 85.49594317 -21.59570312 84.29516602 C-21.6188264 73.62096903 -21.63661813 62.94677796 -21.6475153 52.27256107 C-21.65274416 47.3166268 -21.65984186 42.3607096 -21.67114258 37.40478516 C-21.68197135 32.62617766 -21.68797994 27.84758663 -21.69058037 23.06896782 C-21.69243464 21.24162982 -21.69605528 19.41429277 -21.70143318 17.58696175 C-21.70864348 15.03663273 -21.70969407 12.48637265 -21.70922852 9.93603516 C-21.71282379 9.17286987 -21.71641907 8.40970459 -21.72012329 7.62341309 C-21.70975529 2.40921818 -21.70975529 2.40921818 -20.59570312 1.29516602 C-13.74830091 0.08809881 -6.92863283 0.03868539 0 0 Z M2.40429688 20.29516602 C2.40429688 27.22516602 2.40429688 34.15516602 2.40429688 41.29516602 C11.06580366 40.58121283 11.06580366 40.58121283 17.40429688 36.29516602 C19.74598451 32.78263456 19.90053365 31.43047246 19.40429688 27.29516602 C17.00037763 23.51757863 15.48745745 22.3367463 11.40429688 20.29516602 C8.43429688 20.29516602 5.46429688 20.29516602 2.40429688 20.29516602 Z " fill="#1A1A1A" transform="translate(147.595703125,326.704833984375)"/>
<path d="M0 0 C1.03415039 0.02642578 2.06830078 0.05285156 3.13378906 0.08007812 C4.08568115 0.10368408 5.03757324 0.12729004 6.01831055 0.15161133 C9.27465018 0.87140759 10.34945697 2.08167434 12.32519531 4.71679688 C12.66035156 5.62300781 12.99550781 6.52921875 13.34082031 7.46289062 C14.96168238 11.73560613 17.42823728 15.08158195 20.07519531 18.77929688 C21.03817992 20.16589825 21.99917103 21.55388655 22.95800781 22.94335938 C23.41079102 23.59594727 23.86357422 24.24853516 24.33007812 24.92089844 C28.40272631 30.79509452 32.2135894 36.66409458 35.59472656 42.96679688 C36.45399917 44.68602204 36.45399917 44.68602204 37.57519531 45.71679688 C37.90519531 30.86679687 38.23519531 16.01679688 38.57519531 0.71679688 C45.83519531 0.71679688 53.09519531 0.71679688 60.57519531 0.71679688 C62.32958694 2.47118851 61.69502494 4.77177143 61.69961548 7.10850525 C61.69422256 8.26727928 61.69422256 8.26727928 61.6887207 9.44946289 C61.68886673 10.25915527 61.68901276 11.06884766 61.68916321 11.90307617 C61.68846385 14.59231196 61.68067041 17.28147937 61.67285156 19.97070312 C61.67098746 21.83015403 61.66956352 23.68960543 61.66856384 25.54905701 C61.66473802 30.45308783 61.65490719 35.35708923 61.64385986 40.2611084 C61.63364712 45.2613078 61.62906652 50.26151193 61.62402344 55.26171875 C61.61328498 65.08009108 61.59620779 74.89844154 61.57519531 84.71679688 C56.77376233 85.71654841 52.46112081 85.83276006 47.57519531 85.65429688 C46.78113281 85.65236328 45.98707031 85.65042969 45.16894531 85.6484375 C39.4949904 85.4262076 39.4949904 85.4262076 36.89941406 83.42431641 C34.59636167 80.80256698 33.57519531 79.24633991 33.57519531 75.71679688 C32.91519531 75.71679688 32.25519531 75.71679688 31.57519531 75.71679688 C30.27832031 73.81054688 30.27832031 73.81054688 28.82519531 71.21679688 C25.39881502 65.3217715 21.43380699 60.08652676 17.23144531 54.72851562 C16.40838012 53.66222401 15.58546331 52.59581783 14.76269531 51.52929688 C13.993125 50.54574219 13.22355469 49.5621875 12.43066406 48.54882812 C10.62430108 45.79174778 9.93646049 43.95633871 9.57519531 40.71679688 C8.91519531 40.71679688 8.25519531 40.71679688 7.57519531 40.71679688 C7.57519531 55.23679687 7.57519531 69.75679688 7.57519531 84.71679688 C-2.6705674 85.85521495 -2.6705674 85.85521495 -7.29980469 85.84179688 C-8.20472656 85.844375 -9.10964844 85.84695313 -10.04199219 85.84960938 C-12.42480469 85.71679688 -12.42480469 85.71679688 -15.42480469 84.71679688 C-15.44792781 73.91221602 -15.46571962 63.10764102 -15.47661686 52.3030405 C-15.48184576 47.28657218 -15.48894352 42.27012072 -15.50024414 37.25366211 C-15.51107279 32.41669994 -15.51708147 27.57975404 -15.51968193 22.74278069 C-15.52153622 20.89311402 -15.52515691 19.0434483 -15.53053474 17.19378853 C-15.53774489 14.61232674 -15.53879564 12.03093305 -15.53833008 9.44946289 C-15.54192535 8.67694687 -15.54552063 7.90443085 -15.54922485 7.10850525 C-15.53060015 -2.37208199 -7.98489119 0.07226146 0 0 Z " fill="#1B1B1B" transform="translate(498.4248046875,327.283203125)"/>
<path d="M0 0 C5.53402877 3.73961617 9.92732783 7.7072446 14 13 C14.680625 13.825 15.36125 14.65 16.0625 15.5 C21.99787149 24.64938688 22.31927909 37.81057013 20.203125 48.16796875 C19.87462801 49.6142973 19.53611642 51.0583887 19.1875 52.5 C19.02241943 53.18296143 18.85733887 53.86592285 18.68725586 54.56958008 C17.70882868 58.2657072 16.69250846 61.22975507 14 64 C13.34 64 12.68 64 12 64 C11.76667969 64.73992187 11.53335938 65.47984375 11.29296875 66.2421875 C8.56522995 72.06026482 1.97691806 76.3488395 -3.8125 78.9375 C-10.15296947 81.05098982 -16.05961726 81.21448556 -22.6875 81.25 C-24.10192383 81.2809375 -24.10192383 81.2809375 -25.54492188 81.3125 C-34.76503315 81.36319477 -42.52955106 79.74360799 -49.9375 74 C-50.83339844 73.319375 -51.72929688 72.63875 -52.65234375 71.9375 C-60.72210065 65.27760079 -65.32326682 55.26999075 -67 45 C-67.94888093 30.21935475 -65.19297727 18.83967771 -56 7 C-52.9161307 4.07680288 -49.73153484 2.01097399 -46 0 C-45.15308594 -0.50402344 -44.30617188 -1.00804687 -43.43359375 -1.52734375 C-30.53811363 -8.14934705 -12.42346124 -7.19799425 0 0 Z M-39.375 23.9375 C-43.14832487 31.0487661 -44.39003546 37.82305714 -42.27734375 45.69140625 C-39.88287942 52.19620611 -36.81518809 56.12320794 -31 60 C-25.0199803 60.60361701 -17.50707561 61.29034995 -11.9375 58.625 C-6.51982228 53.78367097 -3.4348906 49.36957224 -2.48828125 42.03515625 C-2.15251323 34.92282871 -2.25426371 28.6435783 -7 23 C-9.30302869 20.6908334 -9.30302869 20.6908334 -12 19 C-12.86625 18.4225 -13.7325 17.845 -14.625 17.25 C-24.48227469 13.59915752 -32.83975056 15.85442832 -39.375 23.9375 Z " fill="#181818" transform="translate(102,332)"/>
<path d="M0 0 C10.03340368 6.80503213 15.72818996 14.80384956 18.70703125 26.58203125 C20.03210173 35.23321253 19.8843333 44.88918356 17.11328125 53.234375 C16.76330078 54.31912109 16.76330078 54.31912109 16.40625 55.42578125 C12.40147545 65.94060028 4.09994277 73.44279498 -5.88671875 78.234375 C-17.25605474 82.82583761 -31.65539806 82.24236379 -43.05078125 78.078125 C-53.88874528 73.13930595 -61.78236054 65.3372839 -66.07421875 54.171875 C-69.48034145 43.55897532 -70.1476046 29.39511872 -65.0078125 19.2578125 C-64.63785156 18.59007812 -64.26789063 17.92234375 -63.88671875 17.234375 C-63.60957031 16.54601562 -63.33242188 15.85765625 -63.046875 15.1484375 C-58.73740626 4.78188136 -48.80807911 -0.61617038 -38.88671875 -4.765625 C-26.31902678 -8.47754648 -11.01917215 -6.73973723 0 0 Z M-37.88671875 20.234375 C-38.67046875 20.8325 -39.45421875 21.430625 -40.26171875 22.046875 C-44.68159435 27.99670754 -44.51360252 36.13643292 -43.88671875 43.234375 C-42.79475029 49.56779204 -40.58429068 53.21044834 -35.5078125 57.140625 C-31.83344655 59.61971528 -28.44139596 59.48901644 -24.13671875 59.546875 C-23.43289063 59.57587891 -22.7290625 59.60488281 -22.00390625 59.63476562 C-16.83577679 59.69720585 -13.99808406 58.60654981 -9.88671875 55.234375 C-3.8339985 47.87295849 -4.45670909 39.15247153 -5.01953125 30.09765625 C-5.90899947 24.29330593 -9.32713363 21.4781114 -13.6953125 17.80078125 C-21.47104868 12.24272384 -31.01582044 14.63045084 -37.88671875 20.234375 Z " fill="#191919" transform="translate(459.88671875,332.765625)"/>
<path d="M0 0 C0.978479 0.04310303 1.95695801 0.08620605 2.96508789 0.13061523 C8.03492641 0.38491134 12.99013046 0.80393805 18 1.625 C18 2.615 18 3.605 18 4.625 C18.495 5.615 18.495 5.615 19 6.625 C19 8.29166667 19 9.95833333 19 11.625 C13.19120163 11.31381437 8.2257802 10.08790176 2.75 8.1875 C-6.93022759 4.88763684 -16.84961216 4.25717847 -27 3.625 C-27 2.635 -27 1.645 -27 0.625 C-17.94354042 -0.3049682 -9.0931944 -0.40544753 0 0 Z " fill="#242424" transform="translate(337,16.375)"/>
<path d="M0 0 C4.29494226 0.58799805 7.98371117 1.63118971 12 3.25 C16.91022113 5.1925673 21.83604809 7.04904961 26.8125 8.8125 C27.99457031 9.23144531 29.17664063 9.65039062 30.39453125 10.08203125 C31.25433594 10.38496094 32.11414063 10.68789063 33 11 C33 12.32 33 13.64 33 15 C28.7493738 14.54736183 24.49963756 14.08682059 20.25 13.625 C18.46916016 13.43550781 18.46916016 13.43550781 16.65234375 13.2421875 C9.049859 12.41131485 1.52815394 11.34814527 -6 10 C-6 9.67 -6 9.34 -6 9 C-4.02 9 -2.04 9 0 9 C0 8.195625 0 7.39125 0 6.5625 C0 4.375 0 2.1875 0 0 Z " fill="#1F1F1F" transform="translate(239,278)"/>
<path d="M0 0 C-0.99 0.33 -1.98 0.66 -3 1 C-3.76411467 4.73567172 -4.07174763 7.34811918 -3 11 C-7.05542538 11.59779805 -11.11217719 12.18547574 -15.17041016 12.76391602 C-16.55004121 12.9620011 -17.92928252 13.16282108 -19.30810547 13.36645508 C-21.29289168 13.65909299 -23.2792498 13.94100604 -25.265625 14.22265625 C-26.45961914 14.39547119 -27.65361328 14.56828613 -28.88378906 14.74633789 C-31.64554982 14.97114747 -33.41554905 14.89784497 -36 14 C-36 13.34 -36 12.68 -36 12 C-28.23141965 8.59100272 -20.33002089 5.56700286 -12.375 2.625 C-11.39063965 2.25503906 -10.4062793 1.88507813 -9.39208984 1.50390625 C-8.46605957 1.16488281 -7.5400293 0.82585937 -6.5859375 0.4765625 C-5.7511084 0.16799316 -4.9162793 -0.14057617 -4.05615234 -0.45849609 C-2 -1 -2 -1 0 0 Z " fill="#303030" transform="translate(355,278)"/>
<path d="M0 0 C0.33 1.65 0.66 3.3 1 5 C2.32 5 3.64 5 5 5 C5.33 5.66 5.66 6.32 6 7 C6.83144531 6.83242188 7.66289062 6.66484375 8.51953125 6.4921875 C9.60621094 6.28851563 10.69289063 6.08484375 11.8125 5.875 C12.89144531 5.66617187 13.97039062 5.45734375 15.08203125 5.2421875 C18 5 18 5 21 7 C18.18919485 9.81080515 11.46323398 9.65565392 7.64428711 10.3215332 C5.57255735 10.68573197 3.50423792 11.06623633 1.43554688 11.44726562 C0.13810547 11.67478516 -1.15933594 11.90230469 -2.49609375 12.13671875 C-3.69419678 12.35030029 -4.8922998 12.56388184 -6.12670898 12.78393555 C-7.07489502 12.85523682 -8.02308105 12.92653809 -9 13 C-11 11 -11 11 -11.4375 8.75 C-10.80325394 4.76331049 -8.77502531 2.83956078 -6 0 C-3 -1 -3 -1 0 0 Z " fill="#161616" transform="translate(361,276)"/>
<path d="M0 0 C-1.98 0.99 -1.98 0.99 -4 2 C-4 2.66 -4 3.32 -4 4 C-4.99 4.33 -5.98 4.66 -7 5 C-1.06 5.99 -1.06 5.99 5 7 C5 7.66 5 8.32 5 9 C0.76775041 8.54654469 -3.45188768 8.07646721 -7.66796875 7.48828125 C-16.52698038 6.2607752 -25.03793597 5.74794195 -34 6 C-34.33 5.01 -34.66 4.02 -35 3 C-30.73841351 2.4244409 -26.47578974 1.85741519 -22.21240234 1.29541016 C-20.00116487 1.00015554 -17.79162939 0.69397491 -15.58203125 0.38671875 C-14.15889367 0.19501903 -12.73571762 0.00360459 -11.3125 -0.1875 C-9.35763672 -0.45626953 -9.35763672 -0.45626953 -7.36328125 -0.73046875 C-4.4879006 -0.96089995 -2.67553851 -0.95506565 0 0 Z " fill="#606060" transform="translate(465,153)"/>
<path d="M0 0 C0.495 1.485 0.495 1.485 1 3 C0.40050537 3.0501123 -0.19898926 3.10022461 -0.81665039 3.15185547 C-3.56592826 3.38575757 -6.31416322 3.63029759 -9.0625 3.875 C-10.00544922 3.95363281 -10.94839844 4.03226563 -11.91992188 4.11328125 C-17.20610584 4.592169 -21.93926767 5.41852115 -27 7 C-29.9375 7.125 -29.9375 7.125 -32 7 C-32 6.34 -32 5.68 -32 5 C-29.69 4.34 -27.38 3.68 -25 3 C-29.29 2.34 -33.58 1.68 -38 1 C-38 0.67 -38 0.34 -38 0 C-25.21703075 -0.86732046 -12.77608367 -1.00295343 0 0 Z " fill="#313131" transform="translate(282,17)"/>
<path d="M0 0 C2.81925655 0.74743081 5.4350193 1.59760202 8 3 C9.625 5.9375 9.625 5.9375 10 9 C9.0234375 11.19140625 9.0234375 11.19140625 8 13 C2.22240116 13.12036664 -3.27959989 12.8320582 -9 12 C-8.67 11.01 -8.34 10.02 -8 9 C-5.36 8.67 -2.72 8.34 0 8 C-0.37125 7.4225 -0.7425 6.845 -1.125 6.25 C-2 4 -2 4 -1.125 1.75 C-0.75375 1.1725 -0.3825 0.595 0 0 Z " fill="#1B1B1B" transform="translate(231,274)"/>
<path d="M0 0 C7.15062486 0.40475235 12.62704304 2.82523652 19 6 C18.67 6.99 18.34 7.98 18 9 C4.635 7.515 4.635 7.515 -9 6 C-9 5.67 -9 5.34 -9 5 C-7.88625 4.855625 -6.7725 4.71125 -5.625 4.5625 C-2.17857953 4.21627965 -2.17857953 4.21627965 0 3 C0 2.01 0 1.02 0 0 Z " fill="#242424" transform="translate(254,284)"/>
<path d="M0 0 C3.38060901 3.11371882 5.70920036 5.54087397 7 10 C7 10.99 7 11.98 7 13 C3.7 13 0.4 13 -3 13 C-4 10 -4 10 -3.1875 7.375 C-2 5 -2 5 0 4 C0 2.68 0 1.36 0 0 Z " fill="#272727" transform="translate(189,399)"/>
<path d="M0 0 C0 0.66 0 1.32 0 2 C-1.2065625 2.4021875 -1.2065625 2.4021875 -2.4375 2.8125 C-3.283125 3.204375 -4.12875 3.59625 -5 4 C-5.33 4.99 -5.66 5.98 -6 7 C-5.34 7.33 -4.68 7.66 -4 8 C-8.95 8.66 -13.9 9.32 -19 10 C-19.33 9.01 -19.66 8.02 -20 7 C-18.12616097 6.20558928 -16.25087114 5.41460026 -14.375 4.625 C-12.80878906 3.96371094 -12.80878906 3.96371094 -11.2109375 3.2890625 C-3.01818182 0 -3.01818182 0 0 0 Z " fill="#484848" transform="translate(339,283)"/>
<path d="M0 0 C0.88945312 0.00322266 1.77890625 0.00644531 2.6953125 0.00976562 C4.07589844 0.02233398 4.07589844 0.02233398 5.484375 0.03515625 C6.42023438 0.03966797 7.35609375 0.04417969 8.3203125 0.04882812 C10.62506541 0.06058707 12.92968727 0.07702199 15.234375 0.09765625 C15.234375 0.75765625 15.234375 1.41765625 15.234375 2.09765625 C15.894375 2.42765625 16.554375 2.75765625 17.234375 3.09765625 C4.859375 3.59265625 4.859375 3.59265625 -7.765625 4.09765625 C-8.095625 3.10765625 -8.425625 2.11765625 -8.765625 1.09765625 C-5.76855805 0.22802538 -3.11605974 -0.01997474 0 0 Z " fill="#090909" transform="translate(438.765625,154.90234375)"/>
<path d="M0 0 C0.33 0 0.66 0 1 0 C1 13.53 1 27.06 1 41 C-3.35779981 41.87155996 -6.90746106 42.10366859 -11.3125 42.0625 C-12.56675781 42.05347656 -13.82101562 42.04445313 -15.11328125 42.03515625 C-16.06589844 42.02355469 -17.01851563 42.01195312 -18 42 C-17.67 41.01 -17.34 40.02 -17 39 C-11.39 39.33 -5.78 39.66 0 40 C0 26.8 0 13.6 0 0 Z " fill="#0D0D0D" transform="translate(504,371)"/>
<path d="M0 0 C-1.24959879 3.74879638 -3.20967538 5.20967538 -6 8 C-6.91653147 9.25598757 -7.8124865 10.52724279 -8.6875 11.8125 C-9.450625 12.864375 -10.21375 13.91625 -11 15 C-11.66 15 -12.32 15 -13 15 C-12.67 15.99 -12.34 16.98 -12 18 C-14.3125 20.0625 -14.3125 20.0625 -17 22 C-17.99 21.67 -18.98 21.34 -20 21 C-18.7260411 18.96166576 -17.38938077 16.96147874 -16 15 C-15.34 15 -14.68 15 -14 15 C-13.773125 14.484375 -13.54625 13.96875 -13.3125 13.4375 C-6.07692308 0 -6.07692308 0 0 0 Z " fill="#0E0E0E" transform="translate(242,85)"/>
<path d="M0 0 C-0.33 0.66 -0.66 1.32 -1 2 C-1.99 2.33 -2.98 2.66 -4 3 C-4.99 3.495 -4.99 3.495 -6 4 C-6 4.66 -6 5.32 -6 6 C-11.445 7.485 -11.445 7.485 -17 9 C-14.64625132 4.29250264 -12.89636618 1.84731255 -8.0625 -0.3125 C-4.91017264 -1.02016533 -3.06762704 -0.90224325 0 0 Z " fill="#363636" transform="translate(328,217)"/>
<path d="M0 0 C8.51372785 -0.31274919 16.6030674 0.62707087 25 2 C24.67 2.99 24.34 3.98 24 5 C17.4 5 10.8 5 4 5 C5.32 4.34 6.64 3.68 8 3 C8 2.34 8 1.68 8 1 C5.36 1 2.72 1 0 1 C0 0.67 0 0.34 0 0 Z " fill="#646464" transform="translate(137,154)"/>
<path d="M0 0 C-0.99 0.33 -1.98 0.66 -3 1 C-3.74926071 4.66305234 -4.2380014 7.42355152 -3 11 C-5.31 10.67 -7.62 10.34 -10 10 C-11.125 4.25 -11.125 4.25 -10 2 C-8.22265625 1.11328125 -8.22265625 1.11328125 -6.0625 0.3125 C-5.35222656 0.04050781 -4.64195312 -0.23148437 -3.91015625 -0.51171875 C-2 -1 -2 -1 0 0 Z " fill="#292929" transform="translate(355,278)"/>
<path d="M0 0 C1.32 0 2.64 0 4 0 C4 0.66 4 1.32 4 2 C4.70125 1.649375 5.4025 1.29875 6.125 0.9375 C9.50268586 -0.1639193 11.58080593 0.20483859 15 1 C15 2.32 15 3.64 15 5 C15.33 5.99 15.66 6.98 16 8 C9.82821834 6.78768575 5.03169202 4.84067981 0 1 C0 0.67 0 0.34 0 0 Z " fill="#2F2F2F" transform="translate(96,241)"/>
<path d="M0 0 C2.97 0.495 2.97 0.495 6 1 C6.33 1.99 6.66 2.98 7 4 C5.5625 6.1875 5.5625 6.1875 4 8 C4.66 8.33 5.32 8.66 6 9 C6 9.66 6 10.32 6 11 C2.04 10.67 -1.92 10.34 -6 10 C-6 9.67 -6 9.34 -6 9 C-4.02 9 -2.04 9 0 9 C0 8.195625 0 7.39125 0 6.5625 C0 4.375 0 2.1875 0 0 Z " fill="#3B3B3B" transform="translate(239,278)"/>
<path d="M0 0 C1.134375 0.020625 2.26875 0.04125 3.4375 0.0625 C3.4375 0.7225 3.4375 1.3825 3.4375 2.0625 C2.4475 2.3925 1.4575 2.7225 0.4375 3.0625 C0.7675 3.7225 1.0975 4.3825 1.4375 5.0625 C0.4475 5.0625 -0.5425 5.0625 -1.5625 5.0625 C-1.5625 5.7225 -1.5625 6.3825 -1.5625 7.0625 C-4.5325 6.7325 -7.5025 6.4025 -10.5625 6.0625 C-8.5625 2.0625 -8.5625 2.0625 -6.5 1.375 C-5.860625 1.271875 -5.22125 1.16875 -4.5625 1.0625 C-3.5625 0.0625 -3.5625 0.0625 0 0 Z " fill="#2F2F2F" transform="translate(344.5625,16.9375)"/>
<path d="M0 0 C1.41655793 -0.0272415 2.83327045 -0.04650467 4.25 -0.0625 C5.43335938 -0.07990234 5.43335938 -0.07990234 6.640625 -0.09765625 C8.90691002 -0.00385306 10.8288895 0.36758937 13 1 C12.67 1.66 12.34 2.32 12 3 C10.68 3 9.36 3 8 3 C7.34 4.65 6.68 6.3 6 8 C4.68 7.34 3.36 6.68 2 6 C2.33 5.01 2.66 4.02 3 3 C2.01 2.01 1.02 1.02 0 0 Z " fill="#111111" transform="translate(352,19)"/>
<path d="M0 0 C2.64 0.33 5.28 0.66 8 1 C7.01 1.33 6.02 1.66 5 2 C5 2.99 5 3.98 5 5 C1.85069107 6.04976964 -0.38814456 6.10131595 -3.6875 6.0625 C-4.68136719 6.05347656 -5.67523438 6.04445313 -6.69921875 6.03515625 C-7.83810547 6.01775391 -7.83810547 6.01775391 -9 6 C-9 5.67 -9 5.34 -9 5 C-7.88625 4.855625 -6.7725 4.71125 -5.625 4.5625 C-2.17857953 4.21627965 -2.17857953 4.21627965 0 3 C0 2.01 0 1.02 0 0 Z " fill="#393939" transform="translate(254,284)"/>
<path d="M0 0 C0.66 0 1.32 0 2 0 C1.84660156 1.0725 1.69320312 2.145 1.53515625 3.25 C0.83925021 8.81724831 0.6513766 14.39713442 0.4375 20 C0.39431641 21.06089844 0.35113281 22.12179688 0.30664062 23.21484375 C0.20144004 25.80979151 0.09929881 28.40482084 0 31 C-0.33 31 -0.66 31 -1 31 C-1.02469575 26.90658501 -1.04285793 22.81319879 -1.05493164 18.71972656 C-1.0599643 17.32681523 -1.06679098 15.9339092 -1.07543945 14.54101562 C-1.08755152 12.54038754 -1.09270412 10.53972112 -1.09765625 8.5390625 C-1.10289307 7.33459473 -1.10812988 6.13012695 -1.11352539 4.88916016 C-1 2 -1 2 0 0 Z " fill="#343434" transform="translate(192,134)"/>
<path d="M0 0 C-0.66 1.98 -1.32 3.96 -2 6 C-4.64 5.67 -7.28 5.34 -10 5 C-9 2 -9 2 -6.125 0.25 C-3 -1 -3 -1 0 0 Z " fill="#232323" transform="translate(493,145)"/>
<path d="M0 0 C1.97885999 2.96828999 3.25864997 5.77447054 4.625 9.0625 C5.07101562 10.12597656 5.51703125 11.18945312 5.9765625 12.28515625 C7 15 7 15 7 17 C4.525 16.01 4.525 16.01 2 15 C1.814375 13.4221875 1.814375 13.4221875 1.625 11.8125 C1.16368962 8.10727842 1.16368962 8.10727842 -0.125 5.25 C-1 3 -1 3 0 0 Z " fill="#303030" transform="translate(409,102)"/>
<path d="M0 0 C1.32 0.99 2.64 1.98 4 3 C-0.62 3.33 -5.24 3.66 -10 4 C-10.33 3.01 -10.66 2.02 -11 1 C-7.30025941 -0.18391699 -3.86200562 -0.27585754 0 0 Z " fill="#747474" transform="translate(441,155)"/>
<path d="M0 0 C9.24 0 18.48 0 28 0 C27.34 1.32 26.68 2.64 26 4 C25.34 3.34 24.68 2.68 24 2 C21.47962036 1.62864085 21.47962036 1.62864085 18.5546875 1.5859375 C16.94013672 1.52792969 16.94013672 1.52792969 15.29296875 1.46875 C14.16503906 1.4378125 13.03710938 1.406875 11.875 1.375 C10.17150391 1.31699219 10.17150391 1.31699219 8.43359375 1.2578125 C5.62256044 1.16332399 2.81153767 1.07776459 0 1 C0 0.67 0 0.34 0 0 Z " fill="#0E0E0E" transform="translate(248,329)"/>
<path d="M0 0 C0 2.62113708 -0.31292445 4.50935112 -1 7 C-1.66 6.67 -2.32 6.34 -3 6 C-3.33 6.33 -3.66 6.66 -4 7 C-4.66 7 -5.32 7 -6 7 C-6.66 8.32 -7.32 9.64 -8 11 C-8.66 11 -9.32 11 -10 11 C-8.67367286 5.36310966 -4.53368235 3.06814317 0 0 Z " fill="#0C0C0C" transform="translate(54,333)"/>
<path d="M0 0 C-1.69344953 1.69344953 -3.94627913 1.68766262 -6.25 2.125 C-7.20390625 2.31320312 -8.1578125 2.50140625 -9.140625 2.6953125 C-12.04103657 3.00437275 -14.19256673 2.72747358 -17 2 C-14.20877747 0.50288974 -11.57989914 -0.51166801 -8.5 -1.25 C-7.7471875 -1.44078125 -6.994375 -1.6315625 -6.21875 -1.828125 C-3.55159514 -2.03473559 -2.25399237 -1.37288626 0 0 Z " fill="#383838" transform="translate(382,283)"/>
<path d="M0 0 C0.99 0.33 1.98 0.66 3 1 C-0.71274665 5.5565527 -5.79007402 7.57400393 -11 10 C-10.67 8.68 -10.34 7.36 -10 6 C-9.34 6 -8.68 6 -8 6 C-7.67 5.34 -7.34 4.68 -7 4 C-3.9375 3.375 -3.9375 3.375 -1 3 C-0.67 2.01 -0.34 1.02 0 0 Z " fill="#353535" transform="translate(356,222)"/>
<path d="M0 0 C0.66 0.66 1.32 1.32 2 2 C1.34 2 0.68 2 0 2 C0 1.34 0 0.68 0 0 Z M-1 2 C-0.67 2.99 -0.34 3.98 0 5 C0.66 5.33 1.32 5.66 2 6 C-3.24882694 9.17692157 -8.01488629 9.65697965 -14 10 C-11.09907498 8.06604999 -10.10325263 7.69868059 -6.8125 7.375 C-5.554375 7.25125 -4.29625 7.1275 -3 7 C-3 5.68 -3 4.36 -3 3 C-2.34 2.67 -1.68 2.34 -1 2 Z " fill="#343434" transform="translate(325,201)"/>
<path d="M0 0 C3.77062485 5.65593728 3.13434477 12.41710631 3 19 C1.68 18.34 0.36 17.68 -1 17 C-0.835 16.236875 -0.67 15.47375 -0.5 14.6875 C0.16562149 9.77854151 0.07920078 4.94564886 0 0 Z " fill="#070707" transform="translate(418,140)"/>
<path d="M0 0 C2.33944736 0.28730055 4.6739143 0.61936779 7 1 C4.75 3.5 4.75 3.5 2 6 C0.68 6 -0.64 6 -2 6 C-1.125 1.125 -1.125 1.125 0 0 Z " fill="#323232" transform="translate(115,98)"/>
<path d="M0 0 C0.66 0.33 1.32 0.66 2 1 C2 1.99 2 2.98 2 4 C-0.3125 6.25 -0.3125 6.25 -3 8 C-3.99 7.67 -4.98 7.34 -6 7 C-5.67 5.68 -5.34 4.36 -5 3 C-3.35 2.67 -1.7 2.34 0 2 C0 1.34 0 0.68 0 0 Z " fill="#101010" transform="translate(339,283)"/>
<path d="M0 0 C1.65 0 3.3 0 5 0 C5.66 1.65 6.32 3.3 7 5 C4 6 4 6 1 6 C0.34 5.01 -0.32 4.02 -1 3 C-0.67 2.01 -0.34 1.02 0 0 Z " fill="#111111" transform="translate(207,265)"/>
<path d="M0 0 C-0.33 0.99 -0.66 1.98 -1 3 C-2.98 3 -4.96 3 -7 3 C-7 3.66 -7 4.32 -7 5 C-8.32 4.67 -9.64 4.34 -11 4 C-11 3.34 -11 2.68 -11 2 C-7.17010894 0.19769832 -4.21878192 -0.19622241 0 0 Z " fill="#343434" transform="translate(330,288)"/>
<path d="M0 0 C5.94 0 11.88 0 18 0 C18 0.66 18 1.32 18 2 C13.84373632 3.00926479 9.95634906 3.10239579 5.6875 3.0625 C4.43324219 3.05347656 3.17898438 3.04445313 1.88671875 3.03515625 C0.93410156 3.02355469 -0.01851563 3.01195312 -1 3 C-0.67 2.01 -0.34 1.02 0 0 Z " fill="#040404" transform="translate(487,410)"/>
<path d="M0 0 C0.33 0.99 0.66 1.98 1 3 C3.00016466 4.20882096 3.00016466 4.20882096 5 5 C5 5.66 5 6.32 5 7 C5.66 7.33 6.32 7.66 7 8 C7.625 10.0625 7.625 10.0625 8 12 C7.34 12 6.68 12 6 12 C5.731875 11.195625 5.46375 10.39125 5.1875 9.5625 C4.795625 8.716875 4.40375 7.87125 4 7 C3.01 6.67 2.02 6.34 1 6 C1 5.34 1 4.68 1 4 C0.34 4 -0.32 4 -1 4 C-0.67 2.68 -0.34 1.36 0 0 Z M7 6 C9 7 9 7 9 7 Z " fill="#0B0B0B" transform="translate(91,348)"/>
<path d="M0 0 C-1.24879091 3.74637273 -3.15795107 5.29013939 -6 8 C-7.1446875 9.1446875 -7.1446875 9.1446875 -8.3125 10.3125 C-8.869375 10.869375 -9.42625 11.42625 -10 12 C-10.66 11.67 -11.32 11.34 -12 11 C-4.59615385 0 -4.59615385 0 0 0 Z " fill="#030303" transform="translate(242,85)"/>
<path d="M0 0 C0.99 0.33 1.98 0.66 3 1 C1.52440331 5.42679007 -0.90057368 5.91432696 -5 8 C-5.66 8 -6.32 8 -7 8 C-6.34 6.35 -5.68 4.7 -5 3 C-3.68 3 -2.36 3 -1 3 C-0.67 2.01 -0.34 1.02 0 0 Z " fill="#3B3B3B" transform="translate(184,51)"/>
<path d="M0 0 C0 0.66 0 1.32 0 2 C-9.41002278 5.44419134 -9.41002278 5.44419134 -14 5 C-14 4.01 -14 3.02 -14 2 C-13.07767578 1.90912109 -13.07767578 1.90912109 -12.13671875 1.81640625 C-11.32847656 1.73261719 -10.52023437 1.64882813 -9.6875 1.5625 C-8.88699219 1.48128906 -8.08648437 1.40007812 -7.26171875 1.31640625 C-4.72668671 0.96176446 -2.56472408 0 0 0 Z " fill="#313131" transform="translate(456,408)"/>
<path d="M0 0 C0.33 0 0.66 0 1 0 C1 3.96 1 7.92 1 12 C-3.62 12 -8.24 12 -13 12 C-13 11.67 -13 11.34 -13 11 C-9.04 10.34 -5.08 9.68 -1 9 C-0.67 6.03 -0.34 3.06 0 0 Z " fill="#0E0E0E" transform="translate(148,400)"/>
<path d="M0 0 C0.721875 0.103125 1.44375 0.20625 2.1875 0.3125 C2.1875 1.3025 2.1875 2.2925 2.1875 3.3125 C-1.32026784 4.91605101 -3.95604879 5.53286864 -7.8125 5.3125 C-3.50480769 0.38942308 -3.50480769 0.38942308 0 0 Z " fill="#2F2F2F" transform="translate(335.8125,266.6875)"/>
<path d="M0 0 C0.66 0.99 1.32 1.98 2 3 C-0.31 5.64 -2.62 8.28 -5 11 C-5.99 10.34 -6.98 9.68 -8 9 C-5.36 6.03 -2.72 3.06 0 0 Z " fill="#3C3C3C" transform="translate(366,211)"/>
<path d="M0 0 C0.99 0.33 1.98 0.66 3 1 C2.67 2.32 2.34 3.64 2 5 C2.639375 5.2475 3.27875 5.495 3.9375 5.75 C6 7 6 7 6.62890625 9.078125 C6.81259766 10.02945313 6.81259766 10.02945313 7 11 C5.68103535 10.07161713 4.37001311 9.13194268 3.0625 8.1875 C2.33160156 7.66542969 1.60070312 7.14335938 0.84765625 6.60546875 C-1 5 -1 5 -2 2 C-1.34 2 -0.68 2 0 2 C0 1.34 0 0.68 0 0 Z " fill="#353535" transform="translate(483,105)"/>
<path d="M0 0 C3.3 0 6.6 0 10 0 C10.33 0.99 10.66 1.98 11 3 C7.7 3 4.4 3 1 3 C0.67 2.01 0.34 1.02 0 0 Z " fill="#424242" transform="translate(272,17)"/>
<path d="M0 0 C-0.3125 1.875 -0.3125 1.875 -1 4 C-4 6 -4 6 -7.1875 5.625 C-8.115625 5.41875 -9.04375 5.2125 -10 5 C-2.5 0 -2.5 0 0 0 Z " fill="#202020" transform="translate(421,247)"/>
<path d="M0 0 C1.06528748 2.73019786 1.07998186 3.79298812 0.00390625 6.578125 C-0.47175781 7.45984375 -0.94742188 8.3415625 -1.4375 9.25 C-1.91058594 10.14203125 -2.38367188 11.0340625 -2.87109375 11.953125 C-3.24363281 12.62859375 -3.61617187 13.3040625 -4 14 C-4.33 14 -4.66 14 -5 14 C-4.58669586 8.00708997 -3.68096635 4.74963401 0 0 Z " fill="#3D3D3D" transform="translate(204,100)"/>
<path d="M0 0 C3.75283733 1.45271122 3.75283733 1.45271122 4.875 3.9375 C5 6 5 6 3 9 C3 8.34 3 7.68 3 7 C1.68 6.34 0.36 5.68 -1 5 C-0.67 3.35 -0.34 1.7 0 0 Z " fill="#111111" transform="translate(302,96)"/>
<path d="M0 0 C0.99 0.33 1.98 0.66 3 1 C0.69 4.63 -1.62 8.26 -4 12 C-4.33 10.68 -4.66 9.36 -5 8 C-4.34 8 -3.68 8 -3 8 C-3 6.35 -3 4.7 -3 3 C-2.34 3 -1.68 3 -1 3 C-0.67 2.01 -0.34 1.02 0 0 Z " fill="#525252" transform="translate(262,126)"/>
<path d="M0 0 C0.99 0.33 1.98 0.66 3 1 C2.01 1.66 1.02 2.32 0 3 C-1.19232613 5.05003955 -1.19232613 5.05003955 -2 7 C-2.66 6.34 -3.32 5.68 -4 5 C-2.68 3.35 -1.36 1.7 0 0 Z M-6 6 C-5.34 6.33 -4.68 6.66 -4 7 C-4.66 8.65 -5.32 10.3 -6 12 C-6.66 11.67 -7.32 11.34 -8 11 C-7.34 9.35 -6.68 7.7 -6 6 Z " fill="#3C3C3C" transform="translate(358,87)"/>
<path d="M0 0 C2.97 0 5.94 0 9 0 C9 0.99 9 1.98 9 3 C6.03 3 3.06 3 0 3 C0 2.01 0 1.02 0 0 Z " fill="#444444" transform="translate(310,17)"/>
<path d="M0 0 C0.66 0.33 1.32 0.66 2 1 C-3.14285714 6.57142857 -3.14285714 6.57142857 -7 7 C-7 6.01 -7 5.02 -7 4 C-5.64997428 3.32498714 -4.29565659 2.65850017 -2.9375 2 C-1.04750628 1.148853 -1.04750628 1.148853 0 0 Z " fill="#121212" transform="translate(148,47)"/>
<path d="M0 0 C1.65 0.33 3.3 0.66 5 1 C4.67 1.99 4.34 2.98 4 4 C-2.93 3.505 -2.93 3.505 -10 3 C-10 2.67 -10 2.34 -10 2 C-6.7 2 -3.4 2 0 2 C0 1.34 0 0.68 0 0 Z " fill="#888888" transform="translate(157,155)"/>
<path d="M0 0 C4.875 4.75 4.875 4.75 6 7 C3.625 7.625 3.625 7.625 1 8 C0.34 7.34 -0.32 6.68 -1 6 C-0.34 6 0.32 6 1 6 C0.67 4.02 0.34 2.04 0 0 Z " fill="#323232" transform="translate(205,208)"/>
<path d="M0 0 C1.58323688 -0.027193 3.16661062 -0.04648306 4.75 -0.0625 C6.07257813 -0.07990234 6.07257813 -0.07990234 7.421875 -0.09765625 C9.7818838 -0.00826198 11.74498524 0.33087179 14 1 C14 1.66 14 2.32 14 3 C4.58997722 2.03644647 4.58997722 2.03644647 0 1 C0 0.67 0 0.34 0 0 Z " fill="#424242" transform="translate(456,159)"/>
<path d="M0 0 C0.66 0.66 1.32 1.32 2 2 C3.32 2.66 4.64 3.32 6 4 C2.7 4.66 -0.6 5.32 -4 6 C-2.25 1.125 -2.25 1.125 0 0 Z " fill="#2F2F2F" transform="translate(236,24)"/>
<path d="M0 0 C1.65 0.33 3.3 0.66 5 1 C5 1.99 5 2.98 5 4 C1.25 5.125 1.25 5.125 -1 4 C-0.67 2.68 -0.34 1.36 0 0 Z " fill="#2A2A2A" transform="translate(452,330)"/>
<path d="M0 0 C-1.98 0.99 -1.98 0.99 -4 2 C-4 2.66 -4 3.32 -4 4 C-5.32 4.33 -6.64 4.66 -8 5 C-8 4.34 -8 3.68 -8 3 C-7.01 3 -6.02 3 -5 3 C-5 2.34 -5 1.68 -5 1 C-6.65 1 -8.3 1 -10 1 C-10 0.67 -10 0.34 -10 0 C-6.33694766 -0.74926071 -3.57644848 -1.2380014 0 0 Z " fill="#414141" transform="translate(465,153)"/>
<path d="M0 0 C0.66 0.99 1.32 1.98 2 3 C1.21625 3.226875 0.4325 3.45375 -0.375 3.6875 C-3.21875 4.78125 -3.21875 4.78125 -4.3125 7.625 C-4.539375 8.40875 -4.76625 9.1925 -5 10 C-5.66 10 -6.32 10 -7 10 C-5.6062718 5.56541027 -3.39417765 3.12621626 0 0 Z " fill="#040404" transform="translate(257,113)"/>
<path d="M0 0 C0.66 0.33 1.32 0.66 2 1 C-0.31 3.31 -2.62 5.62 -5 8 C-5.66 7.34 -6.32 6.68 -7 6 C-2.25 1.125 -2.25 1.125 0 0 Z " fill="#070707" transform="translate(252,77)"/>
<path d="M0 0 C2 2 2 2 2 5 C-1.63 4.67 -5.26 4.34 -9 4 C-6.01193893 2.50596946 -3.10343799 1.20689255 0 0 Z " fill="#484846" transform="translate(316,43)"/>
<path d="M0 0 C2.97 0.495 2.97 0.495 6 1 C5 3 5 3 1.9375 4.125 C0.968125 4.41375 -0.00125 4.7025 -1 5 C-0.67 3.35 -0.34 1.7 0 0 Z " fill="#414141" transform="translate(212,35)"/>
<path d="M0 0 C0.99 0.33 1.98 0.66 3 1 C2.67 1.99 2.34 2.98 2 4 C-1.63 3.67 -5.26 3.34 -9 3 C-9 2.67 -9 2.34 -9 2 C-6.94921875 1.77213542 -4.8984375 1.54427083 -2.84765625 1.31640625 C-0.98859771 1.18113386 -0.98859771 1.18113386 0 0 Z " fill="#8F8F8F" transform="translate(270,289)"/>
<path d="M0 0 C-0.33 0.66 -0.66 1.32 -1 2 C-3.28515625 2.4140625 -3.28515625 2.4140625 -6.0625 2.625 C-6.98160156 2.69976562 -7.90070313 2.77453125 -8.84765625 2.8515625 C-9.55792969 2.90054687 -10.26820313 2.94953125 -11 3 C-8.15930939 0.15930939 -3.81147953 -1.90573977 0 0 Z " fill="#353535" transform="translate(364,285)"/>
<path d="M0 0 C3.91606575 0.53400897 6.39338934 1.19669467 10 3 C6.37 3 2.74 3 -1 3 C-0.67 2.01 -0.34 1.02 0 0 Z " fill="#2C2C2C" transform="translate(223,283)"/>
<path d="M0 0 C0.99 0.33 1.98 0.66 3 1 C3 2.32 3 3.64 3 5 C0.03 4.505 0.03 4.505 -3 4 C-2.67 3.01 -2.34 2.02 -2 1 C-1.34 0.67 -0.68 0.34 0 0 Z " fill="#3B3B3B" transform="translate(166,267)"/>
<path d="M0 0 C0.99 0.99 1.98 1.98 3 3 C0.64722731 5.72426311 -1.62496331 6.8141763 -5 8 C-4.1875 6.0625 -4.1875 6.0625 -3 4 C-2.01 3.67 -1.02 3.34 0 3 C0 2.01 0 1.02 0 0 Z " fill="#484848" transform="translate(499,235)"/>
<path d="M0 0 C1.98 0 3.96 0 6 0 C6.33 0.99 6.66 1.98 7 3 C4.03 3 1.06 3 -2 3 C-1.34 2.67 -0.68 2.34 0 2 C0 1.34 0 0.68 0 0 Z " fill="#0B0B0B" transform="translate(139,155)"/>
<path d="M0 0 C0.66 1.32 1.32 2.64 2 4 C1.38125 4.12375 0.7625 4.2475 0.125 4.375 C-2.19120832 4.87197356 -2.19120832 4.87197356 -4 7 C-4.33 5.68 -4.66 4.36 -5 3 C-3.35 2.01 -1.7 1.02 0 0 Z " fill="#0D0D0D" transform="translate(35,122)"/>
<path d="M0 0 C-0.99 1.485 -0.99 1.485 -2 3 C-2.66 3 -3.32 3 -4 3 C-4.33 3.66 -4.66 4.32 -5 5 C-5.33 4.34 -5.66 3.68 -6 3 C-6.99 2.34 -7.98 1.68 -9 1 C-6.04335481 -0.4783226 -3.25770263 -0.06032783 0 0 Z " fill="#0D0D0D" transform="translate(296,97)"/>
<path d="M0 0 C-0.66 1.32 -1.32 2.64 -2 4 C-2.66 4 -3.32 4 -4 4 C-4.33 4.66 -4.66 5.32 -5 6 C-5.66 5.01 -6.32 4.02 -7 3 C-3.375 0 -3.375 0 0 0 Z " fill="#0F0F0F" transform="translate(222,62)"/>
<path d="M0 0 C-3.82517513 2.39073445 -7.59665524 2.55966552 -12 3 C-12 2.34 -12 1.68 -12 1 C-8.0186217 -0.3271261 -4.14954773 -0.06915913 0 0 Z " fill="#444444" transform="translate(262,21)"/>
<path d="M0 0 C0.33 1.32 0.66 2.64 1 4 C-1.31 4 -3.62 4 -6 4 C-6 3.01 -6 2.02 -6 1 C-4.02 0.67 -2.04 0.34 0 0 Z " fill="#0D0D0D" transform="translate(325,16)"/>
<path d="M0 0 C4.42857143 5.14285714 4.42857143 5.14285714 5 9 C3 9 3 9 0.8125 7.3125 C-1 5 -1 5 -0.75 2.25 C-0.5025 1.5075 -0.255 0.765 0 0 Z " fill="#4A4A4A" transform="translate(276,329)"/>
<path d="M0 0 C2.97 0.33 5.94 0.66 9 1 C9 1.66 9 2.32 9 3 C6.03 3 3.06 3 0 3 C0 2.01 0 1.02 0 0 Z " fill="#333333" transform="translate(320,242)"/>
<path d="M0 0 C-1.32 1.65 -2.64 3.3 -4 5 C-5.32 4.67 -6.64 4.34 -8 4 C-7 1 -7 1 -4.5625 -0.25 C-2 -1 -2 -1 0 0 Z " fill="#0D0D0D" transform="translate(348,217)"/>
<path d="M0 0 C3.2542015 2.83430453 4.5206753 4.68607774 5 9 C4.01 8.67 3.02 8.34 2 8 C0.5522078 5.10441559 0 3.25811062 0 0 Z " fill="#070707" transform="translate(212,179)"/>
<path d="M0 0 C1.98 0.99 1.98 0.99 4 2 C4.75 5.625 4.75 5.625 5 9 C4.34 9 3.68 9 3 9 C2.01 6.03 1.02 3.06 0 0 Z " fill="#0A0A0A" transform="translate(179,176)"/>
<path d="M0 0 C1.485 0.99 1.485 0.99 3 2 C3.1875 5.125 3.1875 5.125 3 8 C1.68 7.01 0.36 6.02 -1 5 C-0.67 3.35 -0.34 1.7 0 0 Z " fill="#2C2C2C" transform="translate(591,153)"/>
<path d="M0 0 C0.99 0 1.98 0 3 0 C4.25664978 2.90600261 5 4.79604584 5 8 C3.0625 7.375 3.0625 7.375 1 6 C0.25 2.875 0.25 2.875 0 0 Z " fill="#323232" transform="translate(380,119)"/>
<path d="M0 0 C1.32 0.66 2.64 1.32 4 2 C3.01 2 2.02 2 1 2 C0.87625 2.639375 0.7525 3.27875 0.625 3.9375 C0.41875 4.618125 0.2125 5.29875 0 6 C-0.99 6.495 -0.99 6.495 -2 7 C-2.6875 5.1875 -2.6875 5.1875 -3 3 C-1.5625 1.25 -1.5625 1.25 0 0 Z " fill="#353535" transform="translate(324,118)"/>
<path d="M0 0 C-0.33 1.65 -0.66 3.3 -1 5 C-1.99 5.33 -2.98 5.66 -4 6 C-4.33 5.01 -4.66 4.02 -5 3 C-2.25 0 -2.25 0 0 0 Z " fill="#2D2D2D" transform="translate(109,107)"/>
<path d="M0 0 C-1.01176437 3.40320742 -1.64843582 4.75725331 -4.625 6.8125 C-5.40875 7.204375 -6.1925 7.59625 -7 8 C-7 6.68 -7 5.36 -7 4 C-2.77777778 0 -2.77777778 0 0 0 Z " fill="#060606" transform="translate(235,51)"/>
<path d="M0 0 C1.65 0 3.3 0 5 0 C5.33 0.66 5.66 1.32 6 2 C3.36 2.33 0.72 2.66 -2 3 C-1.67 3.99 -1.34 4.98 -1 6 C-1.66 6 -2.32 6 -3 6 C-3 4.68 -3 3.36 -3 2 C-2.01 2 -1.02 2 0 2 C0 1.34 0 0.68 0 0 Z " fill="#242424" transform="translate(252,19)"/>
<path d="M0 0 C2.475 0.495 2.475 0.495 5 1 C5 1.99 5 2.98 5 4 C3.35 4 1.7 4 0 4 C0 2.68 0 1.36 0 0 Z " fill="#303030" transform="translate(264,287)"/>
<path d="M0 0 C5.75 -0.125 5.75 -0.125 8 1 C7.67 1.99 7.34 2.98 7 4 C4.08482708 2.92598892 2.22189824 2.22189824 0 0 Z " fill="#393939" transform="translate(247,228)"/>
<path d="M0 0 C-0.8353125 0.1546875 -0.8353125 0.1546875 -1.6875 0.3125 C-4.44176578 1.13133577 -6.58727657 2.45853781 -9 4 C-9.33 3.01 -9.66 2.02 -10 1 C-6.1496895 -1.56687367 -4.41430237 -0.83288724 0 0 Z " fill="#101010" transform="translate(277,228)"/>
<path d="M0 0 C0.66 0 1.32 0 2 0 C0.8141763 3.37503669 -0.27573689 5.64722731 -3 8 C-3.33 7.01 -3.66 6.02 -4 5 C-2.1875 2.3125 -2.1875 2.3125 0 0 Z " fill="#4C4C4C" transform="translate(374,202)"/>
<path d="M0 0 C-1.47692308 4.67692308 -1.47692308 4.67692308 -4.125 6.3125 C-5.053125 6.6528125 -5.053125 6.6528125 -6 7 C-5.37162381 3.35541809 -4.14650034 0 0 0 Z " fill="#4A4A4A" transform="translate(568,188)"/>
<path d="M0 0 C4 6 4 6 4 10 C3.34 10 2.68 10 2 10 C-1.125 3.375 -1.125 3.375 0 0 Z " fill="#373737" transform="translate(409,102)"/>
<path d="M0 0 C0.66 0.33 1.32 0.66 2 1 C2 1.99 2 2.98 2 4 C1.34 4 0.68 4 0 4 C-0.66 5.65 -1.32 7.3 -2 9 C-2.6875 7.3125 -2.6875 7.3125 -3 5 C-1.5625 2.25 -1.5625 2.25 0 0 Z " fill="#040404" transform="translate(198,85)"/>
<path d="M0 0 C4.875 3.625 4.875 3.625 6 7 C3.50638429 5.79618552 1.31856917 4.54571278 -1 3 C-0.67 2.01 -0.34 1.02 0 0 Z " fill="#3F3F3F" transform="translate(430,66)"/>
<path d="M0 0 C0.66 0 1.32 0 2 0 C1.34 1.98 0.68 3.96 0 6 C-1.32 6 -2.64 6 -4 6 C-2.7260411 3.96166576 -1.38938077 1.96147874 0 0 Z " fill="#2A2A2A" transform="translate(360,200)"/>
<path d="M0 0 C3.16115776 1.36983503 3.9927092 1.9890638 6 5 C4.68 5 3.36 5 2 5 C2 4.34 2 3.68 2 3 C1.01 2.67 0.02 2.34 -1 2 C-0.67 1.34 -0.34 0.68 0 0 Z " fill="#313131" transform="translate(556,121)"/>
<path d="M0 0 C0.99 0.33 1.98 0.66 3 1 C1.25 5.875 1.25 5.875 -1 7 C-1.625 5.1875 -1.625 5.1875 -2 3 C-1.34 2.01 -0.68 1.02 0 0 Z " fill="#242424" transform="translate(211,87)"/>
<path d="M0 0 C0.66 0.33 1.32 0.66 2 1 C1.34 2.32 0.68 3.64 0 5 C-1.32 4.67 -2.64 4.34 -4 4 C-2.68 2.68 -1.36 1.36 0 0 Z " fill="#111111" transform="translate(181,32)"/>
<path d="M0 0 C3.125 0.375 3.125 0.375 6 1 C6 1.99 6 2.98 6 4 C3.36 3.34 0.72 2.68 -2 2 C-1.34 1.34 -0.68 0.68 0 0 Z " fill="#0B0B0B" transform="translate(80,345)"/>
<path d="M0 0 C0.99 0.33 1.98 0.66 3 1 C1.35 2.65 -0.3 4.3 -2 6 C-2 4.35 -2 2.7 -2 1 C-1.34 0.67 -0.68 0.34 0 0 Z " fill="#454545" transform="translate(336,235)"/>
<path d="M0 0 C0.33 0 0.66 0 1 0 C1 1.98 1 3.96 1 6 C1.66 6 2.32 6 3 6 C3.33 7.32 3.66 8.64 4 10 C3.01 10.495 3.01 10.495 2 11 C-0.32590854 7.36576791 -0.16265833 4.22911669 0 0 Z " fill="#606060" transform="translate(246,188)"/>
<path d="M0 0 C1.2077558 3.62326739 0.54311128 4.64146369 -1 8 C-1.66 8 -2.32 8 -3 8 C-3.33 6.68 -3.66 5.36 -4 4 C-3.34 4 -2.68 4 -2 4 C-2 3.34 -2 2.68 -2 2 C-1.34 2 -0.68 2 0 2 C0 1.34 0 0.68 0 0 Z " fill="#393939" transform="translate(382,187)"/>
<path d="M0 0 C0.33 0.99 0.66 1.98 1 3 C-1.97 5.475 -1.97 5.475 -5 8 C-5 7.01 -5 6.02 -5 5 C-4.34 5 -3.68 5 -3 5 C-2.5359375 4.0409375 -2.5359375 4.0409375 -2.0625 3.0625 C-1 1 -1 1 0 0 Z " fill="#333333" transform="translate(344,189)"/>
<path d="M0 0 C-2.93720508 1.52299523 -5.9168649 2.80100302 -9 4 C-9 3.01 -9 2.02 -9 1 C-6.04335481 -0.4783226 -3.25770263 -0.06032783 0 0 Z " fill="#4C4C4C" transform="translate(116,165)"/>
<path d="M0 0 C0.33 0.99 0.66 1.98 1 3 C-0.98 4.32 -2.96 5.64 -5 7 C-4.60196439 4.11424181 -4.20990931 3.17810487 -1.9375 1.25 C-1.298125 0.8375 -0.65875 0.425 0 0 Z " fill="#484848" transform="translate(256,88)"/>
<path d="M0 0 C0.66 0 1.32 0 2 0 C2 0.66 2 1.32 2 2 C2.66 2.33 3.32 2.66 4 3 C3.34 3.66 2.68 4.32 2 5 C2 4.34 2 3.68 2 3 C0.35 3.66 -1.3 4.32 -3 5 C-1.125 1.125 -1.125 1.125 0 0 Z " fill="#0D0D0D" transform="translate(208,74)"/>
<path d="M0 0 C-1.36983503 3.16115776 -1.9890638 3.9927092 -5 6 C-5 4.68 -5 3.36 -5 2 C-2 0 -2 0 0 0 Z " fill="#292929" transform="translate(107,69)"/>
<path d="M0 0 C0.763125 0.061875 1.52625 0.12375 2.3125 0.1875 C2.6425 0.8475 2.9725 1.5075 3.3125 2.1875 C-1.1425 2.6825 -1.1425 2.6825 -5.6875 3.1875 C-2.6875 0.1875 -2.6875 0.1875 0 0 Z " fill="#090909" transform="translate(253.6875,41.8125)"/>
</svg>
