<?xml version="1.0" encoding="UTF-8"?>
<svg version="1.1" xmlns="http://www.w3.org/2000/svg" width="6926" height="3732">
<path d="M0 0 C2285.58 0 4571.16 0 6926 0 C6926 1214.07 6926 2428.14 6926 3679 C6918.88673115 3678.28867311 6914.30020837 3677.75030289 6908.125 3675 C6902.45443546 3672.56647838 6897.83624527 3670.85439068 6891.625 3670.75 C6890.70976562 3670.72421875 6889.79453125 3670.6984375 6888.8515625 3670.671875 C6885.216852 3671.09011566 6883.06249513 3671.97891786 6880 3674 C6878.4061969 3676.33398568 6877.12742938 3678.44037229 6875.875 3680.9375 C6870.60288582 3691.13237139 6870.60288582 3691.13237139 6864.4375 3693.1875 C6859.15786314 3693.69173498 6855.65440049 3690.50982381 6851.61328125 3687.46875 C6849.13349064 3685.80043907 6849.13349064 3685.80043907 6846.48046875 3685.96875 C6841.1825649 3688.17134309 6838.15409828 3693.03617641 6834.8125 3697.5 C6829.12599422 3704.53231215 6822.96077695 3707.93545556 6814 3709 C6789.62197002 3710.41436587 6772.46958483 3704.84915332 6753.32446289 3689.76928711 C6748.07931477 3685.72866152 6742.98319326 3683 6736.1875 3683 C6732.77658648 3683.58831648 6730.02443897 3684.89859699 6726.9375 3686.4375 C6713.818094 3692.64723253 6692.79591529 3693.64817763 6678.75 3689.6875 C6672.76316315 3687.31503389 6667.54505037 3683.57602388 6662.21484375 3680.01513672 C6651.36480892 3672.81674356 6641.82602631 3670.2963422 6628.80078125 3672.5546875 C6618.30074806 3675.1641632 6608.77412338 3680.18248895 6599.15966797 3685.03198242 C6591.34615217 3688.534197 6580.18011574 3688.29839265 6571.9921875 3686.24609375 C6569.8075385 3685.30188105 6567.95367369 3684.35543956 6566 3683 C6565.18917969 3682.44828125 6564.37835938 3681.8965625 6563.54296875 3681.328125 C6559.84900611 3677.94624829 6557.87622492 3673.88659567 6555.5703125 3669.48828125 C6550.13635639 3659.76538121 6538.71297797 3656.98424377 6528.55078125 3653.98046875 C6519.28547741 3651.62378868 6512.62670089 3651.30493975 6504.16796875 3656.26953125 C6500.88087074 3658.89328696 6498.85664532 3662.11698832 6496.703125 3665.6953125 C6494.29562154 3668.95317269 6491.77441068 3670.65324017 6487.78125 3671.43359375 C6480.3558765 3671.44630843 6473.95613328 3669.47329183 6467 3667 C6466.12085937 3666.71125 6465.24171875 3666.4225 6464.3359375 3666.125 C6454.97419965 3662.7963821 6447.74395928 3656.4569584 6440.18457031 3650.20043945 C6424.80302039 3637.50099716 6411.05237453 3629.1004955 6390.5 3630.375 C6389.62142334 3630.42172852 6388.74284668 3630.46845703 6387.83764648 3630.51660156 C6383.82159341 3630.73713943 6379.81878648 3630.99868698 6375.81640625 3631.3984375 C6369.73420947 3631.9680501 6364.67877976 3632.15096552 6358.75 3630.5625 C6341.38968258 3626.08580798 6325.69434642 3630.28962973 6308.8581543 3635.24389648 C6287.71549699 3640.83702963 6271.04289173 3634.2896279 6252.98632812 3623.83398438 C6252.34630859 3623.46080078 6251.70628906 3623.08761719 6251.046875 3622.703125 C6250.42603027 3622.3424292 6249.80518555 3621.9817334 6249.16552734 3621.61010742 C6247.48647321 3620.6277211 6245.81707803 3619.62887848 6244.1484375 3618.62890625 C6239.01832648 3615.97474211 6233.88375109 3614.91955944 6228.20361328 3614.06323242 C6220.28046541 3612.83225655 6214.62205178 3610.64548658 6208 3606 C6206.19605262 3604.88191497 6204.38354916 3603.77750928 6202.5625 3602.6875 C6201.75941406 3602.19636719 6200.95632813 3601.70523438 6200.12890625 3601.19921875 C6196.20571236 3598.98927284 6193.05473192 3598.86486331 6188.625 3598.875 C6187.50351562 3598.87242187 6186.38203125 3598.86984375 6185.2265625 3598.8671875 C6182.3395128 3598.9860249 6179.8165537 3599.41247049 6177 3600 C6169.36722271 3600.63433163 6164.2836474 3600.47105681 6158 3596 C6146.52078585 3587.93486247 6133.76924906 3586.35591056 6120 3588 C6116.4521057 3588.80808363 6113.06642148 3589.99313819 6109.63793945 3591.19873047 C6097.27076045 3595.45427101 6086.79763502 3592.20996818 6075 3588 C6073.05986458 3587.31291897 6071.11880832 3586.62960665 6069.17333984 3585.95776367 C6067.44013233 3585.35675771 6065.71388067 3584.73579479 6063.98828125 3584.11328125 C6051.72518223 3580.4113351 6039.07496007 3580.62745039 6026.39038086 3580.62939453 C6023.20437052 3580.62502315 6020.01975083 3580.5886047 6016.83398438 3580.55078125 C6004.84331722 3580.48517236 5994.47245728 3581.46540481 5983 3585 C5975.98749833 3586.83928086 5969.3337189 3587.36594907 5962.10546875 3587.56640625 C5952.59835245 3587.92428461 5945.24625008 3590.0915682 5936.8125 3594.4375 C5919.04804156 3603.13926981 5900.033482 3604.73075818 5881 3599 C5864.05379339 3593.12158271 5851.56925277 3585.58905906 5841.9375 3570.5 C5830.05549561 3552.54368746 5814.76527335 3536.06775824 5792.9050293 3531.32910156 C5789.6703335 3530.7509709 5786.4306688 3530.21586934 5783.1875 3529.6875 C5769.88307797 3527.32133083 5759.81327149 3523.06149816 5748.76953125 3515.1640625 C5743.37907152 3511.61802056 5736.12089848 3512.41892407 5730.04443359 3513.55029297 C5727.07167121 3514.2857047 5724.13015257 3515.08981432 5721.1875 3515.9375 C5707.11961725 3519.85686488 5689.3711918 3524.36052003 5675.60498047 3517.33911133 C5674.32636807 3516.61287121 5673.05318689 3515.87698481 5671.78564453 3515.1315918 C5666.94435532 3512.3063653 5662.48965556 3510.94574515 5657 3509.875 C5650.311543 3508.49271889 5645.84384578 3506.8826742 5641 3502 C5640.04843264 3501.06354233 5639.09658436 3500.12737007 5638.14453125 3499.19140625 C5636.0434905 3497.11046327 5633.96644712 3495.00824819 5631.8984375 3492.89453125 C5629.57691904 3490.54196835 5627.16567253 3488.36722711 5624.625 3486.25 C5618.21849481 3480.70033193 5614.66426745 3474.43623003 5611.0625 3466.875 C5608.21822585 3460.97009066 5605.76726519 3456.45791536 5600 3453 C5599.2884375 3452.52175781 5598.576875 3452.04351563 5597.84375 3451.55078125 C5592.7661853 3448.37730331 5588.95835812 3446.70902241 5583 3448 C5581.30599381 3449.94337766 5580.16770937 3451.85282793 5579.0078125 3454.15234375 C5578 3456 5578 3456 5576 3457 C5570.26427702 3457.50547375 5567.02447588 3456.31308869 5562.0625 3453.5 C5556.69739523 3450.63625612 5553.10018023 3448.96607115 5547 3450 C5545.57668256 3450.480741 5544.16024222 3450.98215705 5542.75 3451.5 C5532.85393561 3455.01259623 5524.2197183 3452.82854768 5514.73828125 3449.19140625 C5506.1505021 3446.45444424 5499.59040566 3447.13892266 5490.9375 3449.375 C5475.15172908 3453.30793677 5456.65363924 3456.54498581 5441.5078125 3448.7109375 C5435.83756594 3445.14078226 5430.90011529 3440.66665071 5426.74194336 3435.40942383 C5422.98735537 3430.75282129 5419.01983843 3427.67375895 5413.9375 3424.5625 C5413.19306641 3424.09585938 5412.44863281 3423.62921875 5411.68164062 3423.1484375 C5410.17340995 3422.20498558 5408.66220903 3421.26626389 5407.14794922 3420.33251953 C5405.18889375 3419.11718369 5403.2498941 3417.87655696 5401.31640625 3416.62109375 C5387.77605372 3407.96100962 5378.71684214 3407.01494847 5363.0234375 3409.5390625 C5350.67391879 3411.42180566 5340.8806744 3407.26180972 5330.4375 3401 C5323.88635149 3397.09438571 5317.95674738 3394.95619397 5310.4375 3393.6875 C5298.58184674 3391.67939086 5292.11331987 3387.3098505 5283.17504883 3379.4597168 C5274.0347536 3371.43996561 5267.58021756 3367.86283796 5255.3359375 3367.5703125 C5250.77930343 3367.37912506 5247.5793015 3367.08183926 5244 3364 C5241.97417702 3361.32097372 5240.23340632 3358.49944409 5238.5 3355.625 C5231.8984978 3344.76077201 5231.8984978 3344.76077201 5221.16040039 3338.4296875 C5213.04576618 3336.81574737 5204.21848338 3338.24206633 5196.0625 3339 C5172.63576482 3340.98195435 5153.11399891 3340.42864817 5131.25390625 3330.7890625 C5126.19009259 3328.61555344 5121.56564713 3326.78531494 5116 3328 C5114.04716062 3328.81848964 5112.11061894 3329.67642975 5110.1875 3330.5625 C5101.59563801 3334.31674681 5095.37848743 3332.9923781 5086.87207031 3329.77270508 C5085.48906086 3329.2283798 5084.11280556 3328.66646734 5082.74511719 3328.0847168 C5077.19773793 3325.78582166 5072.700212 3324.99291217 5066.87890625 3327.1640625 C5063.63426173 3329.23323879 5061.45146372 3331.46661091 5058.9375 3334.375 C5049.53625371 3345.15747205 5049.53625371 3345.15747205 5044.5 3347.25 C5043.7678125 3347.56453125 5043.035625 3347.8790625 5042.28125 3348.203125 C5035.13305069 3350.70009873 5025.90773219 3351.75138535 5018.875 3348.5 C5015.67749813 3346.64637573 5012.91152551 3344.34574143 5010.0625 3342 C5003.32760977 3336.48870052 4997.41683193 3333.32198655 4988.5703125 3333.66015625 C4985.90394324 3334.01270051 4983.55969729 3334.68199276 4981 3335.5 C4971.32692233 3338.37577985 4958.8595594 3338.92811671 4949.61328125 3334.47265625 C4941.01754312 3329.62872012 4941.01754312 3329.62872012 4936.97900391 3327.29711914 C4924.57890745 3320.2183007 4912.29149385 3316.68935828 4898.1418457 3320.33520508 C4893.8938477 3321.50851221 4889.68229851 3322.77990371 4885.48828125 3324.1328125 C4878.20009229 3325.94465791 4873.14269553 3324.57792705 4866.375 3322 C4856.99873451 3318.68819101 4848.28929876 3316.73538458 4838.8125 3320.9375 C4835.07692332 3323.04629328 4832.16111801 3325.61004322 4829.0625 3328.5625 C4820.80870868 3336.19503821 4812.79582306 3337.13461166 4801.9375 3337.9375 C4791.41867377 3338.7763288 4784.70745365 3339.88548859 4777.22265625 3347.81640625 C4776.20933228 3348.8835083 4776.20933228 3348.8835083 4775.17553711 3349.97216797 C4772.6223857 3352.73050775 4770.1327686 3355.54223241 4767.67236328 3358.38354492 C4764.5418593 3361.4093941 4761.68998459 3362.31058035 4757.3828125 3362.40234375 C4751.48551327 3362.28015915 4747.05977082 3360.20296675 4741.875 3357.5625 C4732.09105632 3352.56389854 4732.09105632 3352.56389854 4721.3125 3352.56640625 C4714.71582092 3355.40788119 4709.23843703 3358.84713143 4704.078125 3363.87109375 C4699.12452957 3368.63645255 4694.98823687 3370.93923272 4688 3371 C4674.55406611 3369.36025196 4663.25896266 3362.64475277 4654 3353 C4653.34902344 3352.15050781 4652.69804687 3351.30101563 4652.02734375 3350.42578125 C4649.88350152 3347.86060586 4647.93564785 3346.43227455 4645.0625 3344.75 C4644.22847656 3344.24984375 4643.39445312 3343.7496875 4642.53515625 3343.234375 C4633.81936359 3338.99063004 4624.39926043 3341.2665186 4615.375 3343.25 C4613.8590625 3343.55744141 4613.8590625 3343.55744141 4612.3125 3343.87109375 C4606.66162355 3345.09470873 4602.72543747 3346.5430428 4598 3350 C4587.48293734 3353.93655418 4572.04020233 3355.78226177 4561.4375 3351.125 C4553.75442284 3346.42832441 4548.61498212 3338.88736989 4543.375 3331.75 C4532.57117373 3317.24572377 4518.33379869 3315.43300503 4501.43066406 3311.56835938 C4499.34007633 3311.07951966 4497.25875811 3310.55133644 4495.1796875 3310.015625 C4485.03706009 3307.424978 4476.22608221 3306.8966742 4466.23046875 3310.265625 C4455.321374 3313.85741101 4441.63974832 3312.81013334 4431.25 3308.0625 C4425.97686541 3305.24903841 4421.24728736 3301.65778876 4416.52832031 3298.01000977 C4407.77105054 3291.31735693 4398.76537424 3287.00718712 4387.56640625 3288.375 C4384.74149296 3289.06295453 4382.59727588 3290.14848873 4380.0625 3291.5625 C4374.71498901 3294.46398861 4369.99462128 3295.02181045 4364 3294 C4360.31103113 3292.03254994 4358.47289713 3289.31275092 4356.0625 3286 C4352.66235142 3281.3421434 4349.47814225 3278.48573915 4343.671875 3277.34765625 C4331.95427872 3276.23822426 4319.79932842 3281.99299449 4308.9753418 3285.86279297 C4307.88906494 3286.25096191 4306.80278809 3286.63913086 4305.68359375 3287.0390625 C4304.70962646 3287.39178223 4303.73565918 3287.74450195 4302.73217773 3288.10791016 C4291.39810456 3291.80862532 4279.98921994 3290.69530202 4269.2890625 3285.74609375 C4263.38801551 3282.71292254 4258.43736239 3279.04787187 4253.33984375 3274.828125 C4245.44500936 3268.65987376 4236.5281916 3266.72074333 4226.6875 3266.69140625 C4225.1002572 3266.66621734 4223.51301771 3266.6408198 4221.92578125 3266.61523438 C4219.47575998 3266.58676839 4217.02579662 3266.56270003 4214.57568359 3266.54370117 C4200.62538119 3266.41497703 4187.91295734 3264.67854363 4174.4375 3260.9375 C4164.91594495 3258.4395516 4155.09419186 3258.20855332 4145.30249023 3257.85913086 C4136.59782456 3257.47101771 4129.19256278 3255.92104344 4121 3253 C4119.10491675 3252.36883713 4117.20911221 3251.7398347 4115.3125 3251.11328125 C4112.63004065 3250.20672747 4109.94934095 3249.29521504 4107.26953125 3248.38085938 C4106.39683594 3248.08630859 4105.52414062 3247.79175781 4104.625 3247.48828125 C4103.85414062 3247.22571533 4103.08328125 3246.96314941 4102.2890625 3246.69262695 C4091.06247694 3243.29567482 4079.93249658 3244.25690786 4069.02734375 3248.03125 C4060.66770312 3250.706335 4054.01695413 3250.42626448 4046 3247 C4043.52745084 3245.59019573 4041.27878036 3243.95139404 4039 3242.25 C4031.96889758 3237.22432932 4024.71419334 3232.6474947 4017.3125 3228.1875 C4016.29220703 3227.56584961 4015.27191406 3226.94419922 4014.22070312 3226.30371094 C3998.89354931 3217.12609831 3984.53037037 3210.11078665 3966.5 3214.5625 C3959.99556461 3216.20945395 3954.03343426 3218.56272407 3947.94262695 3221.35058594 C3943.42524966 3223.41054103 3938.89310777 3225.22698727 3934.1875 3226.8125 C3933.06730469 3227.19019531 3931.94710937 3227.56789063 3930.79296875 3227.95703125 C3922.03970995 3230.36395205 3913.6281907 3231.34323115 3904.5625 3231.3125 C3903.61568359 3231.32861328 3902.66886719 3231.34472656 3901.69335938 3231.36132812 C3889.46190284 3231.3696319 3879.19604525 3227.50301396 3868.18563843 3222.50183105 C3843.01623533 3210.27878547 3843.01623533 3210.27878547 3816 3211 C3813.86784038 3211.85562737 3811.75531246 3212.75267868 3809.64013672 3213.64941406 C3796.22130385 3219.27367 3785.70814799 3219.16973029 3771.92260742 3214.80224609 C3762.11577434 3211.70249551 3756.86219002 3212.72773636 3747.41796875 3216.625 C3738.16372632 3220.34784953 3728.9084843 3223.12187427 3718.88671875 3223.1328125 C3717.72994629 3223.13434326 3716.57317383 3223.13587402 3715.38134766 3223.13745117 C3713.55289307 3223.13128784 3713.55289307 3223.13128784 3711.6875 3223.125 C3709.79717041 3223.12753784 3709.79717041 3223.12753784 3707.86865234 3223.13012695 C3701.89886226 3223.1159442 3696.0195174 3222.99285186 3690.08105469 3222.38598633 C3682.47561198 3221.61424083 3676.31935878 3222.59439021 3668.9375 3224.4375 C3647.92726333 3229.6796473 3647.92726333 3229.6796473 3638.8203125 3225.5625 C3636.07979056 3223.83946182 3633.57496358 3221.95808668 3631 3220 C3625.26657275 3216.16345291 3620.07933897 3214.95958046 3613.3125 3213.875 C3611.45350524 3213.56538078 3609.59538201 3213.2504715 3607.73828125 3212.9296875 C3606.92399658 3212.79804199 3606.10971191 3212.66639648 3605.27075195 3212.53076172 C3601.03159752 3211.53990894 3599.37122059 3210.54756752 3596.88671875 3206.8828125 C3595.77252262 3205.01191633 3594.68873719 3203.12719392 3593.61914062 3201.23046875 C3590.41540166 3195.88525347 3586.92427286 3193.51907336 3581.0625 3191.25 C3574.87738309 3190.50028886 3569.07310272 3191.16784786 3563 3192.375 C3557.19603604 3193.47981385 3551.43744681 3194.32285132 3545.5625 3194.9375 C3540.99864172 3195.42791821 3537.01239874 3196.19440138 3532.8125 3198.125 C3523.84910239 3202.11874165 3514.51817354 3200.48927039 3505.6015625 3197.13671875 C3500.17539557 3194.76582599 3496.68980175 3192.46926355 3494 3187 C3493.58010298 3184.36104458 3493.27394279 3181.83952579 3493.0625 3179.1875 C3492.42549069 3172.99318211 3491.53920775 3168.20471728 3488 3163 C3484.13100555 3160.62944807 3480.43170873 3160.24744569 3476 3161 C3471.82782797 3162.6388344 3467.95554032 3164.77519237 3464.16015625 3167.15234375 C3456.39800881 3171.99227098 3447.55860608 3172.36683968 3438.625 3172.3125 C3437.67890869 3172.30903564 3436.73281738 3172.30557129 3435.75805664 3172.30200195 C3423.61260095 3172.11906715 3411.77111584 3170.25177982 3400 3167.3125 C3390.85243955 3165.151199 3383.99119812 3164.41756829 3375.6875 3169.375 C3374.19283203 3170.33212891 3374.19283203 3170.33212891 3372.66796875 3171.30859375 C3365.12764857 3176.08891387 3356.60410934 3175.83214764 3348.02734375 3174.55859375 C3338.19353581 3172.23113735 3329.56308214 3167.38036675 3320.62451172 3162.80126953 C3304.12635817 3153.90414505 3304.12635817 3153.90414505 3286 3153 C3283.04930662 3154.41074571 3280.19134753 3155.91927427 3277.32104492 3157.48242188 C3271.43478471 3160.55865837 3266.49862095 3161.27619158 3260 3160 C3254.35377771 3158.07017179 3249.77747183 3154.87996765 3245 3151.375 C3238.38366676 3146.65789502 3232.43385279 3144.38939391 3224.25 3145.375 C3219.63734013 3146.46338042 3217.18241765 3147.91832575 3214.39453125 3151.7265625 C3212.06696874 3155.52107617 3209.89054782 3159.39388086 3207.80859375 3163.328125 C3205.68873077 3166.45984482 3204.52757771 3167.61737894 3201 3169 C3193.69279598 3170.00199661 3187.91587642 3168.27346849 3181.25 3165.4375 C3173.86307306 3162.14611532 3173.86307306 3162.14611532 3166 3163 C3164.11550652 3164.81201296 3163.16251663 3166.64753777 3162.07421875 3169.0078125 C3161.74035156 3169.72710938 3161.40648438 3170.44640625 3161.0625 3171.1875 C3160.76472656 3171.88230469 3160.46695313 3172.57710937 3160.16015625 3173.29296875 C3159 3175 3159 3175 3157.15234375 3175.796875 C3154.68525764 3176.02970345 3152.89893383 3175.67422813 3150.5 3175.0625 C3144.02191032 3173.66131319 3136.49827287 3172.33562348 3130.33984375 3175.265625 C3127.9610583 3177.02886497 3126.53875662 3178.63050603 3124.875 3181.0625 C3122.96699226 3183.83168961 3121.87827521 3185.08114986 3119 3187 C3114.10160194 3187.77132239 3109.66746025 3187.03640267 3105 3185.5 C3098.66019033 3183.44570508 3093.70725356 3182.7203756 3087.5703125 3185.62109375 C3083.69947576 3187.95002042 3081.27409405 3190.94730965 3078.5625 3194.5 C3073.77683569 3200.39802114 3070.08338769 3204.41041331 3062.23828125 3205.3203125 C3058.24773083 3205.48014763 3054.87445377 3205.27908099 3051.0625 3204.0625 C3047.31963468 3200.31963468 3045.79567841 3195.38703522 3044.14453125 3190.43359375 C3041.83923852 3183.83985254 3038.84904441 3179.89177663 3033 3176 C3025.31865449 3172.47938331 3016.40905026 3172.84153779 3008.11328125 3172.83203125 C3007.09324509 3172.82870285 3006.07320892 3172.82537445 3005.02226257 3172.82194519 C3002.87837166 3172.81690731 3000.73447299 3172.81453589 2998.59057617 3172.81469727 C2995.31220728 3172.8124998 2992.03416935 3172.79428083 2988.75585938 3172.77539062 C2986.66666781 3172.77245824 2984.57747466 3172.77047241 2982.48828125 3172.76953125 C2981.51111649 3172.76234573 2980.53395172 3172.75516022 2979.5271759 3172.74775696 C2974.86597382 3172.76343379 2971.25351319 3172.88369994 2967 3175 C2957.05744268 3176.42036533 2947.1100299 3169.67566075 2938.59375 3165.234375 C2927.63440472 3160.01878297 2911.97993201 3162.41724735 2900.98632812 3166.24609375 C2895.71030483 3168.2485962 2890.59091206 3170.60439874 2885.484375 3173 C2883.99170455 3173.67140264 2882.49681397 3174.33788632 2881 3175 C2880.19755859 3175.36988037 2879.39511719 3175.73976074 2878.56835938 3176.12084961 C2870.49739056 3179.49706425 2862.60518947 3179.56949446 2854 3179.5625 C2838.42689529 3179.46880066 2838.42689529 3179.46880066 2824 3184.75 C2819.10092816 3190.26145583 2818.26587418 3197.08158814 2817.359375 3204.12695312 C2816.52773178 3209.40585919 2814.90682942 3212.37222982 2811 3216 C2802.90406532 3220.43019861 2794.14318646 3219.13491045 2785.17773438 3218.79492188 C2778.13762259 3218.6404839 2773.67485072 3218.67370584 2768 3223 C2767.34128906 3223.44859375 2766.68257812 3223.8971875 2766.00390625 3224.359375 C2762.82084638 3227.43029455 2762.03764524 3229.36768753 2761.76953125 3233.87109375 C2761.78900424 3236.03136338 2761.87279198 3238.15991396 2762.04516602 3240.31347656 C2762.27824459 3243.85153319 2762.33862696 3245.56006832 2760.1328125 3248.42578125 C2755.40038548 3251.9187631 2750.71739102 3251.44258991 2745 3251 C2743.09022274 3250.53287881 2741.19259588 3250.01255726 2739.3125 3249.4375 C2733.63113157 3247.75891387 2729.43950478 3247.13416825 2723.9765625 3250.09765625 C2719.26525247 3253.33781008 2716.17699905 3257.1403748 2713.12890625 3261.94921875 C2708.02452483 3266.86628342 2701.77764838 3267.17831074 2694.953125 3267.1171875 C2691.06929105 3267.01760201 2687.19016265 3266.87244994 2683.30859375 3266.70703125 C2682.05691406 3266.67738281 2680.80523438 3266.64773437 2679.515625 3266.6171875 C2678.38415039 3266.57190918 2677.25267578 3266.52663086 2676.08691406 3266.47998047 C2672.00978401 3267.16681114 2670.59842305 3268.87375398 2668 3272 C2666.79144278 3274.03478479 2666.79144278 3274.03478479 2666 3276.0625 C2663.53639067 3281.26345304 2660.29115069 3283.59888788 2655 3285.6875 C2643.29416633 3289.69098215 2631.44949081 3288.50097339 2620.1875 3283.375 C2613.45560981 3280.47104737 2607.79654752 3280.6765796 2601 3283 C2589.22480922 3287.85682943 2581.61786096 3296.91621898 2573.47265625 3306.3515625 C2568.55897246 3311.85176027 2562.35189395 3314.89125037 2555.01171875 3315.50390625 C2553.57087051 3315.54851352 2552.12903271 3315.56660963 2550.6875 3315.5625 C2549.48673828 3315.5632251 2549.48673828 3315.5632251 2548.26171875 3315.56396484 C2539.58607794 3315.33694789 2531.37268127 3313.27978174 2522.96240234 3311.28662109 C2510.59114442 3308.3668585 2498.77072874 3307.07507443 2486.0703125 3306.80859375 C2485.0100309 3306.78411415 2485.0100309 3306.78411415 2483.92832947 3306.75914001 C2480.38182052 3306.67886692 2476.83768242 3306.62002318 2473.2902832 3306.60424805 C2465.27677715 3306.47305631 2459.18727057 3305.53829579 2452 3302 C2450.08813719 3301.25832908 2448.17249657 3300.52615403 2446.25 3299.8125 C2445.38890625 3299.48894531 2444.5278125 3299.16539062 2443.640625 3298.83203125 C2430.79290257 3294.78385835 2417.07362921 3297.14184083 2404.0625 3299 C2384.45875232 3301.75848813 2366.64016958 3303.14031 2349 3292.625 C2344.8193828 3290.18999603 2341.93200146 3289.15892203 2337.125 3290.12890625 C2331.49290045 3292.43765294 2327.66780533 3297.11178967 2323.9375 3301.75 C2320.14550205 3306.23786992 2316.63312132 3307.76631048 2310.875 3308.27734375 C2304.68808173 3308.45310847 2300.38045019 3308.32450581 2295 3305 C2292.62109375 3302.6953125 2292.62109375 3302.6953125 2290.4375 3300.125 C2289.65890625 3299.238125 2288.8803125 3298.35125 2288.078125 3297.4375 C2286.58765086 3295.68927469 2285.12738232 3293.91512396 2283.6875 3292.125 C2276.79977473 3286.67889165 2266.66965313 3284.66096329 2258 3285 C2252.66204983 3285.93883546 2247.57253788 3287.47582071 2242.4375 3289.1875 C2232.44079179 3291.5503583 2222.3145469 3289.23599622 2212.40429688 3287.421875 C2198.34789471 3284.9545192 2198.34789471 3284.9545192 2184.62890625 3287.83984375 C2181.34293831 3290.18020941 2179.91044863 3293.13059333 2179 3297 C2178.92553983 3301.1387447 2179.49620487 3305.04452854 2180.52734375 3309.046875 C2181.33751973 3312.39470965 2181.62191618 3315.59693059 2181 3319 C2177.24456187 3323.18463106 2173.54766994 3323.86084427 2168.11254883 3324.15771484 C2167.07122803 3324.17527832 2166.02990723 3324.1928418 2164.95703125 3324.2109375 C2163.22163086 3324.25347656 2163.22163086 3324.25347656 2161.45117188 3324.296875 C2159.04506919 3324.34853582 2156.63879836 3324.39292888 2154.23242188 3324.4296875 C2142.02695663 3324.75426497 2133.21758199 3327.44801385 2123.5625 3334.875 C2121.35215857 3337.88106434 2121.13178811 3340.3099329 2121 3344 C2122.10465647 3348.29588629 2125.41750485 3349.71330097 2129 3352 C2130.61370025 3355.22740051 2130.43900439 3358.50106946 2130 3362 C2126.85297212 3369.15233608 2120.05088631 3372.38508291 2113.08984375 3375.16015625 C2096.91470917 3380.53823513 2080.70679392 3381.41289306 2063.81713867 3381.53393555 C2063.13381973 3381.54406174 2062.45050079 3381.55418793 2061.74647522 3381.56462097 C2059.86642847 3381.59215904 2057.98617292 3381.6041728 2056.10595703 3381.61523438 C2052.71828125 3382.03489929 2051.35146077 3382.56066649 2049 3385 C2048.09668531 3386.85899313 2048.09668531 3386.85899313 2047.69140625 3388.94921875 C2047.50481445 3389.71145752 2047.31822266 3390.47369629 2047.12597656 3391.2590332 C2046.9400293 3392.06042725 2046.75408203 3392.86182129 2046.5625 3393.6875 C2042.61763271 3408.96404388 2042.61763271 3408.96404388 2035.375 3413.6875 C2030.63776107 3416.08004492 2025.62403859 3417.18348882 2020.5 3418.4375 C2009.40308582 3421.17257237 2003.37568397 3425.16590341 1995.96484375 3433.8828125 C1991.13711317 3439.08486016 1985.05096314 3442.17983588 1978 3443 C1972.47524886 3443.20037957 1967.74389499 3442.68622985 1962.3125 3441.5 C1949.19234694 3438.70053648 1949.19234694 3438.70053648 1936.625 3442 C1933.15851177 3444.5599798 1930.52080902 3447.71621607 1927.76953125 3451.0078125 C1918.66459593 3461.25840193 1907.11769219 3462.37830887 1894.12304688 3463.171875 C1885.66771576 3463.78896583 1877.61849711 3465.38866549 1871 3471 C1862.16125137 3481.59858897 1858.07656527 3494.23246694 1854.0390625 3507.21484375 C1851.05043583 3516.52740445 1847.28882751 3526.15084567 1839 3532 C1832.41335356 3535.14312717 1826.73093932 3535.43651802 1819.5 3535.3125 C1817.91421143 3535.29993164 1817.91421143 3535.29993164 1816.29638672 3535.28710938 C1808.86541499 3535.17409079 1801.66842148 3534.50568335 1794.3203125 3533.45703125 C1777.71191336 3531.17093396 1760.89832608 3535.40236663 1747.31201172 3545.21972656 C1738.82873909 3551.89534373 1732.4362881 3560.42533986 1726 3569 C1717.98719182 3579.65766088 1706.90935765 3584.7585262 1694 3587 C1689.48204225 3587.27130948 1684.96275361 3587.27720161 1680.4375 3587.3125 C1679.22513672 3587.34150391 1678.01277344 3587.37050781 1676.76367188 3587.40039062 C1669.40544827 3587.45168119 1663.40687327 3586.58733885 1656.52026367 3583.95556641 C1650.2972158 3581.59607698 1644.82485766 3581.63428358 1638.50390625 3583.71875 C1634.67156774 3585.67975941 1632.18009881 3588.64102012 1629.28125 3591.76953125 C1624.58106228 3596.3650915 1619.34616666 3599.0384469 1612.765625 3599.3671875 C1607.48629634 3599.24745128 1603.4198533 3597.37763913 1598.75 3595.0625 C1591.5705564 3591.60992704 1585.18803163 3588.88547664 1577 3590 C1574.90547743 3590.8077173 1574.90547743 3590.8077173 1572.8125 3591.875 C1563.00486637 3596.64353911 1550.5596245 3597.35159767 1540 3594.9375 C1534.14128691 3593.63453699 1528.60887257 3593.90480284 1522.86328125 3595.6484375 C1519.32309816 3598.21636905 1518.74125054 3602.82317778 1517.44140625 3606.8359375 C1515.52590662 3611.04069278 1513.16718886 3613.16159847 1508.859375 3614.828125 C1498.52612221 3616.89477556 1488.70360275 3616.43338587 1478.875 3612.375 C1473.51278968 3610.31343308 1469.45280815 3610.10598581 1464.07421875 3612.06640625 C1457.89645944 3614.88986536 1453.59836757 3617.76463668 1449.6953125 3623.36328125 C1445.06840867 3627.83026905 1435.21080128 3626.39861166 1429.0168457 3626.61254883 C1426.96695879 3626.68643814 1424.91830225 3626.7775566 1422.86914062 3626.86914062 C1412.81660892 3627.2587548 1402.88070061 3626.97861377 1393.375 3623.375 C1385.46368774 3620.55469673 1377.93249569 3621.32871033 1370.34765625 3624.73046875 C1365.96642432 3627.09968735 1362.14981905 3630.06733439 1358.453125 3633.390625 C1351.32743565 3639.7501112 1344.15813863 3640.50612365 1335 3640.4375 C1333.58074219 3640.4674707 1333.58074219 3640.4674707 1332.1328125 3640.49804688 C1325.91953682 3640.49374405 1321.12325125 3639.66067039 1316 3636 C1313.828125 3633.7109375 1313.828125 3633.7109375 1312.25 3631.375 C1310.09655912 3628.22846745 1308.62822514 3626.32942601 1305 3625 C1295.12160315 3623.28721345 1284.72135138 3627.87694334 1276.51171875 3633.01953125 C1272.88212696 3635.88143333 1269.88278249 3639.22659132 1266.92944336 3642.7734375 C1262.68313377 3647.77988396 1258.39315266 3649.95026375 1252 3651 C1247.89913105 3651.22956224 1243.79417908 3651.19029252 1239.6875 3651.1875 C1238.44597168 3651.18669434 1237.20444336 3651.18588867 1235.92529297 3651.18505859 C1224.48027799 3651.13306956 1213.05587722 3650.66811276 1201.625 3650.125 C1200.74911224 3650.08579437 1199.87322449 3650.04658875 1198.97079468 3650.00619507 C1196.45131323 3649.89116929 1193.93274579 3649.76405517 1191.4140625 3649.6328125 C1190.29377907 3649.58265236 1190.29377907 3649.58265236 1189.15086365 3649.53147888 C1183.24252069 3649.1985689 1177.84419963 3648.67264618 1173.3125 3644.5625 C1169.42919299 3639.30861405 1167.78043192 3632.78227151 1166.0390625 3626.57421875 C1163.75966245 3618.52337778 1161.78338044 3613.99138282 1154.3125 3609.8125 C1144.30982593 3605.3375243 1133.73266438 3605.62741698 1122.97973633 3605.62939453 C1120.33543651 3605.62503779 1117.69283226 3605.58867577 1115.04882812 3605.55078125 C1101.65215723 3605.46133149 1090.09993853 3607.38288525 1077.8125 3613 C1071.90376967 3615.52737806 1065.98169667 3617.1015298 1059.6875 3618.375 C1058.87579346 3618.54257813 1058.06408691 3618.71015625 1057.2277832 3618.8828125 C1045.21981754 3621.14657931 1036.89789775 3619.75275449 1026.19921875 3613.953125 C1015.21783203 3607.75684252 1015.21783203 3607.75684252 1003 3608 C998.12175806 3609.93148666 993.52747707 3612.4040803 988.93945312 3614.93505859 C986.09450776 3616.49720005 983.20811077 3617.9718645 980.3125 3619.4375 C978.94544922 3620.14712891 978.94544922 3620.14712891 977.55078125 3620.87109375 C968.72458164 3624.77732911 957.08576851 3623.73889479 947.75 3622 C936.48686593 3619.93837654 928.58123407 3620.99019867 918.25 3625.58984375 C909.76607738 3629.27096883 900.11460429 3629.2664849 891 3630 C890.21753906 3630.06703125 889.43507813 3630.1340625 888.62890625 3630.203125 C876.98308399 3631.10368068 876.98308399 3631.10368068 872.375 3628.5390625 C870.38239506 3626.80285893 868.72580554 3624.99492868 867 3623 C864.14109501 3620.45939414 862.45256365 3619.61569952 858.625 3619.75 C857.43390625 3619.78867187 857.43390625 3619.78867187 856.21875 3619.828125 C853.88050825 3619.97401281 853.88050825 3619.97401281 851.125 3620.5 C848.19199174 3620.96928132 845.40378801 3621.20557106 842.4375 3621.3125 C841.52871094 3621.34988281 840.61992188 3621.38726563 839.68359375 3621.42578125 C835.94028043 3620.831864 834.52738981 3619.84277349 832 3617 C830.95651495 3613.91189348 830.478225 3610.78075903 830 3607.5625 C829.04864865 3601.18941672 828.40364781 3597.1433458 823 3593 C815.19063801 3590.39687934 808.47565998 3592.07335559 801.14453125 3595.3671875 C797.76410653 3597.12248878 794.58726084 3599.07911824 791.375 3601.125 C785.0939523 3605.10425058 779.30507633 3608.08278993 771.75 3607.9375 C764.36841611 3605.42105095 759.60376172 3599.72399795 754.47460938 3594.1328125 C747.54365695 3586.8991645 739.48717931 3583.91267186 729.5625 3583.625 C712.54943557 3583.51869492 695.85521848 3590.06117126 680.18359375 3596.08203125 C672.01243223 3598.95439782 663.9335452 3598.92290834 655.98828125 3595.28125 C653.84525526 3594.24201074 651.72014877 3593.172312 649.59741211 3592.09228516 C627.88645007 3581.26969584 599.71921263 3581.30760854 576.79296875 3587.92578125 C568.74126196 3590.76816811 561.39627608 3594.93341195 553.89550781 3598.96826172 C527.98153757 3612.69376241 499.58064228 3611.35868481 472 3603 C469.89271815 3602.2798857 467.78831189 3601.55127656 465.6875 3600.8125 C460.42626422 3599.01408831 455.54329418 3598.21108571 450 3598 C448.89398438 3597.94005859 448.89398438 3597.94005859 447.765625 3597.87890625 C439.52736921 3597.63059003 430.27756843 3598.1932492 424 3604 C421.46914869 3608.33860224 420.77461062 3612.17065772 420.0625 3617.125 C419.35548564 3621.79947509 418.67275619 3624.75933277 415 3628 C411.3035104 3630.48180389 407.59947319 3630.22513794 403.3125 3630.125 C402.57298096 3630.11742676 401.83346191 3630.10985352 401.0715332 3630.10205078 C397.91687791 3630.06942904 394.76274662 3630.013081 391.60839844 3629.95898438 C389.3014567 3629.92280452 386.99459894 3629.89862646 384.6875 3629.875 C383.62172729 3629.85010498 383.62172729 3629.85010498 382.53442383 3629.82470703 C378.85867143 3629.78832662 376.07480143 3629.86950362 373 3632 C369.4697236 3637.83381583 369.58410848 3645.06497251 369.40625 3651.66796875 C368.5386955 3658.78358406 364.78487312 3662.69170565 359.546875 3667.16796875 C353.0600028 3671.83413909 345.4921382 3674.0639123 337.5703125 3674.2109375 C336.52746094 3674.23929688 335.48460937 3674.26765625 334.41015625 3674.296875 C332.22803254 3674.34876855 330.04571518 3674.39309579 327.86328125 3674.4296875 C319.94735855 3674.55849463 319.94735855 3674.55849463 313 3678 C311.45800524 3680.33283398 310.21132969 3682.45068121 309 3684.9375 C306.18291362 3690.68507242 303.3980652 3694.43128919 297.14575195 3696.66137695 C292.2108646 3698.03805702 287.28808132 3698.41966518 282.1875 3698.625 C281.37724365 3698.66222168 280.5669873 3698.69944336 279.73217773 3698.73779297 C273.67698017 3698.99069988 267.62268547 3699.10032928 261.5625 3699.125 C260.76416748 3699.12967285 259.96583496 3699.1343457 259.14331055 3699.13916016 C255.58101927 3699.12917422 252.43082942 3698.9081478 249 3698 C239.94013125 3697.22258552 235.14155697 3699.21122174 228.125 3704.9375 C216.40163347 3714.43447051 203.74138624 3716.07525654 189 3716.8125 C188.00863037 3716.86559326 187.01726074 3716.91868652 185.99584961 3716.97338867 C180.92126298 3717.16542805 176.70008367 3717.20874185 172 3715 C170.29115995 3713.37660195 168.62553283 3711.70680947 167 3710 C153.23329113 3699.84583176 134.25421794 3699.83796676 117.8125 3699.6875 C116.63671387 3699.66977539 115.46092773 3699.65205078 114.24951172 3699.63378906 C97.26948644 3699.64808402 84.80575389 3705.63040553 71.0625 3715.0625 C56.83098599 3724.76977529 42.62047817 3728.82670385 25.3215332 3727.7512207 C16.29460266 3727.44126047 9.40214514 3729.91063441 0 3732 C0 2500.44 0 1268.88 0 0 Z " fill="#363636" transform="translate(0,0)"/>
<path d="M0 0 C1.97561337 1.27635022 3.95478275 2.54721333 5.9375 3.8125 C7.28134766 4.68841797 7.28134766 4.68841797 8.65234375 5.58203125 C14.06531517 8.85142996 19.86031818 8.68633138 26 8 C29.58104656 6.69425785 32.73629712 4.95112672 36 3 C41.62032308 -0.17575537 46.95437023 0.32277301 53.14453125 1.69921875 C62.6992705 4.58387067 71.42911671 9.02412166 80.26025391 13.63378906 C93.10583092 20.29635315 106.41291855 25.77406265 121 21.875 C124.72855529 20.67467194 127.5876121 19.01626023 130.8125 16.8125 C140.30914486 10.96841086 150.47712586 14.15050012 160.6875 16.4375 C161.64938232 16.66671143 162.61126465 16.89592285 163.60229492 17.13208008 C184.16133189 22.01751799 205.5110148 22.58518579 224.08984375 11.78515625 C229.03933342 9.03108378 233.34016123 7.95027847 239 9 C243.66200421 11.53369794 245.38265374 15.11243499 247 20 C247.6436623 23.38068049 247.89008445 26.78852681 248.171875 30.21484375 C248.6014988 34.53586778 249.2726892 37.57857631 252 41 C261.04766827 47.12141192 271.23254568 49.20969175 282 48 C285.4955979 46.90533663 288.84863675 45.58596316 292.25390625 44.23828125 C298.40520547 42.20495294 304.66034516 41.80717463 311.08007812 41.21044922 C313.73287848 40.91966668 316.32428681 40.41019197 318.9375 39.875 C327.73833151 38.22401194 335.22434215 38.02791599 343 43 C345.65006142 45.65006142 347.45314027 48.12262065 349.421875 51.28125 C349.92203125 52.0753125 350.4221875 52.869375 350.9375 53.6875 C351.37964844 54.43386719 351.82179688 55.18023438 352.27734375 55.94921875 C357.05920782 61.64191407 364.30077359 61.86282906 371.19140625 62.72851562 C378.60310228 63.79182346 384.50164379 66.52477436 390.375 71.1875 C396.66139284 76.13396449 403.25328707 75.80513589 411 75 C415.70595296 74.13176195 420.34511532 73.00511933 424.96972656 71.77880859 C433.69648737 69.54048219 441.74143315 69.64648618 450.62792969 70.75976562 C468.37961624 72.55758979 485.40539345 71.41563113 501.8125 64.3125 C512.02099462 59.92581693 518.26168368 60.41012585 528.8125 63.5 C542.63635354 67.54313302 552.15284014 66.14558651 565.21826172 60.73535156 C579.149845 54.98556685 591.277813 57.61559151 605 63 C611.40026648 65.70370115 617.76350001 68.49272199 624.08935547 71.36621094 C635.22770348 76.3825808 645.47273359 79.56918638 657.75 79.375 C658.69883057 79.36484863 659.64766113 79.35469727 660.62524414 79.34423828 C676.2989327 79.00313228 689.42372726 74.75932273 703.59375 68.3828125 C718.98897584 61.53670544 732.75229147 58.47658544 749 64 C766.8945757 71.22393161 784.1981169 83.20276149 799.77734375 94.49609375 C805.44286764 98.32953258 812.44311737 97.50843904 819 97 C821.31121933 96.40464654 823.60514069 95.73750882 825.875 95 C843.86815224 89.3708574 860.2052658 95.4604144 877.21191406 101.62524414 C878.42572754 102.06404907 878.42572754 102.06404907 879.6640625 102.51171875 C880.73841553 102.90556763 880.73841553 102.90556763 881.83447266 103.30737305 C886.43460975 104.77869085 890.85897655 105.17506681 895.671875 105.39453125 C909.83160436 106.11945309 923.31075072 106.98574133 937 111 C946.94651798 113.80891103 956.38667184 114.08414166 966.6875 113.9375 C984.84514614 113.83080986 998.48587385 115.23183753 1012.81713867 126.91943359 C1023.3870859 135.47640111 1034.38694317 139.14065449 1048 138 C1056.97509609 136.63481219 1065.47295435 133.10766335 1073.9074707 129.86914062 C1084.32030305 125.93646113 1093.92856443 123.19581003 1104.625 127.4375 C1108.64125503 129.94416497 1110.86679269 133.80481688 1113.32421875 137.7578125 C1115.61554779 140.82360008 1117.49445427 141.74907571 1121.2265625 142.37109375 C1127.37685569 142.54137874 1131.43993322 141.24036391 1136.7734375 138.19140625 C1142.53785476 135.10693737 1148.53723338 135.45506991 1154.75 137.0625 C1163.00718185 139.73577824 1169.747442 145.04611773 1176.625 150.1875 C1186.33042615 157.29473133 1197.77897142 161.4037668 1210 160 C1215.73531541 158.95023245 1221.46305319 157.84564894 1227 156 C1236.86693081 155.26160096 1245.58520673 156.69425945 1255.0625 159.3125 C1257.40724941 159.93473544 1259.75230062 160.55583472 1262.09765625 161.17578125 C1263.2357373 161.48281982 1264.37381836 161.7898584 1265.54638672 162.10620117 C1270.06451719 163.27549819 1274.61547158 164.26391945 1279.18237305 165.22314453 C1290.38336493 168.31139998 1297.73130672 178.66127527 1304.0625 187.75 C1308.50484691 194.00645273 1313.58164557 198.66731631 1321 201 C1323.69450203 201.21816683 1326.24616566 201.33315584 1328.9375 201.3125 C1330.0527002 201.30621582 1330.0527002 201.30621582 1331.19042969 201.29980469 C1343.52974327 201.14563364 1343.52974327 201.14563364 1354.19140625 196.0625 C1358.45269863 192.93320601 1363.06779048 192.28897105 1368.1875 191.25 C1369.17814453 191.02957031 1370.16878906 190.80914063 1371.18945312 190.58203125 C1381.52419443 188.39987604 1390.67121257 187.56761958 1399.95703125 193.18359375 C1404.02567892 196.01639972 1407.156139 199.23806227 1410.375 203 C1417.76610932 211.42890207 1428.12067608 217.09687281 1439.33984375 218.3828125 C1446.16904019 218.61749279 1450.58140471 218.22650433 1456 214 C1457.76458434 212.28024344 1459.47794693 210.52033385 1461.18359375 208.7421875 C1465.94000305 204.18012611 1471.49784297 201.16109947 1478 200 C1484.40421953 200.36790197 1489.06947286 202.11433257 1494.75 205 C1496.2223798 205.73234891 1497.69629081 206.46162914 1499.171875 207.1875 C1500.1323877 207.67283203 1500.1323877 207.67283203 1501.11230469 208.16796875 C1506.52269233 210.55268177 1512.24196093 211.00537458 1517.796875 208.98046875 C1522.87011752 205.84372002 1526.37518689 201.36726387 1530.2578125 196.89257812 C1536.78342095 189.61868193 1542.26606224 186.76030627 1552.03515625 186.08398438 C1552.97230469 186.03564453 1553.90945313 185.98730469 1554.875 185.9375 C1565.25243335 185.35457899 1574.1208424 184.48932628 1582 177.125 C1590.26071107 169.84361065 1596.87028716 166.06843635 1608.1328125 166.42578125 C1613.39032609 167.20644236 1618.14199384 168.8565453 1623.05102539 170.86450195 C1630.81157583 173.99715859 1636.84224497 173.05820678 1644.625 170.5625 C1660.29689259 165.67188317 1672.98395958 166.02654927 1688.0625 173.3125 C1692.86466836 175.83500932 1697.5097201 178.62686995 1702.140625 181.44921875 C1708.06694364 184.66335604 1713.1376248 185.35683651 1719.75 185.3125 C1720.55058838 185.31121094 1721.35117676 185.30992187 1722.17602539 185.30859375 C1727.41038536 185.22361175 1731.76843645 184.45847815 1736.7109375 182.68359375 C1743.43090517 180.67677747 1750.30386169 181.34677947 1756.5390625 184.453125 C1760.36201728 186.85612515 1763.90122987 189.61406505 1767.39599609 192.47021484 C1774.11483281 197.91674802 1779.53776793 198.84090105 1788 198 C1799.30085642 195.78232312 1805.78156239 191.41362597 1812.5625 182.3125 C1816.6831516 176.86170579 1819.98857295 174.47800429 1826.9375 173.375 C1831.6254204 173.559627 1835.62753509 175.23561898 1839.9375 176.9375 C1850.10734164 181.2283107 1850.10734164 181.2283107 1860.69921875 179.9296875 C1863.47837853 178.61462831 1863.47837853 178.61462831 1865.96875 177.12890625 C1872.9962781 174.5116954 1879.34722045 175.66813509 1886.02612305 178.69311523 C1886.80125244 179.06251221 1887.57638184 179.43190918 1888.375 179.8125 C1895.4825054 183.00025622 1902.29973471 185.58889293 1910 187 C1911.2375 187.226875 1912.475 187.45375 1913.75 187.6875 C1926.21033102 188.89577452 1938.72988637 187.76369304 1951.15551758 186.71166992 C1975.09807531 184.73972329 1975.09807531 184.73972329 1983.87890625 191.078125 C1987.66631609 194.31409081 1990.01599581 198.33043526 1992.5625 202.5625 C1996.72350242 209.75975566 1996.72350242 209.75975566 2003 215 C2006.24685822 215.33364183 2006.24685822 215.33364183 2009.6875 215 C2022.57194168 214.7187388 2029.32043459 220.49850203 2038.48535156 228.66650391 C2040.58315336 230.51340807 2042.74410774 232.26818018 2044.9375 234 C2045.91009766 234.7734375 2045.91009766 234.7734375 2046.90234375 235.5625 C2052.63766739 239.49285214 2058.02673963 240.7354431 2064.75 241.875 C2073.33560147 243.46767783 2080.03272066 245.78587808 2087.390625 250.546875 C2099.07002326 257.96586383 2109.58046713 258.79647118 2123.05859375 256.47265625 C2136.86565143 254.25399227 2147.15424966 258.98585605 2158.625 266.3125 C2159.5015625 266.85583984 2160.378125 267.39917969 2161.28125 267.95898438 C2170.05064564 273.46913134 2177.68283167 279.26087444 2184.4375 287.125 C2192.88371059 296.53737318 2201.5030539 300.33187314 2214.109375 301.21875 C2226.11674902 301.55075112 2237.96239102 299.46807346 2249.5 296.25 C2257.97812317 294.06957981 2264.31753029 295.67179078 2272.4375 298.5625 C2282.01785518 301.95394573 2289.11061985 301.78143554 2298.68359375 298.6953125 C2305.76926344 296.56841671 2309.64582273 298.12749431 2315.9375 301.5 C2316.54062012 301.82798584 2317.14374023 302.15597168 2317.76513672 302.49389648 C2322.87065012 305.17951556 2326.34027286 305.68307052 2332 305 C2332.268125 304.071875 2332.53625 303.14375 2332.8125 302.1875 C2333.92733616 299.19504504 2334.47682015 297.8438622 2337 296 C2341.38777723 294.37946024 2344.2165407 295.86525615 2348.33984375 297.64453125 C2357.40081321 302.261501 2363.36636698 308.78493683 2367.32421875 318.125 C2371.97188402 328.85976493 2379.15138056 335.43772678 2387.87451172 343.07421875 C2390.76507103 345.69318634 2393.46635468 348.47907941 2396.16040039 351.29833984 C2401.8258267 356.53895317 2409.49745666 357.65648107 2416.79199219 359.28125 C2421.63012673 360.43649175 2425.42699663 362.21336166 2429.75 364.75 C2445.56058553 373.0949742 2465.77061715 367.09080017 2481.9375 362.25 C2488.46277002 360.44191434 2495.2468649 359.37717338 2501.62890625 362.13671875 C2504.17493168 363.65477147 2506.58686296 365.27912432 2509 367 C2518.27052649 373.37837236 2527.94847026 375.95017299 2538.91796875 377.88671875 C2555.74585107 380.87627288 2567.45243274 386.37124927 2579.57617188 398.58789062 C2580.8098775 399.81144229 2582.09616754 400.98153564 2583.390625 402.140625 C2589.30724026 407.54645333 2593.48426864 413.89081541 2597.75219727 420.61767578 C2607.25279857 435.50083212 2623.1318147 444.14994244 2640.0078125 448.359375 C2643.71600174 449.15329541 2647.20866251 449.84064431 2651 450 C2652.09699219 450.0515625 2653.19398437 450.103125 2654.32421875 450.15625 C2669.94122765 450.54145885 2681.57510069 446.65965281 2695.43359375 440.05859375 C2702.68874099 436.70404729 2708.92340052 435.79244506 2716.8125 435.6875 C2725.78202879 435.43414585 2733.68629926 433.86208538 2742.21484375 431.15625 C2749.2630212 429.00324636 2755.90138944 428.82683174 2763.21484375 428.796875 C2764.30277725 428.79117493 2765.39071075 428.78547485 2766.51161194 428.77960205 C2768.81380244 428.77017186 2771.11600631 428.76362596 2773.41821289 428.75976562 C2776.89429196 428.7501199 2780.36976413 428.71910169 2783.84570312 428.6875 C2800.41528371 428.60573926 2814.48842713 430.32502121 2830.125 436.125 C2832.08488031 436.83884675 2834.04578402 437.54989141 2836.0078125 438.2578125 C2836.84973145 438.5686377 2837.69165039 438.87946289 2838.55908203 439.19970703 C2847.77283091 442.22057809 2855.83347606 441.55470202 2864.9375 438.5 C2876.90283774 434.59068095 2892.35967881 433.34805214 2904 439 C2907.94265709 441.17826358 2911.5823303 443.70281195 2915.25 446.3125 C2920.57634271 449.3561244 2927.6083034 448.69461946 2933.44140625 447.5 C2940.82489179 446.05712038 2949.22089648 445.63630277 2955.859375 449.52734375 C2957.55859001 450.69632926 2959.22992461 451.90582285 2960.890625 453.12890625 C2967.75233961 458.04068701 2973.49211643 460.7065626 2981.875 462.0625 C2991.72213318 463.65812611 2999.41852539 467.0153217 3008 472 C3008.92401611 472.53560547 3008.92401611 472.53560547 3009.86669922 473.08203125 C3011.68234961 474.13736305 3013.4974362 475.19365974 3015.3125 476.25 C3034.33093359 487.28806465 3051.13593083 486.03120125 3071.65332031 480.62841797 C3073.62152402 480.10135218 3075.58828279 479.56889467 3077.5546875 479.03515625 C3089.33658224 475.89435938 3100.06728134 475.21981699 3111.8840332 478.52734375 C3114.05745242 479.01283349 3115.97118848 479.12928614 3118.1953125 479.1328125 C3118.98856934 479.13474609 3119.78182617 479.13667969 3120.59912109 479.13867188 C3121.43266113 479.13416016 3122.26620117 479.12964844 3123.125 479.125 C3124.41204834 479.12209961 3124.41204834 479.12209961 3125.72509766 479.11914062 C3130.74328157 479.08484129 3135.64375968 478.82187928 3140.62890625 478.234375 C3157.37869728 476.57871197 3171.51984234 480.14113536 3184.75 490.625 C3187.0641532 492.53034381 3189.36091824 494.45379254 3191.63964844 496.40136719 C3204.82975329 507.62870241 3222.79352497 520.46671517 3241.08203125 519.30078125 C3245.4530954 518.61529869 3247.99887383 517.37297303 3250.640625 513.75 C3251.49914063 512.450625 3251.49914063 512.450625 3252.375 511.125 C3256.12640543 505.50199623 3259.67980576 502.28686637 3266.203125 500.34375 C3277.45294284 498.40669527 3292.01588446 504.04153616 3302 509 C3306.74447756 512.37450967 3309.36404277 515.87626369 3311.9375 521 C3315.63169034 527.86177903 3318.63387236 531.51796888 3326.19921875 534.0859375 C3340.01463834 537.40845362 3351.54580515 534.30744366 3363.90063477 528.0078125 C3376.79267935 521.43510364 3389.80942984 516.76038243 3404.375 521.375 C3410.03271388 523.70169299 3415.08636809 527.04120955 3420.21142578 530.3449707 C3437.54614989 541.5047985 3456.21000064 540.74520806 3475.97607422 536.53564453 C3479.78441928 535.52774235 3483.16521437 533.7343226 3486.6640625 531.96875 C3490.73152758 530.2819083 3493.89903257 530.52588735 3498 532 C3503.12705124 534.63927521 3507.71398611 538.03046621 3512.3203125 541.4765625 C3526.01834649 551.66411302 3539.60681437 557.41421835 3556.875 557.3125 C3557.84373047 557.30831055 3558.81246094 557.30412109 3559.81054688 557.29980469 C3569.46100814 557.14708695 3577.16811385 555.95103928 3585 550 C3587.05776222 547.74065826 3588.87530868 545.33349731 3590.6875 542.875 C3595.6402027 536.23986486 3595.6402027 536.23986486 3599 534 C3603.0106634 534.09115144 3605.34626564 535.10342505 3608.4375 537.5 C3611.89219738 540.12343466 3614.57360797 541 3619 541 C3624.31870633 539.10046203 3626.34376137 534.66501909 3629 530 C3632.53964837 523.78349256 3634.88755482 520.17498434 3642.0625 518.125 C3651.08308513 517.83863222 3659.48737567 521.39746769 3667.69921875 524.81640625 C3671.68601712 526.24599194 3675.86549612 527.08122136 3680 528 C3680 548.79 3680 569.58 3680 591 C3672.88673115 590.28867311 3668.30020837 589.75030289 3662.125 587 C3656.45443546 584.56647838 3651.83624527 582.85439068 3645.625 582.75 C3644.25214844 582.71132812 3644.25214844 582.71132812 3642.8515625 582.671875 C3639.216852 583.09011566 3637.06249513 583.97891786 3634 586 C3632.4061969 588.33398568 3631.12742938 590.44037229 3629.875 592.9375 C3624.60288582 603.13237139 3624.60288582 603.13237139 3618.4375 605.1875 C3613.15786314 605.69173498 3609.65440049 602.50982381 3605.61328125 599.46875 C3603.13349064 597.80043907 3603.13349064 597.80043907 3600.48046875 597.96875 C3595.1825649 600.17134309 3592.15409828 605.03617641 3588.8125 609.5 C3583.12599422 616.53231215 3576.96077695 619.93545556 3568 621 C3543.62197002 622.41436587 3526.46958483 616.84915332 3507.32446289 601.76928711 C3502.07931477 597.72866152 3496.98319326 595 3490.1875 595 C3486.77658648 595.58831648 3484.02443897 596.89859699 3480.9375 598.4375 C3467.818094 604.64723253 3446.79591529 605.64817763 3432.75 601.6875 C3426.76316315 599.31503389 3421.54505037 595.57602388 3416.21484375 592.01513672 C3405.36480892 584.81674356 3395.82602631 582.2963422 3382.80078125 584.5546875 C3372.30074806 587.1641632 3362.77412338 592.18248895 3353.15966797 597.03198242 C3345.34615217 600.534197 3334.18011574 600.29839265 3325.9921875 598.24609375 C3323.8075385 597.30188105 3321.95367369 596.35543956 3320 595 C3319.18917969 594.44828125 3318.37835938 593.8965625 3317.54296875 593.328125 C3313.84900611 589.94624829 3311.87622492 585.88659567 3309.5703125 581.48828125 C3304.13635639 571.76538121 3292.71297797 568.98424377 3282.55078125 565.98046875 C3273.28547741 563.62378868 3266.62670089 563.30493975 3258.16796875 568.26953125 C3254.88087074 570.89328696 3252.85664532 574.11698832 3250.703125 577.6953125 C3248.29562154 580.95317269 3245.77441068 582.65324017 3241.78125 583.43359375 C3234.3558765 583.44630843 3227.95613328 581.47329183 3221 579 C3219.68128906 578.566875 3219.68128906 578.566875 3218.3359375 578.125 C3208.97419965 574.7963821 3201.74395928 568.4569584 3194.18457031 562.20043945 C3178.80302039 549.50099716 3165.05237453 541.1004955 3144.5 542.375 C3143.18213501 542.44509277 3143.18213501 542.44509277 3141.83764648 542.51660156 C3137.82159341 542.73713943 3133.81878648 542.99868698 3129.81640625 543.3984375 C3123.73420947 543.9680501 3118.67877976 544.15096552 3112.75 542.5625 C3095.38968258 538.08580798 3079.69434642 542.28962973 3062.8581543 547.24389648 C3041.71549699 552.83702963 3025.04289173 546.2896279 3006.98632812 535.83398438 C3006.02629883 535.27420898 3006.02629883 535.27420898 3005.046875 534.703125 C3004.11560791 534.1620813 3004.11560791 534.1620813 3003.16552734 533.61010742 C3001.48647321 532.6277211 2999.81707803 531.62887848 2998.1484375 530.62890625 C2993.01832648 527.97474211 2987.88375109 526.91955944 2982.20361328 526.06323242 C2974.28046541 524.83225655 2968.62205178 522.64548658 2962 518 C2960.19605262 516.88191497 2958.38354916 515.77750928 2956.5625 514.6875 C2955.75941406 514.19636719 2954.95632813 513.70523438 2954.12890625 513.19921875 C2950.20571236 510.98927284 2947.05473192 510.86486331 2942.625 510.875 C2940.94277344 510.87113281 2940.94277344 510.87113281 2939.2265625 510.8671875 C2936.3395128 510.9860249 2933.8165537 511.41247049 2931 512 C2923.36722271 512.63433163 2918.2836474 512.47105681 2912 508 C2900.52078585 499.93486247 2887.76924906 498.35591056 2874 500 C2870.4521057 500.80808363 2867.06642148 501.99313819 2863.63793945 503.19873047 C2851.27076045 507.45427101 2840.79763502 504.20996818 2829 500 C2827.05986458 499.31291897 2825.11880832 498.62960665 2823.17333984 497.95776367 C2821.44013233 497.35675771 2819.71388067 496.73579479 2817.98828125 496.11328125 C2805.72518223 492.4113351 2793.07496007 492.62745039 2780.39038086 492.62939453 C2777.20437052 492.62502315 2774.01975083 492.5886047 2770.83398438 492.55078125 C2758.84331722 492.48517236 2748.47245728 493.46540481 2737 497 C2729.98749833 498.83928086 2723.3337189 499.36594907 2716.10546875 499.56640625 C2706.59835245 499.92428461 2699.24625008 502.0915682 2690.8125 506.4375 C2673.04804156 515.13926981 2654.033482 516.73075818 2635 511 C2618.05379339 505.12158271 2605.56925277 497.58905906 2595.9375 482.5 C2584.05549561 464.54368746 2568.76527335 448.06775824 2546.9050293 443.32910156 C2543.6703335 442.7509709 2540.4306688 442.21586934 2537.1875 441.6875 C2523.88307797 439.32133083 2513.81327149 435.06149816 2502.76953125 427.1640625 C2497.37907152 423.61802056 2490.12089848 424.41892407 2484.04443359 425.55029297 C2481.07167121 426.2857047 2478.13015257 427.08981432 2475.1875 427.9375 C2461.11961725 431.85686488 2443.3711918 436.36052003 2429.60498047 429.33911133 C2428.32636807 428.61287121 2427.05318689 427.87698481 2425.78564453 427.1315918 C2420.94435532 424.3063653 2416.48965556 422.94574515 2411 421.875 C2404.311543 420.49271889 2399.84384578 418.8826742 2395 414 C2394.04843264 413.06354233 2393.09658436 412.12737007 2392.14453125 411.19140625 C2390.0434905 409.11046327 2387.96644712 407.00824819 2385.8984375 404.89453125 C2383.57691904 402.54196835 2381.16567253 400.36722711 2378.625 398.25 C2372.21849481 392.70033193 2368.66426745 386.43623003 2365.0625 378.875 C2362.21822585 372.97009066 2359.76726519 368.45791536 2354 365 C2353.2884375 364.52175781 2352.576875 364.04351563 2351.84375 363.55078125 C2346.7661853 360.37730331 2342.95835812 358.70902241 2337 360 C2335.30599381 361.94337766 2334.16770937 363.85282793 2333.0078125 366.15234375 C2332 368 2332 368 2330 369 C2324.26427702 369.50547375 2321.02447588 368.31308869 2316.0625 365.5 C2310.69739523 362.63625612 2307.10018023 360.96607115 2301 362 C2299.57668256 362.480741 2298.16024222 362.98215705 2296.75 363.5 C2286.85393561 367.01259623 2278.2197183 364.82854768 2268.73828125 361.19140625 C2260.1505021 358.45444424 2253.59040566 359.13892266 2244.9375 361.375 C2229.15172908 365.30793677 2210.65363924 368.54498581 2195.5078125 360.7109375 C2189.83756594 357.14078226 2184.90011529 352.66665071 2180.74194336 347.40942383 C2176.98735537 342.75282129 2173.01983843 339.67375895 2167.9375 336.5625 C2167.19306641 336.09585938 2166.44863281 335.62921875 2165.68164062 335.1484375 C2164.17340995 334.20498558 2162.66220903 333.26626389 2161.14794922 332.33251953 C2159.18889375 331.11718369 2157.2498941 329.87655696 2155.31640625 328.62109375 C2141.77605372 319.96100962 2132.71684214 319.01494847 2117.0234375 321.5390625 C2104.67391879 323.42180566 2094.8806744 319.26180972 2084.4375 313 C2077.88635149 309.09438571 2071.95674738 306.95619397 2064.4375 305.6875 C2052.58184674 303.67939086 2046.11331987 299.3098505 2037.17504883 291.4597168 C2028.0347536 283.43996561 2021.58021756 279.86283796 2009.3359375 279.5703125 C2004.77930343 279.37912506 2001.5793015 279.08183926 1998 276 C1995.97417702 273.32097372 1994.23340632 270.49944409 1992.5 267.625 C1985.8984978 256.76077201 1985.8984978 256.76077201 1975.16040039 250.4296875 C1967.04576618 248.81574737 1958.21848338 250.24206633 1950.0625 251 C1926.63576482 252.98195435 1907.11399891 252.42864817 1885.25390625 242.7890625 C1880.19009259 240.61555344 1875.56564713 238.78531494 1870 240 C1868.04716062 240.81848964 1866.11061894 241.67642975 1864.1875 242.5625 C1855.59563801 246.31674681 1849.37848743 244.9923781 1840.87207031 241.77270508 C1839.48906086 241.2283798 1838.11280556 240.66646734 1836.74511719 240.0847168 C1831.19773793 237.78582166 1826.700212 236.99291217 1820.87890625 239.1640625 C1817.63426173 241.23323879 1815.45146372 243.46661091 1812.9375 246.375 C1803.53625371 257.15747205 1803.53625371 257.15747205 1798.5 259.25 C1797.7678125 259.56453125 1797.035625 259.8790625 1796.28125 260.203125 C1789.13305069 262.70009873 1779.90773219 263.75138535 1772.875 260.5 C1769.67749813 258.64637573 1766.91152551 256.34574143 1764.0625 254 C1757.32760977 248.48870052 1751.41683193 245.32198655 1742.5703125 245.66015625 C1739.90394324 246.01270051 1737.55969729 246.68199276 1735 247.5 C1725.32692233 250.37577985 1712.8595594 250.92811671 1703.61328125 246.47265625 C1695.01754312 241.62872012 1695.01754312 241.62872012 1690.97900391 239.29711914 C1678.57890745 232.2183007 1666.29149385 228.68935828 1652.1418457 232.33520508 C1647.8938477 233.50851221 1643.68229851 234.77990371 1639.48828125 236.1328125 C1632.20009229 237.94465791 1627.14269553 236.57792705 1620.375 234 C1610.99873451 230.68819101 1602.28929876 228.73538458 1592.8125 232.9375 C1589.07692332 235.04629328 1586.16111801 237.61004322 1583.0625 240.5625 C1574.80870868 248.19503821 1566.79582306 249.13461166 1555.9375 249.9375 C1545.41867377 250.7763288 1538.70745365 251.88548859 1531.22265625 259.81640625 C1530.54710693 260.52780762 1529.87155762 261.23920898 1529.17553711 261.97216797 C1526.6223857 264.73050775 1524.1327686 267.54223241 1521.67236328 270.38354492 C1518.5418593 273.4093941 1515.68998459 274.31058035 1511.3828125 274.40234375 C1505.48551327 274.28015915 1501.05977082 272.20296675 1495.875 269.5625 C1486.09105632 264.56389854 1486.09105632 264.56389854 1475.3125 264.56640625 C1468.71582092 267.40788119 1463.23843703 270.84713143 1458.078125 275.87109375 C1453.12452957 280.63645255 1448.98823687 282.93923272 1442 283 C1428.55406611 281.36025196 1417.25896266 274.64475277 1408 265 C1407.34902344 264.15050781 1406.69804687 263.30101563 1406.02734375 262.42578125 C1403.88350152 259.86060586 1401.93564785 258.43227455 1399.0625 256.75 C1398.22847656 256.24984375 1397.39445312 255.7496875 1396.53515625 255.234375 C1387.81936359 250.99063004 1378.39926043 253.2665186 1369.375 255.25 C1368.364375 255.45496094 1367.35375 255.65992187 1366.3125 255.87109375 C1360.66162355 257.09470873 1356.72543747 258.5430428 1352 262 C1341.48293734 265.93655418 1326.04020233 267.78226177 1315.4375 263.125 C1307.75442284 258.42832441 1302.61498212 250.88736989 1297.375 243.75 C1286.57117373 229.24572377 1272.33379869 227.43300503 1255.43066406 223.56835938 C1253.34007633 223.07951966 1251.25875811 222.55133644 1249.1796875 222.015625 C1239.03706009 219.424978 1230.22608221 218.8966742 1220.23046875 222.265625 C1209.321374 225.85741101 1195.63974832 224.81013334 1185.25 220.0625 C1179.97686541 217.24903841 1175.24728736 213.65778876 1170.52832031 210.01000977 C1161.77105054 203.31735693 1152.76537424 199.00718712 1141.56640625 200.375 C1138.74149296 201.06295453 1136.59727588 202.14848873 1134.0625 203.5625 C1128.71498901 206.46398861 1123.99462128 207.02181045 1118 206 C1114.31103113 204.03254994 1112.47289713 201.31275092 1110.0625 198 C1106.66235142 193.3421434 1103.47814225 190.48573915 1097.671875 189.34765625 C1085.95427872 188.23822426 1073.79932842 193.99299449 1062.9753418 197.86279297 C1061.88906494 198.25096191 1060.80278809 198.63913086 1059.68359375 199.0390625 C1058.70962646 199.39178223 1057.73565918 199.74450195 1056.73217773 200.10791016 C1045.39810456 203.80862532 1033.98921994 202.69530202 1023.2890625 197.74609375 C1017.38801551 194.71292254 1012.43736239 191.04787187 1007.33984375 186.828125 C999.44500936 180.65987376 990.5281916 178.72074333 980.6875 178.69140625 C979.1002572 178.66621734 977.51301771 178.6408198 975.92578125 178.61523438 C973.47575998 178.58676839 971.02579662 178.56270003 968.57568359 178.54370117 C954.62538119 178.41497703 941.91295734 176.67854363 928.4375 172.9375 C918.91594495 170.4395516 909.09419186 170.20855332 899.30249023 169.85913086 C890.59782456 169.47101771 883.19256278 167.92104344 875 165 C873.10491675 164.36883713 871.20911221 163.7398347 869.3125 163.11328125 C866.63004065 162.20672747 863.94934095 161.29521504 861.26953125 160.38085938 C860.39683594 160.08630859 859.52414062 159.79175781 858.625 159.48828125 C857.85414062 159.22571533 857.08328125 158.96314941 856.2890625 158.69262695 C845.06247694 155.29567482 833.93249658 156.25690786 823.02734375 160.03125 C814.66770312 162.706335 808.01695413 162.42626448 800 159 C797.52745084 157.59019573 795.27878036 155.95139404 793 154.25 C785.96889758 149.22432932 778.71419334 144.6474947 771.3125 140.1875 C770.29220703 139.56584961 769.27191406 138.94419922 768.22070312 138.30371094 C752.89354931 129.12609831 738.53037037 122.11078665 720.5 126.5625 C713.99556461 128.20945395 708.03343426 130.56272407 701.94262695 133.35058594 C697.42524966 135.41054103 692.89310777 137.22698727 688.1875 138.8125 C686.50720703 139.37904297 686.50720703 139.37904297 684.79296875 139.95703125 C676.03970995 142.36395205 667.6281907 143.34323115 658.5625 143.3125 C657.61568359 143.32861328 656.66886719 143.34472656 655.69335938 143.36132812 C643.46190284 143.3696319 633.19604525 139.50301396 622.18563843 134.50183105 C597.01623533 122.27878547 597.01623533 122.27878547 570 123 C567.86784038 123.85562737 565.75531246 124.75267868 563.64013672 125.64941406 C550.22130385 131.27367 539.70814799 131.16973029 525.92260742 126.80224609 C516.11577434 123.70249551 510.86219002 124.72773636 501.41796875 128.625 C492.16372632 132.34784953 482.9084843 135.12187427 472.88671875 135.1328125 C471.72994629 135.13434326 470.57317383 135.13587402 469.38134766 135.13745117 C467.55289307 135.13128784 467.55289307 135.13128784 465.6875 135.125 C463.79717041 135.12753784 463.79717041 135.12753784 461.86865234 135.13012695 C455.89886226 135.1159442 450.0195174 134.99285186 444.08105469 134.38598633 C436.47561198 133.61424083 430.31935878 134.59439021 422.9375 136.4375 C401.92726333 141.6796473 401.92726333 141.6796473 392.8203125 137.5625 C390.07979056 135.83946182 387.57496358 133.95808668 385 132 C379.26657275 128.16345291 374.07933897 126.95958046 367.3125 125.875 C365.45350524 125.56538078 363.59538201 125.2504715 361.73828125 124.9296875 C360.92399658 124.79804199 360.10971191 124.66639648 359.27075195 124.53076172 C355.03159752 123.53990894 353.37122059 122.54756752 350.88671875 118.8828125 C349.77252262 117.01191633 348.68873719 115.12719392 347.61914062 113.23046875 C344.41540166 107.88525347 340.92427286 105.51907336 335.0625 103.25 C328.87738309 102.50028886 323.07310272 103.16784786 317 104.375 C311.19603604 105.47981385 305.43744681 106.32285132 299.5625 106.9375 C294.99864172 107.42791821 291.01239874 108.19440138 286.8125 110.125 C277.84910239 114.11874165 268.51817354 112.48927039 259.6015625 109.13671875 C254.17539557 106.76582599 250.68980175 104.46926355 248 99 C247.58010298 96.36104458 247.27394279 93.83952579 247.0625 91.1875 C246.42549069 84.99318211 245.53920775 80.20471728 242 75 C238.13100555 72.62944807 234.43170873 72.24744569 230 73 C225.82782797 74.6388344 221.95554032 76.77519237 218.16015625 79.15234375 C210.39800881 83.99227098 201.55860608 84.36683968 192.625 84.3125 C191.67890869 84.30903564 190.73281738 84.30557129 189.75805664 84.30200195 C177.61260095 84.11906715 165.77111584 82.25177982 154 79.3125 C144.85243955 77.151199 137.99119812 76.41756829 129.6875 81.375 C128.69105469 82.01308594 127.69460937 82.65117187 126.66796875 83.30859375 C119.12764857 88.08891387 110.60410934 87.83214764 102.02734375 86.55859375 C92.19353581 84.23113735 83.56308214 79.38036675 74.62451172 74.80126953 C58.12635817 65.90414505 58.12635817 65.90414505 40 65 C37.04930662 66.41074571 34.19134753 67.91927427 31.32104492 69.48242188 C25.43478471 72.55865837 20.49862095 73.27619158 14 72 C8.35377771 70.07017179 3.77747183 66.87996765 -1 63.375 C-7.61633324 58.65789502 -13.56614721 56.38939391 -21.75 57.375 C-26.36265987 58.46338042 -28.81758235 59.91832575 -31.60546875 63.7265625 C-33.93303126 67.52107617 -36.10945218 71.39388086 -38.19140625 75.328125 C-40.31126923 78.45984482 -41.47242229 79.61737894 -45 81 C-52.30720402 82.00199661 -58.08412358 80.27346849 -64.75 77.4375 C-72.13692694 74.14611532 -72.13692694 74.14611532 -80 75 C-81.88449348 76.81201296 -82.83748337 78.64753777 -83.92578125 81.0078125 C-84.25964844 81.72710938 -84.59351562 82.44640625 -84.9375 83.1875 C-85.38416016 84.22970703 -85.38416016 84.22970703 -85.83984375 85.29296875 C-87 87 -87 87 -88.84765625 87.796875 C-91.31474236 88.02970345 -93.10106617 87.67422813 -95.5 87.0625 C-101.97808968 85.66131319 -109.50172713 84.33562348 -115.66015625 87.265625 C-118.0389417 89.02886497 -119.46124338 90.63050603 -121.125 93.0625 C-123.03300774 95.83168961 -124.12172479 97.08114986 -127 99 C-131.89839806 99.77132239 -136.33253975 99.03640267 -141 97.5 C-147.33980967 95.44570508 -152.29274644 94.7203756 -158.4296875 97.62109375 C-162.30052424 99.95002042 -164.72590595 102.94730965 -167.4375 106.5 C-172.22316431 112.39802114 -175.91661231 116.41041331 -183.76171875 117.3203125 C-187.75226917 117.48014763 -191.12554623 117.27908099 -194.9375 116.0625 C-198.68036532 112.31963468 -200.20432159 107.38703522 -201.85546875 102.43359375 C-204.16076148 95.83985254 -207.15095559 91.89177663 -213 88 C-220.68134551 84.47938331 -229.59094974 84.84153779 -237.88671875 84.83203125 C-238.90675491 84.82870285 -239.92679108 84.82537445 -240.97773743 84.82194519 C-243.12162834 84.81690731 -245.26552701 84.81453589 -247.40942383 84.81469727 C-250.68779272 84.8124998 -253.96583065 84.79428083 -257.24414062 84.77539062 C-259.33333219 84.77245824 -261.42252534 84.77047241 -263.51171875 84.76953125 C-264.48888351 84.76234573 -265.46604828 84.75516022 -266.4728241 84.74775696 C-271.13402618 84.76343379 -274.74648681 84.88369994 -279 87 C-288.94255732 88.42036533 -298.8899701 81.67566075 -307.40625 77.234375 C-318.36559528 72.01878297 -334.02006799 74.41724735 -345.01367188 78.24609375 C-350.28969517 80.2485962 -355.40908794 82.60439874 -360.515625 85 C-362.00829545 85.67140264 -363.50318603 86.33788632 -365 87 C-365.80244141 87.36988037 -366.60488281 87.73976074 -367.43164062 88.12084961 C-375.50260944 91.49706425 -383.39481053 91.56949446 -392 91.5625 C-407.57310471 91.46880066 -407.57310471 91.46880066 -422 96.75 C-426.89907184 102.26145583 -427.73412582 109.08158814 -428.640625 116.12695312 C-429.47226822 121.40585919 -431.09317058 124.37222982 -435 128 C-443.09593468 132.43019861 -451.85681354 131.13491045 -460.82226562 130.79492188 C-467.86237741 130.6404839 -472.32514928 130.67370584 -478 135 C-478.65871094 135.44859375 -479.31742188 135.8971875 -479.99609375 136.359375 C-483.17915362 139.43029455 -483.96235476 141.36768753 -484.23046875 145.87109375 C-484.21099576 148.03136338 -484.12720802 150.15991396 -483.95483398 152.31347656 C-483.72175541 155.85153319 -483.66137304 157.56006832 -485.8671875 160.42578125 C-490.59961452 163.9187631 -495.28260898 163.44258991 -501 163 C-502.90977726 162.53287881 -504.80740412 162.01255726 -506.6875 161.4375 C-512.36886843 159.75891387 -516.56049522 159.13416825 -522.0234375 162.09765625 C-526.73474753 165.33781008 -529.82300095 169.1403748 -532.87109375 173.94921875 C-537.97547517 178.86628342 -544.22235162 179.17831074 -551.046875 179.1171875 C-554.93070895 179.01760201 -558.80983735 178.87244994 -562.69140625 178.70703125 C-563.94308594 178.67738281 -565.19476562 178.64773437 -566.484375 178.6171875 C-567.61584961 178.57190918 -568.74732422 178.52663086 -569.91308594 178.47998047 C-573.99021599 179.16681114 -575.40157695 180.87375398 -578 184 C-579.20855722 186.03478479 -579.20855722 186.03478479 -580 188.0625 C-582.46360933 193.26345304 -585.70884931 195.59888788 -591 197.6875 C-602.70583367 201.69098215 -614.55050919 200.50097339 -625.8125 195.375 C-632.54439019 192.47104737 -638.20345248 192.6765796 -645 195 C-656.77519078 199.85682943 -664.38213904 208.91621898 -672.52734375 218.3515625 C-677.44102754 223.85176027 -683.64810605 226.89125037 -690.98828125 227.50390625 C-692.42912949 227.54851352 -693.87096729 227.56660963 -695.3125 227.5625 C-696.51326172 227.5632251 -696.51326172 227.5632251 -697.73828125 227.56396484 C-706.41392206 227.33694789 -714.62731873 225.27978174 -723.03759766 223.28662109 C-735.40885558 220.3668585 -747.22927126 219.07507443 -759.9296875 218.80859375 C-760.6365419 218.79227402 -761.3433963 218.77595428 -762.07167053 218.75914001 C-765.61817948 218.67886692 -769.16231758 218.62002318 -772.7097168 218.60424805 C-780.72322285 218.47305631 -786.81272943 217.53829579 -794 214 C-795.91186281 213.25832908 -797.82750343 212.52615403 -799.75 211.8125 C-800.61109375 211.48894531 -801.4721875 211.16539062 -802.359375 210.83203125 C-815.20709743 206.78385835 -828.92637079 209.14184083 -841.9375 211 C-861.54124768 213.75848813 -879.35983042 215.14031 -897 204.625 C-901.1806172 202.18999603 -904.06799854 201.15892203 -908.875 202.12890625 C-914.50709955 204.43765294 -918.33219467 209.11178967 -922.0625 213.75 C-925.85449795 218.23786992 -929.36687868 219.76631048 -935.125 220.27734375 C-941.31191827 220.45310847 -945.61954981 220.32450581 -951 217 C-953.37890625 214.6953125 -953.37890625 214.6953125 -955.5625 212.125 C-956.34109375 211.238125 -957.1196875 210.35125 -957.921875 209.4375 C-959.41234914 207.68927469 -960.87261768 205.91512396 -962.3125 204.125 C-969.20022527 198.67889165 -979.33034687 196.66096329 -988 197 C-993.33795017 197.93883546 -998.42746212 199.47582071 -1003.5625 201.1875 C-1013.55920821 203.5503583 -1023.6854531 201.23599622 -1033.59570312 199.421875 C-1047.65210529 196.9545192 -1047.65210529 196.9545192 -1061.37109375 199.83984375 C-1064.65706169 202.18020941 -1066.08955137 205.13059333 -1067 209 C-1067.07446017 213.1387447 -1066.50379513 217.04452854 -1065.47265625 221.046875 C-1064.66248027 224.39470965 -1064.37808382 227.59693059 -1065 231 C-1068.75543813 235.18463106 -1072.45233006 235.86084427 -1077.88745117 236.15771484 C-1078.92877197 236.17527832 -1079.97009277 236.1928418 -1081.04296875 236.2109375 C-1082.19990234 236.23929688 -1083.35683594 236.26765625 -1084.54882812 236.296875 C-1086.95493081 236.34853582 -1089.36120164 236.39292888 -1091.76757812 236.4296875 C-1103.97304337 236.75426497 -1112.78241801 239.44801385 -1122.4375 246.875 C-1124.64784143 249.88106434 -1124.86821189 252.3099329 -1125 256 C-1123.89534353 260.29588629 -1120.58249515 261.71330097 -1117 264 C-1115.38629975 267.22740051 -1115.56099561 270.50106946 -1116 274 C-1119.14702788 281.15233608 -1125.94911369 284.38508291 -1132.91015625 287.16015625 C-1149.08529083 292.53823513 -1165.29320608 293.41289306 -1182.18286133 293.53393555 C-1182.86618027 293.54406174 -1183.54949921 293.55418793 -1184.25352478 293.56462097 C-1186.13357153 293.59215904 -1188.01382708 293.6041728 -1189.89404297 293.61523438 C-1193.28171875 294.03489929 -1194.64853923 294.56066649 -1197 297 C-1197.90331469 298.85899313 -1197.90331469 298.85899313 -1198.30859375 300.94921875 C-1198.49518555 301.71145752 -1198.68177734 302.47369629 -1198.87402344 303.2590332 C-1199.0599707 304.06042725 -1199.24591797 304.86182129 -1199.4375 305.6875 C-1203.38236729 320.96404388 -1203.38236729 320.96404388 -1210.625 325.6875 C-1215.36223893 328.08004492 -1220.37596141 329.18348882 -1225.5 330.4375 C-1236.59691418 333.17257237 -1242.62431603 337.16590341 -1250.03515625 345.8828125 C-1254.86288683 351.08486016 -1260.94903686 354.17983588 -1268 355 C-1273.52475114 355.20037957 -1278.25610501 354.68622985 -1283.6875 353.5 C-1296.80765306 350.70053648 -1296.80765306 350.70053648 -1309.375 354 C-1312.84148823 356.5599798 -1315.47919098 359.71621607 -1318.23046875 363.0078125 C-1327.33540407 373.25840193 -1338.88230781 374.37830887 -1351.87695312 375.171875 C-1360.33228424 375.78896583 -1368.38150289 377.38866549 -1375 383 C-1383.83874863 393.59858897 -1387.92343473 406.23246694 -1391.9609375 419.21484375 C-1394.94956417 428.52740445 -1398.71117249 438.15084567 -1407 444 C-1413.58664644 447.14312717 -1419.26906068 447.43651802 -1426.5 447.3125 C-1428.08578857 447.29993164 -1428.08578857 447.29993164 -1429.70361328 447.28710938 C-1437.13458501 447.17409079 -1444.33157852 446.50568335 -1451.6796875 445.45703125 C-1468.28808664 443.17093396 -1485.10167392 447.40236663 -1498.68798828 457.21972656 C-1507.17126091 463.89534373 -1513.5637119 472.42533986 -1520 481 C-1528.01280818 491.65766088 -1539.09064235 496.7585262 -1552 499 C-1556.51795775 499.27130948 -1561.03724639 499.27720161 -1565.5625 499.3125 C-1566.77486328 499.34150391 -1567.98722656 499.37050781 -1569.23632812 499.40039062 C-1576.59455173 499.45168119 -1582.59312673 498.58733885 -1589.47973633 495.95556641 C-1595.7027842 493.59607698 -1601.17514234 493.63428358 -1607.49609375 495.71875 C-1611.32843226 497.67975941 -1613.81990119 500.64102012 -1616.71875 503.76953125 C-1621.41893772 508.3650915 -1626.65383334 511.0384469 -1633.234375 511.3671875 C-1638.51370366 511.24745128 -1642.5801467 509.37763913 -1647.25 507.0625 C-1654.4294436 503.60992704 -1660.81196837 500.88547664 -1669 502 C-1671.09452257 502.8077173 -1671.09452257 502.8077173 -1673.1875 503.875 C-1682.99513363 508.64353911 -1695.4403755 509.35159767 -1706 506.9375 C-1711.85871309 505.63453699 -1717.39112743 505.90480284 -1723.13671875 507.6484375 C-1726.67690184 510.21636905 -1727.25874946 514.82317778 -1728.55859375 518.8359375 C-1730.47409338 523.04069278 -1732.83281114 525.16159847 -1737.140625 526.828125 C-1747.47387779 528.89477556 -1757.29639725 528.43338587 -1767.125 524.375 C-1772.48721032 522.31343308 -1776.54719185 522.10598581 -1781.92578125 524.06640625 C-1788.10354056 526.88986536 -1792.40163243 529.76463668 -1796.3046875 535.36328125 C-1800.93159133 539.83026905 -1810.78919872 538.39861166 -1816.9831543 538.61254883 C-1819.03304121 538.68643814 -1821.08169775 538.7775566 -1823.13085938 538.86914062 C-1833.18339108 539.2587548 -1843.11929939 538.97861377 -1852.625 535.375 C-1860.53631226 532.55469673 -1868.06750431 533.32871033 -1875.65234375 536.73046875 C-1880.03357568 539.09968735 -1883.85018095 542.06733439 -1887.546875 545.390625 C-1894.67256435 551.7501112 -1901.84186137 552.50612365 -1911 552.4375 C-1911.94617187 552.45748047 -1912.89234375 552.47746094 -1913.8671875 552.49804688 C-1920.08046318 552.49374405 -1924.87674875 551.66067039 -1930 548 C-1932.171875 545.7109375 -1932.171875 545.7109375 -1933.75 543.375 C-1935.90344088 540.22846745 -1937.37177486 538.32942601 -1941 537 C-1950.87839685 535.28721345 -1961.27864862 539.87694334 -1969.48828125 545.01953125 C-1973.11787304 547.88143333 -1976.11721751 551.22659132 -1979.07055664 554.7734375 C-1983.31686623 559.77988396 -1987.60684734 561.95026375 -1994 563 C-1998.10086895 563.22956224 -2002.20582092 563.19029252 -2006.3125 563.1875 C-2008.17479248 563.1862915 -2008.17479248 563.1862915 -2010.07470703 563.18505859 C-2021.51972201 563.13306956 -2032.94412278 562.66811276 -2044.375 562.125 C-2045.25088776 562.08579437 -2046.12677551 562.04658875 -2047.02920532 562.00619507 C-2049.54868677 561.89116929 -2052.06725421 561.76405517 -2054.5859375 561.6328125 C-2055.70622093 561.58265236 -2055.70622093 561.58265236 -2056.84913635 561.53147888 C-2062.75747931 561.1985689 -2068.15580037 560.67264618 -2072.6875 556.5625 C-2076.57080701 551.30861405 -2078.21956808 544.78227151 -2079.9609375 538.57421875 C-2082.24033755 530.52337778 -2084.21661956 525.99138282 -2091.6875 521.8125 C-2101.69017407 517.3375243 -2112.26733562 517.62741698 -2123.02026367 517.62939453 C-2125.66456349 517.62503779 -2128.30716774 517.58867577 -2130.95117188 517.55078125 C-2144.34784277 517.46133149 -2155.90006147 519.38288525 -2168.1875 525 C-2174.09623033 527.52737806 -2180.01830333 529.1015298 -2186.3125 530.375 C-2187.53005981 530.62636719 -2187.53005981 530.62636719 -2188.7722168 530.8828125 C-2200.78018246 533.14657931 -2209.10210225 531.75275449 -2219.80078125 525.953125 C-2230.78216797 519.75684252 -2230.78216797 519.75684252 -2243 520 C-2247.87824194 521.93148666 -2252.47252293 524.4040803 -2257.06054688 526.93505859 C-2259.90549224 528.49720005 -2262.79188923 529.9718645 -2265.6875 531.4375 C-2266.59886719 531.91058594 -2267.51023437 532.38367187 -2268.44921875 532.87109375 C-2277.27541836 536.77732911 -2288.91423149 535.73889479 -2298.25 534 C-2309.51313407 531.93837654 -2317.41876593 532.99019867 -2327.75 537.58984375 C-2336.23392262 541.27096883 -2345.88539571 541.2664849 -2355 542 C-2355.78246094 542.06703125 -2356.56492187 542.1340625 -2357.37109375 542.203125 C-2369.01691601 543.10368068 -2369.01691601 543.10368068 -2373.625 540.5390625 C-2375.61760494 538.80285893 -2377.27419446 536.99492868 -2379 535 C-2381.85890499 532.45939414 -2383.54743635 531.61569952 -2387.375 531.75 C-2388.1690625 531.77578125 -2388.963125 531.8015625 -2389.78125 531.828125 C-2392.11949175 531.97401281 -2392.11949175 531.97401281 -2394.875 532.5 C-2397.80800826 532.96928132 -2400.59621199 533.20557106 -2403.5625 533.3125 C-2404.47128906 533.34988281 -2405.38007813 533.38726563 -2406.31640625 533.42578125 C-2410.05971957 532.831864 -2411.47261019 531.84277349 -2414 529 C-2415.04348505 525.91189348 -2415.521775 522.78075903 -2416 519.5625 C-2416.95135135 513.18941672 -2417.59635219 509.1433458 -2423 505 C-2430.80936199 502.39687934 -2437.52434002 504.07335559 -2444.85546875 507.3671875 C-2448.23589347 509.12248878 -2451.41273916 511.07911824 -2454.625 513.125 C-2460.9060477 517.10425058 -2466.69492367 520.08278993 -2474.25 519.9375 C-2481.63158389 517.42105095 -2486.39623828 511.72399795 -2491.52539062 506.1328125 C-2498.45634305 498.8991645 -2506.51282069 495.91267186 -2516.4375 495.625 C-2533.45056443 495.51869492 -2550.14478152 502.06117126 -2565.81640625 508.08203125 C-2573.98756777 510.95439782 -2582.0664548 510.92290834 -2590.01171875 507.28125 C-2592.15474474 506.24201074 -2594.27985123 505.172312 -2596.40258789 504.09228516 C-2618.11354993 493.26969584 -2646.28078737 493.30760854 -2669.20703125 499.92578125 C-2677.25873804 502.76816811 -2684.60372392 506.93341195 -2692.10449219 510.96826172 C-2718.01846243 524.69376241 -2746.41935772 523.35868481 -2774 515 C-2776.10728185 514.2798857 -2778.21168811 513.55127656 -2780.3125 512.8125 C-2785.57373578 511.01408831 -2790.45670582 510.21108571 -2796 510 C-2796.73734375 509.96003906 -2797.4746875 509.92007813 -2798.234375 509.87890625 C-2806.47263079 509.63059003 -2815.72243157 510.1932492 -2822 516 C-2824.53085131 520.33860224 -2825.22538938 524.17065772 -2825.9375 529.125 C-2826.64451436 533.79947509 -2827.32724381 536.75933277 -2831 540 C-2834.6964896 542.48180389 -2838.40052681 542.22513794 -2842.6875 542.125 C-2843.42701904 542.11742676 -2844.16653809 542.10985352 -2844.9284668 542.10205078 C-2848.08312209 542.06942904 -2851.23725338 542.013081 -2854.39160156 541.95898438 C-2856.6985433 541.92280452 -2859.00540106 541.89862646 -2861.3125 541.875 C-2862.02301514 541.85840332 -2862.73353027 541.84180664 -2863.46557617 541.82470703 C-2867.14132857 541.78832662 -2869.92519857 541.86950362 -2873 544 C-2876.5302764 549.83381583 -2876.41589152 557.06497251 -2876.59375 563.66796875 C-2877.4613045 570.78358406 -2881.21512688 574.69170565 -2886.453125 579.16796875 C-2892.9399972 583.83413909 -2900.5078618 586.0639123 -2908.4296875 586.2109375 C-2909.47253906 586.23929688 -2910.51539062 586.26765625 -2911.58984375 586.296875 C-2913.77196746 586.34876855 -2915.95428482 586.39309579 -2918.13671875 586.4296875 C-2926.05264145 586.55849463 -2926.05264145 586.55849463 -2933 590 C-2934.54199476 592.33283398 -2935.78867031 594.45068121 -2937 596.9375 C-2939.81708638 602.68507242 -2942.6019348 606.43128919 -2948.85424805 608.66137695 C-2953.7891354 610.03805702 -2958.71191868 610.41966518 -2963.8125 610.625 C-2965.02788452 610.68083252 -2965.02788452 610.68083252 -2966.26782227 610.73779297 C-2972.32301983 610.99069988 -2978.37731453 611.10032928 -2984.4375 611.125 C-2985.23583252 611.12967285 -2986.03416504 611.1343457 -2986.85668945 611.13916016 C-2990.41898073 611.12917422 -2993.56917058 610.9081478 -2997 610 C-3006.05986875 609.22258552 -3010.85844303 611.21122174 -3017.875 616.9375 C-3029.59836653 626.43447051 -3042.25861376 628.07525654 -3057 628.8125 C-3057.99136963 628.86559326 -3058.98273926 628.91868652 -3060.00415039 628.97338867 C-3065.07873702 629.16542805 -3069.29991633 629.20874185 -3074 627 C-3075.70884005 625.37660195 -3077.37446717 623.70680947 -3079 622 C-3092.76670887 611.84583176 -3111.74578206 611.83796676 -3128.1875 611.6875 C-3129.9511792 611.66091309 -3129.9511792 611.66091309 -3131.75048828 611.63378906 C-3148.73051356 611.64808402 -3161.19424611 617.63040553 -3174.9375 627.0625 C-3189.16901401 636.76977529 -3203.37952183 640.82670385 -3220.6784668 639.7512207 C-3229.70539734 639.44126047 -3236.59785486 641.91063441 -3246 644 C-3246 623.21 -3246 602.42 -3246 581 C-3226.63611203 575.30473883 -3226.63611203 575.30473883 -3219.8125 575.8125 C-3218.30490599 575.86143829 -3216.79705657 575.90302509 -3215.2890625 575.9375 C-3214.5662207 575.95554687 -3213.84337891 575.97359375 -3213.09863281 575.9921875 C-3195.80920182 576.0565502 -3183.14018927 568.86004039 -3169.30883789 559.43286133 C-3156.21476435 550.55235475 -3145.66803689 547.64018809 -3129.84545898 547.73925781 C-3127.8335084 547.74988899 -3125.82246882 547.73936005 -3123.81054688 547.7265625 C-3109.37200528 547.75491506 -3090.71210621 548.28752168 -3079 558 C-3078.57203125 558.51175781 -3078.1440625 559.02351563 -3077.703125 559.55078125 C-3075.53673208 562.10055269 -3074.00328501 563.77878687 -3070.65258789 564.51757812 C-3064.05492845 565.01283834 -3057.70900256 564.95666996 -3051.125 564.3125 C-3050.16827393 564.22000977 -3049.21154785 564.12751953 -3048.22583008 564.03222656 C-3035.64306334 562.68251434 -3025.89303382 559.35660357 -3015.953125 551.3515625 C-3011.54820142 547.85152632 -3007.75484597 545.27863314 -3002 545 C-2999.63044133 545.37391201 -2997.33449305 545.92887359 -2995 546.48046875 C-2985.28307146 548.16321809 -2974.81120978 547.06422107 -2965 546.625 C-2963.85349976 546.5789563 -2963.85349976 546.5789563 -2962.68383789 546.53198242 C-2954.91076052 546.12394021 -2947.50756725 545.4772517 -2941.6171875 539.98046875 C-2939.0394216 536.8236395 -2937.35195486 533.27445522 -2935.65234375 529.5859375 C-2933.42045725 526.09300874 -2931.77703251 524.7915105 -2928 523 C-2923.95750786 522.48068458 -2919.94622467 522.49670298 -2915.875 522.5 C-2903.0692455 522.237945 -2892.74861541 521.11436814 -2883 512 C-2878.45989986 506.99424857 -2877.90528728 503.46598616 -2877.625 496.8125 C-2877.25517366 490.20155714 -2876.8371514 484.25747013 -2872.3125 479.0625 C-2866.86422713 476.55923949 -2861.98220723 476.97488234 -2856.203125 477.75097656 C-2852.4301049 478.17744825 -2848.66876889 478.22440965 -2844.875 478.25 C-2844.10285156 478.270625 -2843.33070313 478.29125 -2842.53515625 478.3125 C-2837.60785925 478.34607613 -2834.26881462 477.72838611 -2830 475 C-2827.10500845 471.0710829 -2826.71685087 467.22404606 -2826.125 462.5 C-2825.3065884 456.65800503 -2824.52526573 453.8213355 -2820 450 C-2808.2033348 443.66475387 -2792.66139408 444.97432057 -2780.10742188 448.53710938 C-2776.68820427 449.56989358 -2773.28979881 450.66511926 -2769.890625 451.76171875 C-2760.62742237 454.73852996 -2751.73506493 456.63904885 -2742 457 C-2741.23478027 457.03254883 -2740.46956055 457.06509766 -2739.68115234 457.09863281 C-2717.09223258 457.95693374 -2701.22461301 451.77207026 -2681.58984375 441.15625 C-2658.91321629 429.19226889 -2630.20658848 429.1165445 -2605.83203125 435.87890625 C-2602.02364361 437.19233287 -2598.45117253 438.77831276 -2594.8359375 440.5546875 C-2583.80457536 445.954113 -2576.37271041 447.32244179 -2564.63671875 443.30859375 C-2563.43660156 442.87675781 -2562.23648438 442.44492188 -2561 442 C-2518.1350375 427.05466702 -2518.1350375 427.05466702 -2500.22265625 434.80859375 C-2494.56695033 437.84021116 -2490.83032644 442.26664593 -2486.73828125 447.06640625 C-2483.56801681 450.59288018 -2479.83342465 454.67327239 -2474.93359375 455.23828125 C-2474.10988281 455.26277344 -2473.28617188 455.28726563 -2472.4375 455.3125 C-2471.63183594 455.34988281 -2470.82617188 455.38726563 -2469.99609375 455.42578125 C-2461.46595027 454.21354443 -2453.66421355 448.67094106 -2446.31054688 444.44726562 C-2445.55193359 444.01736328 -2444.79332031 443.58746094 -2444.01171875 443.14453125 C-2442.99791138 442.56215698 -2442.99791138 442.56215698 -2441.96362305 441.96801758 C-2436.91372754 439.47854404 -2431.51772878 439.5118597 -2426 440 C-2421.70166478 441.56303099 -2419.34280944 443.09957338 -2417 447 C-2416.3938685 449.6686623 -2415.89836819 452.23990797 -2415.5 454.9375 C-2414.77349605 459.83019021 -2414.01851414 463.94194656 -2411 468 C-2406.67614916 470.16192542 -2400.65763486 469.27627248 -2396 468.5 C-2385.06945429 466.67824238 -2385.06945429 466.67824238 -2380.71875 469.45703125 C-2378.7184331 471.22970014 -2376.87060727 473.09263407 -2375 475 C-2370.68761949 479.00108341 -2366.37482066 478.44893915 -2360.80078125 478.28125 C-2341.2776456 477.40257892 -2341.2776456 477.40257892 -2322.75 471.8125 C-2312.96125807 467.3750838 -2304.45189297 468.65285963 -2294.171875 470.54296875 C-2278.59115293 472.78797427 -2268.05719279 469.6428335 -2255.06298828 461.58056641 C-2247.65401105 457.00418125 -2240.78653449 454.41968804 -2232 456 C-2227.08899334 457.89783858 -2222.5089082 460.53823694 -2217.87890625 463.02539062 C-2207.58588103 468.36449622 -2198.96040929 468.71194876 -2187.8125 466.5 C-2186.9568042 466.33129395 -2186.1011084 466.16258789 -2185.21948242 465.98876953 C-2177.58740671 464.35713696 -2170.45142636 461.78294197 -2163.2434082 458.81835938 C-2162.42702881 458.48384766 -2161.61064941 458.14933594 -2160.76953125 457.8046875 C-2160.06417236 457.50546387 -2159.35881348 457.20624023 -2158.63208008 456.89794922 C-2151.56017587 454.48532853 -2144.79868746 453.69109056 -2137.35546875 453.69921875 C-2136.46442947 453.69493362 -2135.5733902 453.6906485 -2134.65534973 453.68623352 C-2132.78220463 453.68052762 -2130.90903738 453.67996212 -2129.03588867 453.68432617 C-2126.20517232 453.68748031 -2123.3755091 453.66399986 -2120.54492188 453.63867188 C-2107.50867959 453.5921277 -2094.14316592 453.59373075 -2084 463 C-2079.83247611 468.17081667 -2078.56848076 475.52295904 -2076.92480469 481.83325195 C-2075.65694697 486.50994224 -2074.31241673 490.33268147 -2071 494 C-2065.23727877 496.71637706 -2059.36024569 497.49861391 -2053.06640625 497.73046875 C-2052.23878784 497.77084259 -2051.41116943 497.81121643 -2050.55847168 497.85281372 C-2047.89355764 497.97837205 -2045.22836325 498.08421512 -2042.5625 498.1875 C-2040.718658 498.26627189 -2038.87482665 498.34529371 -2037.03100586 498.42456055 C-2026.71275415 498.85213736 -2016.38951567 499.21129262 -2006.0625 499.3125 C-2004.56795288 499.33896606 -2004.56795288 499.33896606 -2003.04321289 499.3659668 C-1995.63119325 499.35890956 -1988.6476742 498.23834553 -1982.25 494.3125 C-1980.29784684 492.30612036 -1978.8878372 490.41600285 -1977.3125 488.125 C-1971.65472796 480.32017601 -1960.40280856 474.88056171 -1951 473 C-1946.62089597 472.62973429 -1942.49067345 472.47999763 -1938.3125 473.9375 C-1935.37499834 476.55743391 -1933.30445456 479.56757497 -1931.13671875 482.84375 C-1926.33062745 487.69377267 -1920.21556507 488.37967693 -1913.62695312 488.41015625 C-1912.35754883 488.39275391 -1912.35754883 488.39275391 -1911.0625 488.375 C-1910.22009766 488.38660156 -1909.37769531 488.39820312 -1908.50976562 488.41015625 C-1899.37781673 488.36797635 -1892.75976923 486.3029526 -1885.9375 480.0625 C-1879.01474883 473.9355944 -1872.45705079 469.9034663 -1863 469.6875 C-1861.948125 469.65011719 -1860.89625 469.61273437 -1859.8125 469.57421875 C-1856.31823077 469.96445988 -1854.4356794 470.62393623 -1851.29296875 472 C-1842.92658884 475.21547439 -1834.13208661 474.46043302 -1825.3125 474.3125 C-1823.55144287 474.30098346 -1821.79037348 474.29120579 -1820.02929688 474.28320312 C-1818.32811204 474.26978228 -1816.62693824 474.2548602 -1814.92578125 474.23828125 C-1813.75986198 474.22720085 -1813.75986198 474.22720085 -1812.57038879 474.21589661 C-1803.55798653 474.44914216 -1803.55798653 474.44914216 -1795.75 471.07421875 C-1795.1725 470.28660156 -1794.595 469.49898437 -1794 468.6875 C-1789.58517373 463.21032895 -1784.28726177 459.65955617 -1777.08984375 458.76171875 C-1772.61942879 458.60756651 -1769.39967911 459.07601248 -1765.3125 460.9375 C-1756.28851973 464.87498207 -1744.31586692 465.48950269 -1735 462 C-1731.36718716 459.13440576 -1730.19905203 456.32552845 -1728.75 452 C-1727.14372301 447.97202712 -1726.07206778 445.34812271 -1722.1875 443.25 C-1716.49993907 441.14112909 -1711.37427211 441.60562469 -1705.625 443 C-1695.34413766 445.45617872 -1682.80397303 444.60396713 -1673.3125 439.875 C-1667.44179037 437.04638536 -1662.23126051 436.91720674 -1656.05078125 438.98828125 C-1652.99479476 440.25215274 -1649.9963071 441.60093068 -1647 443 C-1637.39010781 447.37800881 -1637.39010781 447.37800881 -1627.078125 446.41015625 C-1621.65121427 444.05487699 -1617.62753546 440.17629811 -1613.39453125 436.12109375 C-1609.25036642 432.45016144 -1605.46049446 430.28758501 -1599.8515625 429.78515625 C-1596.90999627 430.0067811 -1594.44348345 430.75993722 -1591.66796875 431.7265625 C-1583.13306106 434.6966451 -1575.29083515 435.50062136 -1566.25 435.5 C-1564.58251709 435.50858032 -1564.58251709 435.50858032 -1562.88134766 435.51733398 C-1548.76928153 435.30977292 -1535.39700087 432.47659337 -1525 422.5 C-1521.37473198 418.69346858 -1518.15124136 414.69447879 -1515 410.5 C-1503.19595607 394.80637796 -1489.8600088 385.39857331 -1470.5 381.25 C-1462.38772801 380.670552 -1454.61929999 380.83605656 -1446.5625 382 C-1439.91850988 382.92659038 -1433.33174283 383.28460502 -1426.625 383.375 C-1425.72209229 383.40078125 -1424.81918457 383.4265625 -1423.88891602 383.453125 C-1416.63050709 383.47442432 -1409.77679653 382.04346044 -1404.00708008 377.39404297 C-1396.71875354 369.80745538 -1393.96677417 359.15357 -1390.81811523 349.35839844 C-1386.45180702 335.88521881 -1382.05908707 323.62241138 -1370.1171875 315.05078125 C-1363.76717458 311.89920657 -1357.33022343 311.59683377 -1350.375 311.125 C-1336.20106617 309.9461801 -1326.02165713 307.94446166 -1316 297 C-1315.31550781 296.12730469 -1314.63101562 295.25460937 -1313.92578125 294.35546875 C-1309.95577235 289.49965665 -1305.4345933 287.69868951 -1299.31933594 287.03613281 C-1294.8576511 286.96662446 -1290.59012176 288.06030117 -1286.25 289 C-1274.88839559 291.24482554 -1265.15899143 292.47730814 -1255 286 C-1252.5675744 283.84572021 -1250.42549527 281.47226964 -1248.25 279.0625 C-1239.33991756 269.73585778 -1229.71554414 266.91642577 -1217.4453125 264.08984375 C-1211.59576494 262.23947667 -1207.32086099 259.15306016 -1204 254 C-1202.39381966 250.140489 -1201.28762845 246.16789795 -1200.2890625 242.11328125 C-1199.92941406 240.66501953 -1199.92941406 240.66501953 -1199.5625 239.1875 C-1199.35753906 238.29417969 -1199.15257812 237.40085937 -1198.94140625 236.48046875 C-1197.77073624 233.39592329 -1196.57981824 232.06203026 -1194 230 C-1191.00170898 229.50170898 -1191.00170898 229.50170898 -1187.49609375 229.49609375 C-1186.20711182 229.4796582 -1184.91812988 229.46322266 -1183.59008789 229.44628906 C-1182.57279099 229.44489929 -1182.57279099 229.44489929 -1181.53494263 229.44348145 C-1178.00919114 229.43342678 -1174.48550164 229.34912759 -1170.9609375 229.26171875 C-1170.26688309 229.24501129 -1169.57282867 229.22830383 -1168.85774231 229.21109009 C-1153.42440185 228.77987504 -1131.34125305 226.70034285 -1120 215 C-1117.16728614 211.70954081 -1116.41343074 209.39986997 -1116.578125 204.953125 C-1117.29227216 201.64688813 -1119.48485317 200.11500983 -1122 198 C-1125.04043421 194.95956579 -1125.98470445 193.85655067 -1126.0625 189.5 C-1124.1908743 183.33464475 -1119.62828594 180.56354176 -1114.453125 177.2109375 C-1105.07578247 172.58199453 -1096.26891647 172.55212587 -1085.94921875 172.47265625 C-1075.27710289 172.55986742 -1075.27710289 172.55986742 -1066 168 C-1065.76265396 163.56954057 -1065.94614312 159.85443961 -1067.0625 155.5625 C-1068.47647705 149.67262438 -1068.39235487 144.46339708 -1065.375 139.125 C-1059.53254315 133.89753861 -1054.12219239 133.48935439 -1046.49609375 133.62890625 C-1039.59688884 134.06886956 -1032.76797136 135.35831996 -1025.97119141 136.57641602 C-1016.15077376 138.30549284 -1008.73343588 138.56803561 -999.25 135.4375 C-991.50333002 133.09682571 -985.04531883 132.40396509 -977 134 C-976.09636719 134.17917969 -975.19273437 134.35835937 -974.26171875 134.54296875 C-964.85698795 136.89771925 -959.16509394 142.18546264 -953.640625 149.94921875 C-950.92728543 153.34089321 -948.31946612 155.32008404 -944 156 C-936.69914076 156.63621773 -929.87237769 156.85055935 -924 152 C-921.87190824 149.52202855 -919.9056641 146.95784231 -917.9375 144.3515625 C-915.17941025 141.00404228 -913.03000152 139.61200061 -909 138 C-903.43781288 137.51347299 -900.26511279 138.53696141 -895.4375 141.25 C-876.66815991 151.18774463 -860.20846556 149.42604732 -839.94555664 146.43920898 C-821.49004324 143.80817664 -806.33596781 143.74873637 -789.3125 151.9140625 C-785.02015636 153.92972387 -781.30236089 154.17637268 -776.6484375 154.24609375 C-775.14062102 154.27911579 -773.63280865 154.31232562 -772.125 154.34570312 C-769.77380213 154.39242689 -767.42260909 154.43668768 -765.07128906 154.47680664 C-749.10869119 154.761975 -734.02538322 156.25583597 -718.5 160.125 C-698.44877053 164.91167552 -698.44877053 164.91167552 -679 160 C-673.71049542 156.20049671 -669.701762 151.70411735 -665.75 146.5625 C-658.49967168 137.48064275 -648.78186435 130.45409085 -637 129 C-631.50608129 129 -627.43704635 130.55425613 -622.3125 132.5 C-610.60821286 136.81869419 -599.02768063 137.39898309 -587.5625 132.125 C-581.95763912 129.03614881 -580.36210974 124.79162527 -578.0625 119.0234375 C-577 117 -577 117 -574 115 C-571.15600586 114.82055664 -571.15600586 114.82055664 -567.71484375 114.91015625 C-565.83442383 114.94012695 -565.83442383 114.94012695 -563.91601562 114.97070312 C-561.29090708 115.03127264 -558.66589672 115.09628194 -556.04101562 115.16601562 C-543.33262734 115.49775077 -543.33262734 115.49775077 -532.51953125 109.6953125 C-531.95621094 108.84710937 -531.39289062 107.99890625 -530.8125 107.125 C-526.59710985 101.34991549 -522.96258504 97.23804079 -515.6875 96 C-511.26415748 95.7081043 -507.77308979 96.87611942 -503.625 98.2890625 C-498.54999206 99.66354382 -492.69244412 100.06672959 -487.7421875 98.10546875 C-485.83911532 97.10791056 -485.83911532 97.10791056 -485 95 C-485.0791511 93.17952468 -485.16181094 91.35907633 -485.26904297 89.54003906 C-485.79598719 78.77289312 -485.79598719 78.77289312 -481.875 74.25 C-480.1171875 72.578125 -480.1171875 72.578125 -478 71 C-477.22527344 70.27296875 -476.45054687 69.5459375 -475.65234375 68.796875 C-469.67316862 64.88439034 -460.58429071 66.88337028 -453.80664062 67.15625 C-446.44524619 67.33810637 -440.2497163 67.27298628 -434 63 C-430.21146652 58.53147334 -429.75350297 54.83114086 -429.0625 49.0625 C-428.11426644 41.30347579 -426.16401 36.67183067 -420.1875 31.625 C-411.04591249 26.96458284 -401.13938519 27.64688456 -391.13769531 27.61914062 C-378.83846359 27.56190828 -368.81393575 25.14705062 -357.8125 19.5625 C-342.77418618 12.35058585 -326.71567459 7.96001997 -310.00390625 11.6640625 C-307.52238048 12.60125614 -305.31479198 13.70401614 -303 15 C-291.68028469 21.47534441 -291.68028469 21.47534441 -279 23 C-278.02401855 22.50632935 -278.02401855 22.50632935 -277.02832031 22.00268555 C-272.49851929 20.50285543 -268.10449346 20.71504049 -263.36328125 20.734375 C-262.32866257 20.73246155 -261.29404388 20.7305481 -260.22807312 20.72857666 C-258.04014849 20.72721726 -255.85221572 20.73089658 -253.66430664 20.73925781 C-250.34177137 20.74990619 -247.01978352 20.73938219 -243.69726562 20.7265625 C-241.56510299 20.7278852 -239.43294069 20.73044987 -237.30078125 20.734375 C-235.82681633 20.72830231 -235.82681633 20.72830231 -234.32307434 20.72210693 C-224.11558018 20.79026832 -214.05568162 21.6976631 -206.5 29.1875 C-202.65867099 33.70571518 -200.93807868 38.85709996 -199.21679688 44.4519043 C-198.15537699 47.71639664 -197.32152887 49.73107519 -194.66015625 51.95703125 C-189.09236557 54.13999764 -183.2063628 53.77631284 -177.625 51.8125 C-173.79907156 49.17078751 -170.91784475 46.04872572 -167.86328125 42.55859375 C-167.08339844 41.67300781 -166.30351562 40.78742187 -165.5 39.875 C-164.7678125 39.02679687 -164.035625 38.17859375 -163.28125 37.3046875 C-160.37143681 34.36497897 -157.81251277 32.31071648 -153.67578125 31.6015625 C-148.1464244 31.6563991 -143.62449313 32.60931913 -138.37890625 34.30859375 C-134.53410053 35.4260496 -132.01099129 35.5917856 -128 35 C-123.06003077 32.00514366 -119.60063193 27.42363351 -116 23 C-108.35712553 19.17856276 -96.03159287 22.35249377 -88 24 C-87.41992188 22.86111328 -87.41992188 22.86111328 -86.828125 21.69921875 C-86.30734375 20.70535156 -85.7865625 19.71148438 -85.25 18.6875 C-84.73953125 17.70136719 -84.2290625 16.71523437 -83.703125 15.69921875 C-81.99999028 12.99998459 -80.75874099 11.5664944 -78 10 C-71.60872771 10 -66.52200229 12.26480727 -60.734375 14.84375 C-56.93407404 16.4507344 -53.68242523 17.16431698 -49.5625 17.25 C-48.82128906 17.27578125 -48.08007812 17.3015625 -47.31640625 17.328125 C-44.18380752 16.8843842 -42.50704914 15.93964315 -40 14 C-38.07569496 11.02524785 -38.07569496 11.02524785 -36.5 7.625 C-33.59730655 1.66900164 -30.54222991 -2.30518006 -25 -6 C-15.52222308 -9.15925897 -7.71026203 -5.23694002 0 0 Z " fill="#000000" transform="translate(3246,3088)"/>
</svg>
